<?xml version="1.0" encoding="UTF-8" standalone="no"?>
<!-- Created with Inkscape (http://www.inkscape.org/) -->

<svg
   xmlns:dc="http://purl.org/dc/elements/1.1/"
   xmlns:cc="http://creativecommons.org/ns#"
   xmlns:rdf="http://www.w3.org/1999/02/22-rdf-syntax-ns#"
   xmlns:svg="http://www.w3.org/2000/svg"
   xmlns="http://www.w3.org/2000/svg"
   xmlns:sodipodi="http://sodipodi.sourceforge.net/DTD/sodipodi-0.dtd"
   xmlns:inkscape="http://www.inkscape.org/namespaces/inkscape"
   width="300mm"
   height="210mm"
   viewBox="0 0 300 210"
   version="1.1"
   id="svg19563"
   inkscape:version="0.92.4 (5da689c313, 2019-01-14)"
   sodipodi:docname="xAfrica.svg">
  <defs
     id="defs19557" />
  <sodipodi:namedview
     id="base"
     pagecolor="#ffffff"
     bordercolor="#666666"
     borderopacity="1.0"
     inkscape:pageopacity="0.0"
     inkscape:pageshadow="2"
     inkscape:zoom="0.35"
     inkscape:cx="1212.8571"
     inkscape:cy="634.28571"
     inkscape:document-units="mm"
     inkscape:current-layer="layer1"
     showgrid="false"
     inkscape:window-width="1920"
     inkscape:window-height="1017"
     inkscape:window-x="1912"
     inkscape:window-y="-8"
     inkscape:window-maximized="1" />
  <metadata
     id="metadata19560">
    <rdf:RDF>
      <cc:Work
         rdf:about="">
        <dc:format>image/svg+xml</dc:format>
        <dc:type
           rdf:resource="http://purl.org/dc/dcmitype/StillImage" />
        <dc:title></dc:title>
      </cc:Work>
    </rdf:RDF>
  </metadata>
  <g
     inkscape:label="Layer 1"
     inkscape:groupmode="layer"
     id="layer1"
     transform="translate(0,-87)">
    <path
       style="display:inline;fill:none;fill-opacity:1;stroke:#000000;stroke-width:0.2;stroke-miterlimit:4;stroke-dasharray:none;stroke-opacity:1"
       d="m 39.60751,132.59376 c 1.649849,-0.83404 2.58673,-0.61718 5.598346,1.29582 3.030711,1.92515 3.903721,2.18584 6.807618,2.0331 2.476871,-0.1303 4.533357,0.45504 5.202173,1.4807 0.55521,0.85149 0.551448,0.85032 0.956005,0.29699 1.492495,-2.04171 6.186699,-1.06705 11.567325,2.4015 1.894143,1.22103 2.572806,1.55328 2.730586,1.33673 0.242087,-0.33228 1.499322,0.48902 1.761247,1.15052 0.216068,0.54564 0.870471,0.63792 6.204749,0.86938 6.71903,0.29221 9.29536,0.95807 10.11253,2.6136 0.34944,0.7079 0.42439,0.74796 1.07624,0.57504 0.59159,-0.15691 0.90822,-0.0277 2.03415,0.82984 1.73382,1.32064 3.62174,4.08651 6.01021,8.80535 l 1.828131,3.61177 1.48888,0.59717 c 0.81885,0.32845 2.91307,1.40708 4.65377,2.39697 3.2742,1.86193 5.12837,2.53649 7.23312,2.63135 0.67362,0.0303 1.48681,0.21481 1.80705,0.40988 0.32023,0.19509 0.77374,0.30608 1.00777,0.24672 0.23404,-0.0594 0.76775,0.14141 1.18605,0.44618 0.59605,0.43427 1.02677,0.50027 1.99142,0.30515 0.74826,-0.15135 1.43107,-0.10311 1.74147,0.12304 0.36352,0.26485 0.78188,0.24195 1.45219,-0.0795 1.40378,-0.67315 5.69651,-1.17929 7.21475,-0.85063 1.52149,0.32936 2.33811,1.01665 3.46901,2.91972 0.391,0.65796 0.99013,1.44076 1.33136,1.73952 0.34127,0.29875 0.67527,0.67754 0.74229,0.8417 0.067,0.16413 0.34526,0.24165 0.61809,0.17259 0.80425,-0.20402 1.24727,0.34286 1.37016,1.69126 l 0.11524,1.26435 1.21729,0.21077 c 0.66954,0.1159 2.05601,0.51851 3.08108,0.89472 1.02506,0.37616 2.26428,0.647 2.75381,0.60186 l 0.89004,-0.0821 0.25731,-1.54139 c 0.32918,-1.97192 1.41683,-3.53934 3.02031,-4.35265 0.62356,-0.31627 2.39297,-0.84569 3.932,-1.17649 1.53905,-0.33078 3.30856,-0.76662 3.93226,-0.96852 1.31542,-0.42583 3.05874,-2.07468 2.57002,-2.43075 -0.65931,-0.48036 0.46202,-1.8497 1.61505,-1.97229 0.66781,-0.071 0.67724,-0.0952 0.45773,-1.17245 -0.15286,-0.75033 -0.0919,-1.20804 0.19165,-1.43989 0.3085,-0.25223 0.30774,-0.46943 -0.003,-0.84198 -0.7132,-0.85493 -0.69986,-2.69225 0.0309,-4.25843 0.36445,-0.78107 0.90964,-1.95113 1.21159,-2.60012 0.80066,-1.721 1.45012,-2.51608 2.29052,-2.80405 1.83737,-0.62961 4.52526,-5.22352 5.61557,-9.59762 0.47778,-1.91672 0.64188,-2.28282 0.98208,-2.19112 0.22467,0.0605 0.45486,-0.0621 0.51159,-0.27264 0.0567,-0.21048 1.85693,-1.12599 4.00046,-2.03442 3.81432,-1.61652 6.37411,-2.30424 6.96755,-1.87187 0.17123,0.12475 0.59334,-0.0629 0.99696,-0.44323 0.46801,-0.44102 1.42132,-0.80424 2.87651,-1.09599 2.08339,-0.41773 2.22335,-0.40428 3.27105,0.31397 0.60196,0.41272 1.14354,0.93586 1.2035,1.16247 0.0803,0.30375 0.19024,0.30052 0.41818,-0.0123 0.40679,-0.55833 6.32282,-1.37102 6.90305,-0.94827 0.32391,0.23599 0.53499,0.17487 0.83956,-0.24316 0.38058,-0.52236 0.44858,-0.51413 1.05299,0.1273 l 0.64614,0.68574 0.69949,-0.96008 c 0.8751,-1.2011 2.49883,-1.7382 2.71219,-0.89715 0.0978,0.38561 0.19262,0.45977 0.39945,0.3123 0.14914,-0.10637 0.47062,-0.0694 0.71433,0.0821 0.24383,0.15142 0.62131,0.28903 0.83904,0.30561 0.22575,0.0172 0.51013,0.3327 0.66177,0.7343 0.25165,0.66636 0.32654,0.69666 1.39737,0.56568 1.24613,-0.15241 2.47041,0.30968 3.2992,1.2453 0.78766,0.88911 1.49338,3.02258 1.44293,4.36184 l -0.0439,1.16581 0.59472,-0.42406 c 0.69334,-0.49434 0.76144,-0.46172 1.46853,0.70366 0.88911,1.4654 2.50715,2.43794 5.49902,3.30526 1.48648,0.43092 3.12198,1.01683 3.63439,1.30201 0.51241,0.28524 1.07633,0.46122 1.25315,0.3912 0.21878,-0.0866 0.46857,0.21631 0.78205,0.94851 0.25332,0.5917 1.37245,2.8571 2.487,5.03422 1.1145,2.17713 2.3992,4.80633 2.85488,5.84272 0.98881,2.24883 1.69587,5.59518 1.4943,7.07204 -0.15228,1.11573 0.023,1.52795 0.41882,0.98473 0.4046,-0.55533 0.66775,-0.0461 0.33917,0.65632 -2.00801,4.29298 -1.73199,6.05196 1.69002,10.76928 3.55245,4.89714 4.04004,6.26829 3.55314,9.99163 -0.23109,1.76698 -0.14843,2.4887 0.53181,4.64318 1.18653,3.75789 0.86635,5.05514 -1.44568,5.85741 -1.07721,0.37379 -1.29126,0.56832 -2.37704,2.16031 -0.91745,1.34523 -1.41032,1.85807 -2.13267,2.21918 l -0.93948,0.46965 0.22428,0.88033 c 0.81202,3.18725 -4.59529,15.13543 -10.07167,22.25474 -1.48242,1.92717 -2.35566,2.88646 -2.70887,2.9759 -0.38641,0.0978 -0.48616,0.21778 -0.38572,0.46386 0.0745,0.18257 0.0265,0.86043 -0.10671,1.50635 -0.64948,3.14905 -3.9866,4.90292 -5.4122,2.8445 -0.2646,-0.38206 -0.9407,-0.94182 -1.50247,-1.24394 -0.85557,-0.46013 -1.14261,-0.80366 -1.768,-2.11582 -1.14567,-2.40382 -1.19121,-2.41294 -3.79543,-0.75978 -0.36318,0.23056 -0.78266,0.33004 -0.9322,0.22109 -0.20226,-0.14736 -0.68099,0.36324 -1.86919,1.99359 -1.51081,2.07364 -1.70168,2.24808 -3.53221,3.23711 -1.06422,0.575 -3.4174,1.6381 -5.22929,2.36249 -4.618,1.84624 -6.65438,3.25519 -7.75532,5.36579 -0.35208,0.67492 -0.44701,1.14524 -0.25885,1.28234 0.99855,0.72752 2.17809,2.42054 2.41147,3.46118 0.35431,1.57983 -0.36501,3.60022 -1.88392,5.29151 -1.84299,2.05217 -4.71887,3.84347 -6.98725,4.3522 -1.01938,0.22862 -1.19648,0.35375 -1.23354,0.87154 -0.0349,0.48816 -0.31179,0.81053 -1.43768,1.67398 -1.20812,0.92649 -2.05922,1.96286 -6.36968,7.75636 -2.73636,3.67783 -5.23991,7.00972 -5.56346,7.40415 -0.32354,0.39446 -0.77823,1.1359 -1.01036,1.64768 l -0.42208,0.93049 -1.59941,-0.32472 c -2.39011,-0.48532 -4.43129,-1.57402 -5.12758,-2.73495 -0.8604,-1.43454 -0.1173,-3.0544 1.73769,-3.78804 0.36041,-0.14253 0.59974,-0.2996 0.53184,-0.34907 -0.27252,-0.19856 -14.01741,-2.14236 -16.79961,-2.37582 -3.2228,-0.2704 -3.86119,-0.5282 -3.84211,-1.5515 0.0121,-0.65157 -0.006,-0.65674 -0.94465,-0.27346 -1.59502,0.65111 -2.59964,0.6378 -4.46201,-0.0591 -0.97859,-0.36617 -2.70444,-0.88962 -3.83525,-1.16318 -1.13078,-0.27357 -2.21413,-0.61259 -2.4074,-0.75341 -0.19443,-0.14166 -0.66984,-0.0473 -1.06436,0.21132 -0.72117,0.47273 -0.89345,0.45397 -5.95285,-0.64764 -0.74981,-0.16325 -1.61131,-0.17646 -1.91447,-0.0293 -0.6374,0.30939 -6.88356,2.00577 -8.63399,2.34492 -0.65109,0.12617 -1.58119,0.16822 -2.06685,0.0934 -0.48568,-0.0747 -1.05567,-0.0607 -1.26667,0.0313 -0.50123,0.21847 -1.08872,-0.22466 -1.32236,-0.99735 -0.27202,-0.89989 -0.63473,-1.07042 -1.22658,-0.5767 -0.35599,0.29694 -0.67131,0.32929 -0.98466,0.101 -0.82798,-0.60326 -2.37341,0.51224 -4.17554,3.01394 -1.35249,1.8774 -1.796141,2.78406 -3.535751,7.2245 -1.61254,4.11616 -2.19462,5.33478 -3.07388,6.43547 l -1.08467,1.35781 -1.02036,-0.84612 c -1.79161,-1.48553 -3.85058,-4.76034 -7.18065,-11.42091 -4.41123,-8.82302 -4.61156,-9.60508 -4.90372,-19.14692 -0.15944,-5.20755 -0.81503,-9.09462 -1.91367,-11.34641 -0.57659,-1.18172 -0.74044,-1.89985 -0.60226,-2.63947 0.21206,-1.13523 -0.28557,-2.93444 -1.436461,-5.19352 -0.879759,-1.72678 -1.416848,-3.80351 -1.097201,-4.24224 0.272466,-0.37397 0.171306,-0.4423 -1.316425,-0.88909 -0.689451,-0.20704 -2.916566,-1.42011 -5.184374,-2.82382 -4.279095,-2.64869 -5.73606,-3.3311 -7.011724,-3.28403 -0.447755,0.0165 -1.003751,-0.10815 -1.235536,-0.27703 -0.231793,-0.16888 -0.869116,-0.27573 -1.416266,-0.23745 -1.367308,0.0957 -2.903757,-0.80651 -7.490083,-4.39808 -3.104866,-2.43142 -3.861377,-3.1255 -4.102426,-3.76377 -0.505729,-1.33906 -0.567757,-4.87489 -0.152831,-8.71035 0.483881,-4.47284 0.458568,-7.42904 -0.07609,-8.8844 -0.624978,-1.70124 -2.269968,-2.95796 -4.649745,-3.55224 -4.743575,-1.18456 -6.917616,-4.61109 -6.613869,-10.42428 0.09531,-1.82402 0.03426,-2.08027 -0.606954,-2.54744 -1.982686,-1.44454 -3.410455,-4.01467 -5.159504,-9.28746 -2.350411,-7.08575 -2.984211,-13.47219 -1.824976,-18.3891 0.380307,-1.61308 0.647663,-2.1312 2.393948,-4.63933 1.310149,-1.88177 2.508056,-3.95698 3.591557,-6.22202 2.414703,-5.04793 3.466846,-6.65783 4.78752,-7.32548 z m -21.130993,73.33593 c 1.977544,-1.32484 4.32209,-1.17522 6.023684,0.38443 0.604505,0.55413 1.19555,0.87476 1.774456,0.964 1.423944,0.2187 3.304427,1.99388 4.755761,4.4894 2.334289,4.01377 3.916656,5.36744 6.304451,5.39342 0.901936,0.01 0.949908,0.0402 1.084906,0.6875 0.07767,0.37248 0.582107,1.11906 1.120973,1.65905 1.115018,1.11731 1.13963,1.31362 0.352364,2.81033 -0.746366,1.4189 -1.104144,3.10248 -1.25426,5.90232 -0.103772,1.93531 -0.03152,2.34684 0.477873,2.72153 0.813517,0.5989 1.11792,1.2839 1.530369,3.44764 0.19281,1.01145 0.576938,2.25716 0.853619,2.76826 0.276657,0.51108 0.395601,1.00652 0.264304,1.10096 -0.527015,0.37904 -3.086438,0.20345 -4.797735,-0.32915 -2.444648,-0.76079 -4.959033,-2.52915 -4.962835,-3.49027 -0.0014,-0.36113 0.150429,-0.78222 0.337464,-0.93577 0.285933,-0.23469 0.06234,-0.51443 -1.404625,-1.75741 -2.377718,-2.01472 -4.007856,-3.99149 -8.87091,-10.75735 -2.287158,-3.18209 -4.553138,-6.23423 -5.035546,-6.78261 -1.203769,-1.36837 -1.539,-2.56465 -1.201049,-4.28589 0.327885,-1.67002 1.243345,-3.05021 2.646742,-3.9904 z"
       id="path18375"
       inkscape:connector-curvature="0" />
  </g>
</svg>
