<?xml version="1.0" encoding="UTF-8" standalone="no"?>
<!-- Created with Inkscape (http://www.inkscape.org/) -->

<svg
   xmlns:dc="http://purl.org/dc/elements/1.1/"
   xmlns:cc="http://creativecommons.org/ns#"
   xmlns:rdf="http://www.w3.org/1999/02/22-rdf-syntax-ns#"
   xmlns:svg="http://www.w3.org/2000/svg"
   xmlns="http://www.w3.org/2000/svg"
   xmlns:sodipodi="http://sodipodi.sourceforge.net/DTD/sodipodi-0.dtd"
   xmlns:inkscape="http://www.inkscape.org/namespaces/inkscape"
   width="300mm"
   height="210mm"
   viewBox="0 0 300 210"
   version="1.1"
   id="svg19563"
   inkscape:version="0.92.4 (5da689c313, 2019-01-14)"
   sodipodi:docname="xAnta.svg">
  <defs
     id="defs19557" />
  <sodipodi:namedview
     id="base"
     pagecolor="#ffffff"
     bordercolor="#666666"
     borderopacity="1.0"
     inkscape:pageopacity="0.0"
     inkscape:pageshadow="2"
     inkscape:zoom="0.35355339"
     inkscape:cx="475.09031"
     inkscape:cy="227.99102"
     inkscape:document-units="mm"
     inkscape:current-layer="layer1"
     showgrid="false"
     inkscape:window-width="1920"
     inkscape:window-height="1017"
     inkscape:window-x="1912"
     inkscape:window-y="-8"
     inkscape:window-maximized="1" />
  <metadata
     id="metadata19560">
    <rdf:RDF>
      <cc:Work
         rdf:about="">
        <dc:format>image/svg+xml</dc:format>
        <dc:type
           rdf:resource="http://purl.org/dc/dcmitype/StillImage" />
        <dc:title></dc:title>
      </cc:Work>
    </rdf:RDF>
  </metadata>
  <g
     inkscape:label="Layer 1"
     inkscape:groupmode="layer"
     id="layer1"
     transform="translate(0,-87)">
    <path
       style="display:inline;fill:none;fill-opacity:1;fill-rule:nonzero;stroke:#000000;stroke-width:0.16708483;stroke-miterlimit:1;stroke-dasharray:none;stroke-opacity:1"
       d="m 265.79185,254.13964 c -12.90039,-0.27077 -26.40058,-1.25662 -39.40731,-1.23807 -2.95039,13.53533 -28.18545,-2.62892 -53.74659,3.374 -26.71396,-0.26659 -127.157435,2.23798 -63.29616,12.5446 -31.777745,-1.21868 -12.076262,13.0162 9.23533,9.46066 -6.7146,12.21368 -88.474806,-17.60739 -94.568113,11.33248 80.599283,-0.0316 161.198603,-0.0552 241.797823,-0.0724 -0.14397,-3.05661 -0.0576,-29.39656 -0.015,-35.4012 z"
       id="path21177"
       inkscape:connector-curvature="0" />
    <path
       style="display:inline;fill:none;fill-opacity:1;fill-rule:nonzero;stroke:#000000;stroke-width:0.16708483;stroke-miterlimit:1;stroke-dasharray:none;stroke-opacity:1"
       d="m 277.75772,207.29294 c -37.65536,0.3503 -73.2668,7.79805 -109.3869,14.61387 -0.0119,0.008 -0.0247,0.0161 -0.0358,0.0247 0.008,-0.007 0.0107,-0.0108 0.0229,-0.022 -0.005,0 -0.01,0.003 -0.0149,0.003 -0.0326,0.0286 -0.0665,0.0564 -0.0992,0.0852 0.0136,-0.01 0.0303,-0.0161 -0.0262,0.023 0.009,-0.008 0.0176,-0.0154 0.0262,-0.023 -0.009,0.007 -0.0824,0.0537 -0.15354,0.10046 0.008,-0.003 0.0164,-0.007 0.0258,-0.007 0,-8e-5 0,4e-5 0.003,0 0.0325,-0.0249 0.0602,-0.043 0.0968,-0.0684 -0.0171,0.0147 -0.0339,0.0299 -0.0514,0.0442 -0.0125,0.01 -0.0308,0.0187 -0.0429,0.0247 0.0343,0.003 -0.0932,0.0576 -0.13542,0.0833 -0.006,0.003 -0.008,0.004 -0.0162,0.009 -0.0275,0.0214 -0.0554,0.0431 -0.0511,0.0353 -0.0892,0.0882 -0.17473,0.16568 -0.17689,0.16688 -0.0292,0.0161 -0.0609,0.0287 -0.0921,0.0418 0.0388,-0.0249 -0.0208,-0.006 -0.10966,0.0298 0.0215,-0.0185 0.0402,-0.0333 0.0634,-0.0552 -0.0561,0.0268 -0.0958,0.0437 -0.0662,0.02 0.0576,-0.0491 0.11986,-0.0937 0.18357,-0.13758 0.0542,-0.0588 0.0852,-0.10092 0.0325,-0.0684 -0.13837,0.0853 -0.25454,0.19156 -0.36813,0.29978 -0.003,0.003 -0.006,0.003 -0.008,0.006 0.14947,-0.1584 0.37737,-0.45436 -0.0572,-0.0231 0.11142,-0.1254 0.21728,-0.24751 0.22031,-0.26618 -0.003,-0.007 -0.0405,0.0224 -0.13686,0.11139 -0.0718,0.0663 -0.13043,0.14101 -0.18646,0.21733 0.0118,0 0.0245,0 0.0363,-0.003 0.0118,-0.01 0.0205,-0.0173 0.0429,-0.0355 0.008,-0.008 0.0159,-0.0161 0.0234,-0.0235 -0.006,0.006 -0.008,0.01 -0.0125,0.0147 0.0154,-0.0126 0.012,-0.0103 0.0286,-0.0238 -0.0399,0.0429 -0.038,0.0409 -0.0501,0.0539 0.007,-0.008 0.0134,-0.0159 0.0224,-0.0259 -0.007,0.006 -0.006,0.005 -0.0119,0.01 -0.0118,0.0118 -0.0231,0.0233 -0.0353,0.0355 0.003,-7e-5 0.006,0 0.008,0 0.003,-0.003 0.003,-0.003 0.004,-0.005 0.003,0 0.003,2e-5 0.004,0 0.0376,-0.0144 0.0688,-0.0253 0.10012,-0.0375 -0.006,0.006 -0.01,0.01 -0.0144,0.0148 0.003,0 0.004,-0.003 0.006,-0.004 l 0.0175,-0.0164 c 0.0185,-0.008 0.0441,-0.0164 0.0601,-0.0226 0.02,-0.0161 -0.0113,0.01 0.003,0 0.0242,-0.01 0.0713,-0.027 0.091,-0.0348 -0.01,0.008 -0.0183,0.0166 -0.0267,0.0235 0.008,-0.003 0.0141,-0.003 0.0215,-0.005 0.0252,-0.0122 0.0488,-0.0266 0.0744,-0.0383 0.0159,-0.008 -0.0285,0.0173 -0.0434,0.0265 0.0284,-0.0103 0.056,-0.0215 0.0834,-0.0332 -0.0227,0.0142 -0.0508,0.0312 -0.10823,0.0657 -0.0275,0.009 -0.078,0.0275 -0.1216,0.0434 -0.0149,0.008 -0.0203,0.0105 -0.0272,0.0128 l -0.003,-0.003 c -0.006,0.003 -0.0102,0.003 -0.0149,0.005 l -0.003,0.003 c 0.003,-5e-5 0.003,0 0.005,0 0.005,-0.003 0.0105,-0.003 0.0149,-0.005 -0.003,0.003 -0.006,0.003 -0.008,0.005 6.89599,-0.13767 7.13328,1.70127 -26.07318,6.28483 -37.27329,14.29217 -141.16634044,-2.38909 -93.653078,-4.0252 13.418654,6.6499 26.578179,3.56461 37.709302,-11.17188 -5.089859,-1.81741 -7.562267,-3.69761 -8.336942,-5.53553 -0.158081,-0.0922 -0.308421,-0.18908 -0.398627,-0.27907 -0.06708,-0.0668 -0.129126,-0.1368 -0.189307,-0.20795 0.03636,0.0115 0.07428,0.0214 0.112056,0.0312 -0.0561,-0.0298 -0.110542,-0.0615 -0.164983,-0.0934 0.01467,0.0179 0.02869,0.0355 0.04337,0.0531 -0.03285,-0.0286 -0.06579,-0.0573 -0.0987,-0.086 -0.01394,-0.009 -0.02971,-0.0226 -0.04484,-0.0348 0.0027,0.003 0.0065,0.003 0.0092,0.003 -0.01809,-0.0159 -0.03626,-0.0313 -0.05435,-0.0473 -0.0037,-0.003 -0.0065,-0.003 -0.01006,-0.004 0.01901,0.0185 0.03682,0.0329 0.05481,0.0473 -0.03488,-0.0136 -0.06782,-0.026 -0.102515,-0.0394 0.05527,0.066 0.07585,0.0887 0.139719,0.16534 0.07621,0.0915 -0.09042,-0.0507 -0.266086,-0.21341 0.04401,0.0168 0.07982,0.0298 0.125878,0.0477 -0.01246,-0.0147 -0.01956,-0.0228 -0.03147,-0.0371 -0.04798,-0.0181 -0.09563,-0.0362 -0.14353,-0.0543 0.01809,0.017 0.03073,0.0268 0.04863,0.0435 -0.121828,-0.0468 -0.241846,-0.0925 -0.322364,-0.11805 -0.07769,-0.0576 -0.02418,-0.0183 -0.09061,-0.0676 -0.01319,-0.006 -0.02685,-0.01 -0.04004,-0.0152 l 0.0083,0.008 c 0.101832,0.0707 0.212254,0.13373 0.301372,0.21498 0.06561,0.0597 -0.167235,-0.0879 -0.232712,-0.14773 -0.02372,-0.0217 -0.04549,-0.045 -0.06865,-0.0673 -0.0046,-0.003 -0.0092,-0.008 -0.01338,-0.0106 0.0027,0 0.0027,0.003 0.0046,0.003 -0.02048,-0.0198 -0.04106,-0.0391 -0.06099,-0.059 -0.281616,-0.20943 -0.409201,-0.30439 -0.466327,-0.34709 -0.0055,-0.003 -0.0107,-0.005 -0.01661,-0.007 0.11403,0.0895 0.246598,0.19541 0.359051,0.29002 0.02372,0.02 -0.06007,-0.0275 -0.08388,-0.0473 -0.09446,-0.0787 -0.18425,-0.16116 -0.275139,-0.24272 -0.0027,0 -0.0037,1e-4 -0.0046,-0.003 -0.01827,-0.0163 -0.03709,-0.0324 -0.05536,-0.0488 -0.04004,-0.0298 -0.108761,-0.0796 0.05481,0.0488 -0.08941,-0.0424 -0.168703,-0.0984 -0.242706,-0.16142 0.01099,0.0143 0.02298,0.0278 0.03387,0.0422 0.05822,0.0772 -0.101583,-0.0737 -0.239373,-0.21265 0.0215,0.0133 0.05066,0.0345 0.06819,0.0442 0.0442,0.044 0.08987,0.0855 0.136831,0.12547 -0.02473,-0.0318 -0.05047,-0.0633 -0.07631,-0.0946 l -0.01394,-0.0114 c -0.01394,-0.006 -0.0251,-0.009 -0.04669,-0.0203 -0.02464,-0.0247 -0.04992,-0.0495 -0.07437,-0.0747 -0.04355,-0.0351 -0.0717,-0.0588 -0.113966,-0.0934 0.03082,0.0337 0.07391,0.0782 0.119677,0.12431 -0.05795,-0.0357 -0.126902,-0.0817 -0.195017,-0.13015 -2.449682,1.60866 -5.076092,2.95706 -7.857236,4.0807 -2.727727,-3.70686 -16.252466,-7.7563 -10.610945,3.14143 -9.524399,1.97293 -20.31608,2.29279 -31.454077,2.06869 -0.0019,5.99906 -9.13e-4,32.37555 -0.04476,35.39487 l -2.7e-5,-1e-5 c 84.434061,-0.0182 168.872821,-0.0297 253.312561,-0.0369 0.0417,-5.57271 0.11392,-32.07491 9.3e-4,-43.68322 z"
       id="path21181"
       inkscape:connector-curvature="0" />
    <path
       style="display:inline;fill:none;fill-opacity:1;fill-rule:nonzero;stroke:#000000;stroke-width:0.16708483;stroke-miterlimit:1;stroke-dasharray:none;stroke-opacity:1"
       d="m 283.26169,152.27651 c -4.88437,-0.16103 -9.82803,-0.24786 -14.8032,-0.26237 v -5e-5 c -35.05578,-0.10223 -71.67555,3.38651 -100.13567,9.81634 -22.88119,-20.70131 -81.11206,2.29492 -117.845644,-1.28245 -6.997633,-0.45819 -14.070726,-0.63511 -20.914642,-0.57714 -0.07631,11.65368 0.03515,38.13242 0.0073,43.68544 l 2.4e-4,-1e-5 c 84.561376,-0.008 169.123786,-0.0103 253.683566,-0.0115 0.0997,-13.99354 0.0984,-34.2503 0.008,-51.3683 z"
       id="path21185"
       inkscape:connector-curvature="0" />
    <path
       style="display:inline;fill:none;fill-opacity:1;fill-rule:nonzero;stroke:#000000;stroke-width:0.16708483;stroke-miterlimit:1;stroke-dasharray:none;stroke-opacity:1"
       d="m 73.645687,148.20523 c 47.046303,-6.9e-4 94.091833,-7.6e-4 141.135933,-7.6e-4 32.58488,9.84596 35.82586,-21.33173 2.82188,-14.26446 -0.56001,2.11554 -41.27745,-11.74783 -10.23043,-10.00005 -28.65506,-8.54148 35.6782,-16.34889 -1.58976,-17.49579 -39.45365,-5.60589 -78.06285,-12.123165 -118.197047,-8.924812 -4.584482,-0.296882 -9.249611,-0.522759 -13.970315,-0.67931 0.186372,17.803152 0.134543,37.540132 0.02971,51.365282 z"
       id="path21175"
       inkscape:connector-curvature="0" />
    <path
       style="display:inline;fill:none;fill-opacity:1;fill-rule:nonzero;stroke:#000000;stroke-width:0.2;stroke-miterlimit:1;stroke-dasharray:none;stroke-opacity:1"
       d="m 455.16607,251.71449 c 8e-5,2.4e-4 0.003,-0.003 0.003,-0.003 h -0.003 c -3e-5,1.6e-4 0,0.003 0,0.003 z"
       id="path21173" />
    <path
       style="display:inline;fill:none;fill-opacity:1;fill-rule:nonzero;stroke:#000000;stroke-width:0.2;stroke-miterlimit:1;stroke-dasharray:none;stroke-opacity:1"
       d="m 354.29727,230.63463 c 0.003,0.003 0.003,0.003 0.004,0.006 z"
       id="path21171" />
    <path
       style="display:inline;fill:none;fill-opacity:1;fill-rule:nonzero;stroke:#000000;stroke-width:0.2;stroke-miterlimit:1;stroke-dasharray:none;stroke-opacity:1"
       d="m 354.28697,230.64363 c -0.003,0.003 -0.005,0.004 -0.007,0.006 0.0183,0.0183 0.0214,0.0236 0.0403,0.0424 -0.0167,-0.022 -0.0241,-0.035 -0.0331,-0.0486 z"
       id="path21169" />
    <path
       style="display:inline;fill:none;fill-opacity:1;fill-rule:nonzero;stroke:#000000;stroke-width:0.2;stroke-miterlimit:1;stroke-dasharray:none;stroke-opacity:1"
       d="m 355.06987,231.38365 c 0.0498,0.0558 0.0986,0.10538 0.13849,0.13385 0.0201,0.0143 0.042,0.0257 0.0625,0.0393 -0.0544,-0.0439 -0.11637,-0.0967 -0.20101,-0.17312 z"
       id="path21167" />
    <path
       style="display:inline;fill:none;fill-opacity:1;fill-rule:nonzero;stroke:#000000;stroke-width:0.2;stroke-miterlimit:1;stroke-dasharray:none;stroke-opacity:1"
       d="m 356.58707,232.54429 v 0 c -0.014,-0.003 0.052,0.0308 0.0806,0.0398 0.0456,0.0143 0.13441,0.0471 0.20154,0.0708 -0.003,-0.003 -0.003,-0.004 -0.004,-0.005 -0.10199,-0.0411 -0.20624,-0.0839 -0.27802,-0.10593 z"
       id="path21165" />
    <path
       style="display:inline;fill:none;fill-opacity:1;fill-rule:nonzero;stroke:#000000;stroke-width:0.2;stroke-miterlimit:1;stroke-dasharray:none;stroke-opacity:1"
       d="m 356.86976,232.66058 c 0.0358,0.0429 0.0887,0.0985 0.13279,0.1483 0,-0.004 -0.003,-0.008 -0.003,-0.0114 -0.056,-0.0656 -0.0798,-0.0994 -0.0161,-0.0465 -0.004,-0.0127 -0.008,-0.0254 -0.0114,-0.0383 -0.007,-0.008 -0.0148,-0.0169 -0.0217,-0.0243 -0.0286,-0.0106 -0.0539,-0.0183 -0.0806,-0.0279 z"
       id="path21163" />
    <path
       style="display:inline;fill:none;fill-opacity:1;fill-rule:nonzero;stroke:#000000;stroke-width:0.2;stroke-miterlimit:1;stroke-dasharray:none;stroke-opacity:1"
       d="m 356.95186,232.68598 c 0.006,0.003 0.0106,0.004 0.0161,0.007 -0.005,-0.003 -0.0103,-0.004 -0.0161,-0.007 z"
       id="path21161" />
    <path
       style="display:inline;fill:none;fill-opacity:1;fill-rule:nonzero;stroke:#000000;stroke-width:0.2;stroke-miterlimit:1;stroke-dasharray:none;stroke-opacity:1"
       d="m 455.90706,251.38975 c -0.003,0 -0.009,0.006 -0.0228,0.0164 -0.0116,0.009 -0.13303,0.11959 -0.23254,0.20982 -0.01,0.0127 -0.0188,0.0225 -0.0289,0.0351 0.0204,-0.0177 0.0397,-0.0344 0.0677,-0.0589 0.10523,-0.0965 0.22572,-0.20341 0.21651,-0.20153 z"
       id="path21159" />
    <path
       style="display:inline;fill:none;fill-opacity:1;fill-rule:nonzero;stroke:#000000;stroke-width:0.2;stroke-miterlimit:1;stroke-dasharray:none;stroke-opacity:1"
       d="m 455.77995,251.45125 c -0.0111,0.009 -0.0225,0.0182 -0.0336,0.0274 -0.0132,0.0209 -0.0265,0.0417 -0.0424,0.0641 0.0206,-0.0251 0.0489,-0.0591 0.076,-0.0915 z"
       id="path21157" />
    <path
       style="display:inline;fill:none;fill-opacity:1;fill-rule:nonzero;stroke:#000000;stroke-width:0.2;stroke-miterlimit:1;stroke-dasharray:none;stroke-opacity:1"
       d="m 455.63525,251.56803 c -0.0922,0.0726 -0.18299,0.14706 -0.27286,0.22223 -0.0361,0.0478 -0.0793,0.0998 -0.12661,0.15399 0.0119,-0.007 0.0233,-0.009 0.0362,-0.0161 0.0696,-0.0527 0.14304,-0.0995 0.21085,-0.15399 -0.0249,0.0196 0.0209,-0.023 0.10231,-0.0977 -0.0183,0.0217 -0.039,0.0404 -0.0599,0.0594 0.0122,-0.0103 0.0563,-0.0482 0.077,-0.0661 0.009,-0.0116 0.003,-0.01 0.0175,-0.0269 -0.0127,0.0116 -0.0185,0.0159 -0.0305,0.0269 0.0209,-0.0254 0.0349,-0.0616 0.046,-0.10128 z"
       id="Antarctique" />
  </g>
</svg>
