<?xml version="1.0" encoding="UTF-8" standalone="no"?>
<!-- Created with Inkscape (http://www.inkscape.org/) -->

<svg
   xmlns:dc="http://purl.org/dc/elements/1.1/"
   xmlns:cc="http://creativecommons.org/ns#"
   xmlns:rdf="http://www.w3.org/1999/02/22-rdf-syntax-ns#"
   xmlns:svg="http://www.w3.org/2000/svg"
   xmlns="http://www.w3.org/2000/svg"
   xmlns:sodipodi="http://sodipodi.sourceforge.net/DTD/sodipodi-0.dtd"
   xmlns:inkscape="http://www.inkscape.org/namespaces/inkscape"
   width="300mm"
   height="210mm"
   viewBox="0 0 300 210"
   version="1.1"
   id="svg19563"
   inkscape:version="0.92.4 (5da689c313, 2019-01-14)"
   sodipodi:docname="xAsia.svg">
  <defs
     id="defs19557" />
  <sodipodi:namedview
     id="base"
     pagecolor="#ffffff"
     bordercolor="#666666"
     borderopacity="1.0"
     inkscape:pageopacity="0.0"
     inkscape:pageshadow="2"
     inkscape:zoom="0.35355339"
     inkscape:cx="1209.1886"
     inkscape:cy="229.69466"
     inkscape:document-units="mm"
     inkscape:current-layer="layer1"
     showgrid="false"
     inkscape:window-width="1920"
     inkscape:window-height="1017"
     inkscape:window-x="1912"
     inkscape:window-y="-8"
     inkscape:window-maximized="1" />
  <metadata
     id="metadata19560">
    <rdf:RDF>
      <cc:Work
         rdf:about="">
        <dc:format>image/svg+xml</dc:format>
        <dc:type
           rdf:resource="http://purl.org/dc/dcmitype/StillImage" />
        <dc:title></dc:title>
      </cc:Work>
    </rdf:RDF>
  </metadata>
  <g
     inkscape:label="Layer 1"
     inkscape:groupmode="layer"
     id="layer1"
     transform="translate(0,-87)">
    <g
       id="g21119">
      <path
         inkscape:connector-curvature="0"
         id="path13928"
         d=""
         style="display:inline;opacity:1;fill:#ce95cd;fill-opacity:1;stroke:#ff0000;stroke-width:0.2924915;stroke-miterlimit:4;stroke-dasharray:none;stroke-opacity:1" />
      <path
         inkscape:connector-curvature="0"
         id="path13930"
         d=""
         style="display:inline;opacity:1;fill:#ce95cd;fill-opacity:1;stroke:#ff0000;stroke-width:0.2924915;stroke-miterlimit:4;stroke-dasharray:none;stroke-opacity:1" />
      <path
         inkscape:connector-curvature="0"
         id="path21062"
         d="m 227.05411,269.26144 c -4.99512,1.21106 -12.25674,2.3193 -17.73817,2.70713 -2.28668,0.16182 -2.86286,0.11057 -3.00806,-0.26725 -0.50828,-1.32256 4.91859,-4.22576 10.75127,-5.75157 4.16507,-1.08957 8.37413,-1.12017 12.40908,-0.0902 1.88504,0.48118 2.59599,0.89634 2.49059,1.4544 -0.0506,0.26779 -3.3026,1.55908 -4.90472,1.94751 z"
         style="display:inline;fill:none;stroke:#000000;stroke-width:0.2;stroke-miterlimit:4;stroke-dasharray:none;stroke-opacity:1" />
      <path
         id="path21054"
         d="m 247.81329,259.84878 c -1.47469,-0.0876 -2.77863,-0.95169 -6.09478,-4.03871 -2.51044,-2.33701 -3.89166,-4.31497 -3.43362,-4.91707 0.13186,-0.17339 -0.47726,-0.5484 -1.61527,-0.99445 -2.06122,-0.80789 -4.38277,-2.74216 -5.61098,-4.67488 -0.41932,-0.65984 -1.68487,-3.26868 -2.81241,-5.79743 -2.05469,-4.6082 -3.73814,-7.73462 -5.62734,-10.45085 -1.88102,-2.70454 -3.52305,-3.74814 -5.0027,-3.17949 -0.81706,0.31401 -1.44659,0.98115 -3.38074,3.58265 -0.3734,0.50224 -0.47294,0.53853 -0.80418,0.2932 -0.20792,-0.15393 -0.57429,-0.77845 -0.81414,-1.38781 -0.66246,-1.6833 -2.47917,-3.62613 -5.94624,-6.35966 -1.728,-1.3624 -3.30659,-2.71147 -3.50801,-2.99793 -0.25952,-0.36909 -0.4849,-0.43559 -0.77364,-0.2283 -0.50677,0.36386 -0.92755,0.1224 -1.55682,-0.89311 -0.26893,-0.43412 -0.7531,-0.97934 -1.07581,-1.21159 -0.57652,-0.41497 -0.64693,-0.39668 -4.04277,1.05032 l -3.45605,1.47259 -0.0255,0.82068 c -0.0163,0.52663 -0.69449,1.81395 -1.89261,3.59292 -4.02787,5.98056 -5.99503,9.3676 -7.82989,13.48161 -3.54539,7.94923 -4.2635,14.10049 -2.54571,21.80692 0.35364,1.58647 0.5811,3.20565 0.50544,3.59816 -0.18289,0.94922 -1.99504,2.79246 -3.20647,3.26146 -1.28777,0.49811 -3.17459,0.31186 -4.7086,-0.46576 -1.41912,-0.7194 -4.03582,-3.02346 -5.93803,-5.22861 -1.55884,-1.80707 -7.90082,-10.75928 -11.27955,-15.922 -1.44769,-2.21203 -2.93376,-4.18563 -3.64169,-4.83635 -1.09212,-1.00382 -1.27734,-1.07561 -2.13221,-0.82621 -0.62484,0.18228 -1.27471,0.64774 -1.9542,1.39961 l -1.01802,1.12647 -0.85358,-0.22377 c -2.31937,-0.60805 -3.50189,-1.64267 -4.34904,-3.80508 -0.33738,-0.86117 -0.4541,-0.92153 -2.20169,-1.13716 -1.01499,-0.12524 -2.62897,-0.57998 -3.58662,-1.01047 -3.15121,-1.41664 -3.63437,-1.37997 -9.36827,0.71081 l -4.97221,1.81307 -1.03834,-0.43597 -1.03831,-0.43597 -1.21402,1.21325 c -1.55698,1.55598 -2.81094,1.92655 -8.37043,2.47355 -3.85309,0.37911 -4.09351,0.4337 -4.23649,0.96164 -0.20924,0.77266 -0.0787,0.99027 0.46777,0.78024 1.27347,-0.48941 7.05968,1.63593 8.469,3.11076 0.97541,1.02076 2.23253,4.44761 2.29421,6.25401 0.083,2.44296 -0.48383,4.85834 -1.89934,8.08714 -1.08981,2.48587 -1.67883,3.44492 -2.96401,4.82586 -1.51402,1.62682 -1.73255,1.77288 -3.89801,2.6051 -2.14174,0.8231 -2.27904,0.91347 -2.06732,1.36139 0.12466,0.26389 0.26411,0.61337 0.30955,0.77677 0.18073,0.64866 -6.450715,9.39986 -9.503397,12.54112 -2.78263,2.86335 -4.576643,4.14624 -7.243843,5.18002 -2.52875,0.9804 -3.486641,1.02834 -5.378338,0.27068 -1.677657,-0.6719 -2.634264,-1.74722 -3.783759,-4.25333 -1.036948,-2.26076 -1.074498,-2.30631 -3.015618,-3.6597 -1.081077,-0.75377 -5.106716,-3.79854 -8.945888,-6.76617 -8.141691,-6.29342 -13.554225,-10.23503 -16.560327,-12.05988 -2.793139,-1.69554 -3.175277,-2.13379 -3.501134,-4.01527 -0.141446,-0.8167 -0.274833,-1.67259 -0.296403,-1.902 -0.02476,-0.26262 -0.42553,-0.46647 -1.082081,-0.55038 -2.929718,-0.37433 -5.511197,-3.62565 -5.191179,-6.5382 0.07082,-0.6448 0.0426,-1.7368 -0.06273,-2.42663 -0.10534,-0.68985 -0.08321,-1.44741 0.04918,-1.68346 0.132421,-0.23603 0.153454,-0.65628 0.04677,-0.93389 -0.327283,-0.85161 0.289639,-6.62486 0.854796,-7.99939 l 0.533068,-1.29643 -1.419506,0.73167 c -5.605526,2.88935 -16.448934,6.91864 -19.109489,7.10087 -3.001309,0.20556 -5.452313,-0.82796 -7.109998,-2.99806 -1.007761,-1.3193 -1.356836,-2.95439 -1.065466,-4.99064 l 0.179078,-1.25135 -1.270851,0.29787 c -2.748042,0.64411 -3.600746,-1.33813 -1.79329,-4.16889 0.440434,-0.68979 0.878707,-1.00236 2.020958,-1.44135 1.317447,-0.5063 1.565467,-0.51249 2.563768,-0.0641 0.607891,0.27304 1.276816,0.63623 1.486497,0.8071 0.347701,0.28327 0.698476,0.12928 3.983301,-1.7487 4.577801,-2.6172 13.530835,-6.39301 18.434941,-7.77468 3.193975,-0.89985 10.04764,-2.5769 11.59766,-2.83785 0.75192,-0.1266 0.745947,-0.13367 -0.91722,-1.08671 -0.920721,-0.52762 -1.937629,-1.14901 -2.259797,-1.3809 -0.32219,-0.23189 -1.222857,-0.58828 -2.001529,-0.792 -1.605299,-0.41998 -1.937375,-0.87442 -1.152477,-1.57718 1.288243,-1.1534 4.106243,-1.68007 7.278341,-1.36024 1.471746,0.14836 7.697437,-0.70327 9.110291,-1.24625 0.25873,-0.0995 0.857213,0.0327 1.330029,0.29373 0.770126,0.42513 1.073351,0.4122 2.913155,-0.12422 2.802939,-0.81725 4.672087,-0.91741 6.191795,-0.3318 2.149622,0.82831 2.792838,2.78735 1.999733,6.09065 l -0.389458,1.62211 1.237175,1.05799 c 2.547676,2.17873 4.812569,1.53637 12.344782,-3.50124 2.046516,-1.36874 2.949489,-2.0929 2.600047,-2.08515 -0.29443,0.007 -1.410521,0.0777 -2.480154,0.15804 -2.214293,0.1665 -3.565956,-0.31233 -4.397672,-1.55796 -1.065622,-1.59587 -1.189728,-4.62139 -0.232421,-5.66685 0.444243,-0.48517 0.42641,-0.4981 -0.610618,-0.4421 -1.974997,0.10653 -3.310805,-0.13653 -3.391994,-0.61735 -0.0532,-0.31489 -0.579149,-0.52404 -1.735413,-0.6901 -2.365677,-0.33975 -3.777172,-1.3406 -4.464732,-3.16581 -0.64941,-1.72381 -0.530458,-3.13704 0.481022,-5.71766 0.853997,-2.17882 1.191368,-2.0881 -3.545859,-0.95349 -5.496101,1.31636 -6.343842,0.0845 -7.987541,-1.00442 -1.618799,-1.07244 -2.467716,-2.05151 -2.10464,-3.72919 0.208518,-0.96356 0.949518,-3.16832 3.095918,-4.69191 3.825095,-2.71523 7.263697,-3.09457 16.653733,-5.57584 1.981352,-0.52355 5.503171,-1.84566 7.925717,-2.67928 l 2.343343,-2.34458 1.179268,-3.14991 c -1.014476,-3.38198 -0.205751,-4.10467 2.904643,-7.0838 4.879485,-4.67358 10.002253,-7.32462 15.426333,-9.24789 3.43224,-1.21696 4.0689,-0.46985 6.31746,-0.29591 2.0597,0.15932 2.58822,-0.58275 7.49982,-1.70755 9.30744,-2.13152 9.38112,-2.67261 14.35169,-0.43442 l 3.02871,2.48105 4.34552,-1.03084 c 7.47767,-1.6045 13.12549,-3.89688 14.81795,-1.94324 0.60443,0.69771 0.73206,0.73171 1.32881,0.35402 0.36306,-0.22984 1.36165,-0.68745 2.21906,-1.01696 l 1.55892,-0.59911 -0.42824,-0.75667 c -1.00022,-1.76719 1.49092,-1.25751 4.82683,-3.13068 1.50808,-0.84682 2.42544,-1.64514 5.00345,-2.24076 5.21821,-0.9576 11.75039,-0.67121 12.39326,-5.94496 1.45255,-1.19612 3.15234,-4.28282 4.29205,-5.77318 l 0.94739,-0.93201 3.65845,-0.79508 c 8.1546,2.16676 14.68625,0.39424 20.61991,-1.29348 3.72581,-1.05977 6.31238,-1.54485 11.24227,-4.30555 1.86021,-1.04163 4.4774,-2.37245 6.06222,-2.99952 2.46336,-0.97477 2.40917,-2.00171 2.93181,-1.7694 0.58717,0.261 0.63486,-0.84039 -0.26914,0.8806 -0.5841,1.11195 -0.8657,1.98833 -0.74216,2.30976 0.16691,0.43432 0.27435,0.30573 0.66551,-0.79646 0.2566,-0.72293 4.87284,-3.92866 6.45181,-6.23837 3.44847,-5.04437 1.69654,-6.42905 1.5432,-8.16979 -0.14109,-1.6016 0.88412,-1.42307 1.93962,-2.23889 3.31427,-2.56166 5.68222,-0.52016 9.62551,-0.29339 10.95151,5.00463 4.86436,0.54342 8.82189,2.32239 3.95752,1.77894 7.62121,2.6251 8.36641,2.73873 2.75658,0.42034 5.17414,0.42784 7.93639,-1.2624 1.4408,-0.88161 1.14929,-0.20378 1.9653,-0.0601 1.02996,0.18142 0.906,-0.0801 0.76222,1.06899 -0.1398,1.11717 -1.13186,3.24025 -2.67203,6.19435 -3.47598,6.66693 -2.69669,8.79224 -2.34552,10.68796 0.32688,1.76471 -0.23458,5.05499 -1.30374,7.64019 -0.88251,2.13382 -0.94874,2.47248 -0.50948,2.60512 0.79984,0.24149 3.20234,1.81258 3.91958,2.56317 0.35968,0.37638 0.97407,1.51729 1.36531,2.53531 0.87711,2.28228 0.9557,4.52808 0.21667,6.18982 -0.69668,1.56639 -2.00068,2.11322 -4.05512,1.70048 -2.71449,-0.54533 -3.91017,-2.15276 -3.69843,-4.97195 0.0686,-0.9132 0.007,-1.79157 -0.13794,-1.95194 -0.14443,-0.16034 -0.79744,-0.2269 -1.45108,-0.14793 -2.26657,0.27386 -4.30587,-1.14906 -5.29538,-3.69484 l -0.55329,-1.42295 -0.7474,0.82106 c -2.03224,2.23244 -4.78766,3.77464 -6.49487,3.63517 -0.72254,-0.0591 -0.91008,-0.21702 -1.24336,-1.04719 -0.36155,-0.90091 -0.45243,-0.9612 -1.15668,-0.7683 -1.04521,0.28632 -3.89333,3.44608 -4.75323,5.27335 -0.85375,1.81417 -0.7719,2.91855 0.24066,3.2471 1.01567,0.32954 2.30262,0.15766 5.54606,-0.74079 3.52576,-0.97664 4.08248,-0.98272 4.32316,-0.0469 0.13978,0.54352 -0.12679,1.16327 -1.17003,2.71993 -2.18554,3.26116 -2.16775,3.20889 -1.59787,4.7012 0.43731,1.14624 0.96357,1.74624 4.06554,4.63975 3.9041,3.64171 4.66242,4.78664 4.44639,6.71314 -0.0906,0.80728 -0.002,1.10615 0.53497,1.80057 1.949,2.52162 1.05923,9.79768 -1.98026,16.19346 -1.97987,4.16614 -4.2685,7.04436 -7.059,8.87767 -0.58365,0.38345 -1.9094,1.64312 -2.9461,2.79928 -1.0367,1.15616 -2.3623,2.49731 -2.94582,2.98031 -2.65011,2.19356 -6.41905,3.54352 -10.47568,3.75214 -2.55106,0.13121 -2.47842,0.10627 -2.05025,0.70267 0.65076,0.90638 0.76705,3.07316 0.27583,5.13924 -0.39163,1.6472 -0.40224,2.15344 -0.056,2.67824 0.23481,0.35592 2.11538,2.01267 4.1791,3.68162 8.36999,6.76893 9.83086,8.48862 10.10686,11.89741 0.12051,1.48828 -1.21693,4.4743 -2.82821,6.31435 -0.67716,0.77331 -1.20094,1.48479 -1.16395,1.58104 0.037,0.0962 -0.21799,0.95206 -0.5666,1.9018 -0.58157,1.58444 -0.72214,1.76077 -1.70413,2.13816 -0.88831,0.34139 -1.2262,0.32526 -1.98737,-0.0949 -1.24371,-0.68653 -1.87686,-1.78545 -1.93765,-3.36304 -0.0493,-1.27954 -0.0499,-1.28066 -0.52786,-0.8987 -0.26323,0.21033 -1.20382,0.66882 -2.09026,1.01885 -1.25432,0.49533 -1.85578,0.59029 -2.71234,0.42853 -1.10044,-0.20783 -2.43941,-1.32998 -2.8444,-2.38378 -0.10645,-0.27692 -0.2726,-0.39955 -0.36927,-0.27249 -0.0966,0.12702 -1.03724,0.11337 -2.09019,-0.0303 -3.00031,-0.40961 -3.89594,0.19779 -3.76416,2.55265 0.0958,1.71223 2.02979,5.83455 3.72942,7.94927 2.57687,3.20618 5.16948,4.76664 9.02512,5.43211 2.71598,0.46873 4.8123,2.5661 6.25889,6.26195 0.842,2.15104 0.93708,2.60614 0.74959,3.5843 -0.12406,0.64727 -0.49683,1.3591 -0.8826,1.68559 -0.36731,0.31084 -0.67996,0.56705 -0.69479,0.5693 -0.0149,0.002 -0.56634,-0.0279 -1.22553,-0.0671 z"
         style="display:inline;fill:none;stroke:#000000;stroke-width:0.2;stroke-miterlimit:4;stroke-dasharray:none;stroke-opacity:1" />
      <path
         id="path21052"
         d="m 187.13585,270.49129 c -2.69647,-0.54656 -5.28797,-4.37503 -4.41762,-6.52635 1.04623,-2.58623 3.4215,-3.25774 5.37855,-1.52058 0.71983,0.63895 1.11985,1.28605 1.69322,2.73913 0.7498,1.89999 0.74995,1.9043 0.14236,3.26972 -0.71349,1.60347 -1.63335,2.27382 -2.79652,2.03808 z"
         style="display:inline;fill:none;stroke:#000000;stroke-width:0.2;stroke-miterlimit:4;stroke-dasharray:none;stroke-opacity:1" />
      <path
         inkscape:connector-curvature="0"
         id="path21064"
         d="m 149.76677,118.81939 c -0.75745,0.30436 -1.95621,0.56129 -2.66389,0.57099 -4.94478,0.068 -7.85878,0.82757 -10.24803,2.67142 -1.43481,1.10729 -1.49605,1.1968 -1.65875,2.42398 -0.0929,0.70083 -0.0203,1.4442 0.16139,1.65193 0.18166,0.20777 0.30771,0.71375 0.28024,1.12444 -0.0533,0.79514 -1.08791,1.8509 -2.86252,2.92103 -0.76649,0.46222 -1.02504,0.47004 -1.74118,0.0528 -0.77861,-0.45362 -0.89081,-0.43829 -1.51196,0.20696 -0.87277,0.90664 -1.58735,0.82789 -5.32279,-0.58637 -4.90012,-1.85521 -6.70112,-1.7034 -13.98817,1.17923 -3.93579,1.55691 -5.83537,1.9447 -7.09555,1.44854 -0.99336,-0.39109 -1.58647,-1.29802 -1.18825,-1.81703 0.17331,-0.22592 -0.43389,-0.28046 -1.75808,-0.15796 -2.105915,0.19487 -3.507291,0.0101 -3.974337,-0.5241 -0.633337,-0.72431 1.575172,-3.90497 2.928552,-4.21769 0.346314,-0.08 1.671255,0.13014 2.944325,0.46706 2.47646,0.65538 4.40477,0.63312 5.94565,-0.0687 1.40299,-0.63892 2.17854,-2.26234 2.42828,-5.08289 0.23967,-2.70668 0.18992,-2.66627 4.8626,-3.95084 1.73804,-0.4778 3.31259,-1.00063 3.49898,-1.1618 0.4914,-0.42436 1.63717,-0.0588 2.35019,0.75026 0.34016,0.38449 0.84071,0.85013 1.11415,1.03328 0.49552,0.33202 0.49797,0.32916 0.78325,-0.91494 0.53415,-2.32935 2.55184,-4.42852 5.07476,-5.27965 1.71019,-0.57692 4.93032,-0.77337 6.97605,-0.42555 1.82518,0.31033 2.57662,0.58143 5.1036,1.84132 1.08077,0.53884 3.58605,1.03023 9.00975,1.76723 2.40082,0.3262 2.98367,0.50615 3.36995,1.0404 0.44516,0.61563 0.42228,0.68913 -0.48698,1.56464 -0.55299,0.53252 -1.53296,1.15126 -2.33123,1.47198 z"
         style="display:inline;fill:none;stroke:#000000;stroke-width:0.2;stroke-miterlimit:4;stroke-dasharray:none;stroke-opacity:1" />
      <path
         inkscape:connector-curvature="0"
         id="path21060"
         d="m 47.847746,189.67339 c -3.106996,0.47505 -8.413702,-0.37425 -16.977486,-2.71711 -10.117119,-2.76786 -11.120023,-2.97918 -15.975118,-3.36595 -4.362604,-0.34752 -4.66231,-0.5351 -4.13098,-2.58509 0.700253,-2.70176 4.000889,-3.40368 14.62328,-3.11001 6.332133,0.17511 8.700021,0.11432 10.482211,-0.26902 1.068656,-0.22992 1.535686,-0.14706 2.798137,0.4963 0.83343,0.42474 2.927846,1.21497 4.654207,1.75608 4.446439,1.3937 6.429607,2.30412 7.376045,3.38616 1.015161,1.16103 1.098223,2.06315 0.345661,3.7641 -0.790248,1.78608 -1.517576,2.3879 -3.195957,2.64454 z"
         style="display:inline;fill:none;stroke:#000000;stroke-width:0.2;stroke-miterlimit:4;stroke-dasharray:none;stroke-opacity:1" />
      <path
         inkscape:connector-curvature="0"
         id="path21058"
         d="m 78.639421,160.6691 c -1.060159,-0.47747 -1.662979,-1.0051 -3.797306,-3.32374 -2.15432,-2.34033 -2.691976,-3.06339 -3.562636,-4.79285 -2.111492,-4.19356 -2.166331,-5.41628 -0.370912,-8.27619 1.102383,-1.75608 7.397665,-7.42944 8.186343,-7.37767 0.757408,0.0498 0.541552,0.6072 -1.296827,3.34967 -1.656448,2.47102 -3.319727,5.47144 -4.022155,7.2556 -0.31207,0.79264 -0.296286,0.84772 0.192558,0.67132 0.293042,-0.10536 1.135764,-0.70847 1.873,-1.33948 2.260303,-1.93464 2.212548,-1.95426 4.014781,1.64452 1.420622,2.83687 1.964206,3.49066 3.608414,4.34008 1.989613,1.02788 1.477045,1.42706 -2.07393,1.61514 -1.025448,0.0543 -1.924763,0.15139 -1.998475,0.21573 -0.07376,0.0643 0.0511,0.54816 0.277436,1.07515 0.970239,2.25901 1.220457,4.64415 0.548874,5.23135 -0.187008,0.16361 -0.840388,0.0441 -1.579202,-0.28861 z"
         style="display:inline;fill:none;stroke:#000000;stroke-width:0.2;stroke-miterlimit:4;stroke-dasharray:none;stroke-opacity:1" />
      <path
         inkscape:connector-curvature="0"
         id="path21056"
         d="m 63.211576,169.63711 c -2.252191,1.17621 -5.839718,2.03785 -8.204617,1.97066 -4.493941,-0.12778 -7.471927,-2.31207 -9.298283,-6.82011 l -0.573742,-1.41636 1.514882,-1.76621 c 1.111746,-1.29616 1.7061,-2.26583 2.233379,-3.64352 1.026188,-2.68126 1.560596,-6.46299 1.127082,-7.97587 -0.353529,-1.23388 -0.243866,-2.81938 0.223375,-3.22792 0.13484,-0.11795 0.399802,-1.46086 0.588766,-2.98434 0.47477,-3.82775 0.804057,-5.02634 1.45936,-5.31205 0.886979,-0.3868 4.389237,-0.0564 5.336874,0.50335 1.302489,0.76936 1.490075,1.83376 0.768859,4.36181 -0.01245,0.0439 0.439199,0.29325 1.003747,0.55416 0.836356,0.38651 1.542921,1.06461 3.813964,3.66047 2.738509,3.13197 2.802388,3.2263 3.652555,5.51803 1.463354,3.94448 1.794058,9.25913 0.775423,12.46132 -0.426878,1.34198 -2.110789,2.90974 -4.421572,4.11655 z"
         style="display:inline;fill:none;stroke:#000000;stroke-width:0.2;stroke-miterlimit:4;stroke-dasharray:none;stroke-opacity:1" />
      <path
         inkscape:connector-curvature="0"
         id="path21050"
         d="m 69.356304,126.82916 c -0.72816,0.27029 -1.954323,0.53003 -2.724563,0.57777 -0.770259,0.0477 -2.290283,0.15307 -3.377846,0.23414 -2.097406,0.15632 -2.885465,-0.21258 -2.294378,-1.07407 0.191192,-0.27875 0.706863,-1.45258 1.145825,-2.60864 1.8092,-4.76445 2.250554,-5.71377 2.935336,-6.31357 0.389857,-0.34088 0.970419,-0.64328 1.290737,-0.67126 1.23391,-0.10774 3.57598,2.38198 4.976383,5.29021 0.482445,1.00195 0.549873,1.48168 0.299728,2.11811 -0.674753,1.71381 -0.882699,1.93988 -2.251222,2.44731 z"
         style="display:inline;fill:none;stroke:#000000;stroke-width:0.2;stroke-miterlimit:4;stroke-dasharray:none;stroke-opacity:1" />
      <path
         inkscape:connector-curvature="0"
         id="path21048"
         d="m 50.520676,115.71371 c -2.235548,1.3397 -3.421928,1.61039 -4.388429,1.00128 -0.472565,-0.29785 -1.021169,-0.36574 -1.571294,-0.19446 -1.667602,0.51912 -4.449482,-1.07743 -5.388339,-3.09235 -0.701971,-1.50672 -0.992672,-4.1325 -0.611307,-5.52279 0.426615,-1.55523 1.429967,-2.5131 2.552659,-2.43686 0.716089,0.0486 0.984622,0.24519 1.92794,1.41116 0.602828,0.74504 1.414807,1.99029 1.804511,2.76719 1.311799,2.61528 2.043095,3.02648 6.085056,3.42169 1.835708,0.17948 1.937904,0.22401 1.811029,0.78886 -0.07394,0.32923 -0.191606,0.63436 -0.261406,0.67806 -0.06985,0.0436 -0.952,0.57392 -1.96042,1.17822 z"
         style="display:inline;fill:none;stroke:#000000;stroke-width:0.2;stroke-miterlimit:4;stroke-dasharray:none;stroke-opacity:1" />
      <g
         transform="rotate(42.34416,173.50831,130.43356)"
         id="g21103">
        <path
           style="display:inline;fill:none;stroke:#000000;stroke-width:0.2;stroke-miterlimit:4;stroke-dasharray:none;stroke-opacity:1"
           d="m 168.52473,134.81266 c -3.41693,1.71953 -4.57822,2.70108 -5.47606,4.62855 -0.90061,1.93338 -1.07896,2.0572 -1.96178,1.36228 -1.6357,-1.28759 -1.13505,-2.86418 2.30212,-7.24981 3.9894,-5.09026 4.47825,-6.35237 3.2048,-8.2744 -0.73143,-1.10398 -0.5853,-1.50566 0.75405,-2.07146 2.01532,-0.85136 2.25319,-2.78544 1.14759,-9.33044 -0.82319,-4.87325 -0.78027,-6.07947 0.22463,-6.31169 0.70241,-0.16231 2.49789,0.88059 4.15561,2.41377 2.44472,2.26104 4.33234,7.3232 4.2189,11.31396 -0.0839,2.95086 -1.27382,5.89441 -3.41605,8.45049 -0.82554,0.98501 -1.53644,1.98078 -1.57977,2.21282 -0.16804,0.89955 -0.98721,1.55413 -3.57401,2.85592 z"
           id="path21046"
           inkscape:connector-curvature="0" />
        <path
           style="display:inline;fill:none;stroke:#000000;stroke-width:0.2;stroke-miterlimit:4;stroke-dasharray:none;stroke-opacity:1"
           d="m 165.68832,109.68989 c -0.75462,-0.12147 -2.4625,-2.64398 -2.98944,-4.41539 -0.5656,-1.90131 -0.37625,-4.86798 0.4265,-6.682076 1.18756,-2.683776 4.03347,-4.43492 6.41878,-3.949608 1.76546,0.359172 3.54803,1.277098 3.69228,1.901294 0.30769,1.331672 -1.81393,4.79715 -4.25446,6.94927 -1.15268,1.01584 -1.75449,2.18501 -2.0858,4.04886 -0.31527,1.77362 -0.58225,2.24836 -1.20786,2.14765 z"
           id="path19527"
           inkscape:connector-curvature="0" />
      </g>
    </g>
  </g>
</svg>
