<?xml version="1.0" encoding="UTF-8" standalone="no"?>
<!-- Created with Inkscape (http://www.inkscape.org/) -->

<svg
   xmlns:dc="http://purl.org/dc/elements/1.1/"
   xmlns:cc="http://creativecommons.org/ns#"
   xmlns:rdf="http://www.w3.org/1999/02/22-rdf-syntax-ns#"
   xmlns:svg="http://www.w3.org/2000/svg"
   xmlns="http://www.w3.org/2000/svg"
   xmlns:sodipodi="http://sodipodi.sourceforge.net/DTD/sodipodi-0.dtd"
   xmlns:inkscape="http://www.inkscape.org/namespaces/inkscape"
   width="360mm"
   height="260mm"
   viewBox="0 0 360 260"
   version="1.1"
   id="svg19563"
   inkscape:version="0.92.4 (5da689c313, 2019-01-14)"
   sodipodi:docname="xAus.svg">
  <defs
     id="defs19557" />
  <sodipodi:namedview
     id="base"
     pagecolor="#ffffff"
     bordercolor="#666666"
     borderopacity="1.0"
     inkscape:pageopacity="0.0"
     inkscape:pageshadow="2"
     inkscape:zoom="0.35"
     inkscape:cx="1212.8571"
     inkscape:cy="634.28571"
     inkscape:document-units="mm"
     inkscape:current-layer="layer1"
     showgrid="false"
     inkscape:window-width="1920"
     inkscape:window-height="1017"
     inkscape:window-x="1912"
     inkscape:window-y="-8"
     inkscape:window-maximized="1" />
  <metadata
     id="metadata19560">
    <rdf:RDF>
      <cc:Work
         rdf:about="">
        <dc:format>image/svg+xml</dc:format>
        <dc:type
           rdf:resource="http://purl.org/dc/dcmitype/StillImage" />
        <dc:title></dc:title>
      </cc:Work>
    </rdf:RDF>
  </metadata>
  <g
     inkscape:label="Layer 1"
     inkscape:groupmode="layer"
     id="layer1"
     transform="translate(0,-37)">
    <g
       style="display:inline;fill:none;fill-opacity:1;fill-rule:nonzero;stroke:#000000;stroke-width:0.15812571;stroke-miterlimit:1;stroke-dasharray:none;stroke-opacity:1"
       id="Oceanie"
       transform="matrix(0.37499533,1.186235,-1.2260774,0.3875904,111.14696,-773.82195)">
      <path
         style="fill:none;fill-opacity:1;stroke:#000000;stroke-width:0.15812571;stroke-miterlimit:1;stroke-dasharray:none;stroke-opacity:1"
         d="m 726.60498,297.24701 c -3.12154,-0.8733 -6.56911,-8.33599 -1.03352,-5.93358 6.79749,-0.14968 4.76937,2.76183 1.03352,5.93358 z M 716.883,224.34399 c 2.15761,3.64273 2.67548,7.82026 6.39796,10.18184 0.6442,5.12965 3.0696,9.00223 7.65016,11.12101 2.1503,5.00551 7.34719,7.24625 9.51247,12.46837 1.61735,5.49541 1.01156,11.66515 -2.74883,16.18488 -3.61319,3.13107 -2.52307,11.37671 -8.74144,10.79643 -2.93458,3.45984 -6.80191,-1.46566 -10.3301,1.11317 -4.97824,0.87471 -7.03702,-3.70572 -8.82468,-6.59158 -3.21837,1.25138 -0.41978,-5.30704 -3.33763,-1.68958 -3.12187,4.06155 3.4276,-7.60603 -0.7137,-3.32673 -1.89142,2.95756 -4.94813,4.29513 -5.72662,-0.0542 -5.23427,-6.01566 -13.90785,-3.69509 -20.48516,-1.70822 -3.85975,3.79557 -9.60847,1.89093 -14.08881,4.18458 -3.31057,3.05192 -12.22125,0.44904 -7.74212,-4.09739 -0.51873,-5.00825 -3.87777,-10.58275 -5.35024,-14.41757 1.79079,1.43905 -1.14167,-2.1232 1.80553,0.16201 -3.58959,-5.2276 -0.17159,-10.52028 5.41252,-12.07076 4.36831,-1.69379 10.31076,-1.44739 12.49661,-6.58109 0.41045,-2.49034 1.56774,-3.2141 3.20644,-1.28629 -1.32785,-2.57813 3.53816,-1.17707 1.73013,-3.59654 2.66284,-2.51472 6.49964,-6.22634 8.61851,-1.13513 1.62734,-0.95055 3.90405,0.33264 3.20781,-2.97918 -0.34847,-3.92643 8.63417,-2.64687 5.1884,-5.6118 2.47902,1.7585 10.26888,1.2081 9.73165,3.39367 -5.36827,5.86729 3.67939,7.47203 7.01092,10.39122 6.59042,0.1902 3.25819,-9.14844 5.36111,-13.19969 l 0.32436,-0.80912 z"
         id="Australie"
         inkscape:connector-curvature="0" />
      <path
         style="fill:none;fill-opacity:1;stroke:#000000;stroke-width:0.15812571;stroke-miterlimit:1;stroke-dasharray:none;stroke-opacity:1"
         d="m 790.15002,283.022 c 1.95192,-1.13286 4.14059,4.26641 6.44256,1.18006 1.61537,2.74899 -4.04239,4.09336 -4.36241,7.1251 -4.03975,2.65988 -1.1407,-3.22327 -4.8736,-3.65303 5.15131,-3.14847 -2.12375,-7.96146 -2.11328,-10.32739 3.67604,0.70601 2.90788,4.25478 4.90673,5.67526 z m -7.21099,14.672 c -3.37459,1.71283 -4.25744,8.36436 -9.72697,5.65231 -5.6243,-2.99583 6.42262,-6.17245 8.30122,-9.07675 0.83742,-3.85825 4.87598,-3.23909 5.96953,-1.23001 -2.32396,2.34075 -1.77054,4.6405 -4.54378,4.65445 z"
         id="Nouvelle-zelande"
         inkscape:connector-curvature="0" />
    </g>
  </g>
</svg>
