<?xml version="1.0" encoding="UTF-8" standalone="no"?>
<!-- Created with Inkscape (http://www.inkscape.org/) -->

<svg
   xmlns:dc="http://purl.org/dc/elements/1.1/"
   xmlns:cc="http://creativecommons.org/ns#"
   xmlns:rdf="http://www.w3.org/1999/02/22-rdf-syntax-ns#"
   xmlns:svg="http://www.w3.org/2000/svg"
   xmlns="http://www.w3.org/2000/svg"
   xmlns:sodipodi="http://sodipodi.sourceforge.net/DTD/sodipodi-0.dtd"
   xmlns:inkscape="http://www.inkscape.org/namespaces/inkscape"
   width="300mm"
   height="210mm"
   viewBox="0 0 300 210"
   version="1.1"
   id="svg19563"
   inkscape:version="0.92.4 (5da689c313, 2019-01-14)"
   sodipodi:docname="xEur.svg">
  <defs
     id="defs19557" />
  <sodipodi:namedview
     id="base"
     pagecolor="#ffffff"
     bordercolor="#666666"
     borderopacity="1.0"
     inkscape:pageopacity="0.0"
     inkscape:pageshadow="2"
     inkscape:zoom="0.7"
     inkscape:cx="352.45856"
     inkscape:cy="365.41804"
     inkscape:document-units="mm"
     inkscape:current-layer="layer1"
     showgrid="false"
     inkscape:window-width="1920"
     inkscape:window-height="1017"
     inkscape:window-x="1912"
     inkscape:window-y="-8"
     inkscape:window-maximized="1" />
  <metadata
     id="metadata19560">
    <rdf:RDF>
      <cc:Work
         rdf:about="">
        <dc:format>image/svg+xml</dc:format>
        <dc:type
           rdf:resource="http://purl.org/dc/dcmitype/StillImage" />
        <dc:title></dc:title>
      </cc:Work>
    </rdf:RDF>
  </metadata>
  <g
     inkscape:label="Layer 1"
     inkscape:groupmode="layer"
     id="layer1"
     transform="translate(0,-87)">
    <path
       id="path18961"
       style="display:inline;fill:none;stroke:#00001d;stroke-width:0.2;stroke-miterlimit:4;stroke-dasharray:none;stroke-opacity:1"
       d="m 215.00049,158.94508 c -1.17607,0.006 -2.06603,0.057 -2.49079,0.16536 -2.75653,0.70337 -2.31875,2.03346 0.85058,2.58538 0.92441,0.16097 2.22512,0.293 2.89079,0.293 1.07765,0 1.19544,0.0576 1.07281,0.5266 -0.0985,0.37661 0.0404,0.6033 0.48781,0.79632 1.40086,0.60433 11.17532,-0.42924 13.58629,-1.43661 1.01766,-0.42522 1.20512,-1.04357 0.44079,-1.45262 -1.27254,-0.68104 -11.7419,-1.50307 -16.83828,-1.47743 z m -21.23228,1.83142 c -2.26119,-0.005 -4.61304,0.37917 -4.97594,0.96634 -0.27694,0.44815 0.38142,0.98864 1.41801,1.16376 0.70506,0.11912 1.10188,0.37907 1.41697,0.92811 0.7053,1.22894 1.90463,1.70516 4.32014,1.71617 1.16417,0.005 2.87616,-0.093 3.80442,-0.2186 1.22304,-0.16552 1.63777,-0.14727 1.50585,0.0661 -0.10009,0.162 -0.70096,0.29456 -1.33532,0.29456 -0.63434,0 -1.34181,0.0719 -1.572,0.1602 -0.76308,0.29282 -0.44659,0.86934 0.57362,1.04439 0.5457,0.0936 1.34937,0.26686 1.78593,0.38497 0.72594,0.19643 0.6893,0.21643 -0.43045,0.23823 -1.7417,0.034 -2.10264,0.57415 -0.96377,1.44283 0.48443,0.36949 1.17533,0.78928 1.5348,0.93273 0.35943,0.14346 1.30802,0.26533 2.10838,0.27131 1.82142,0.0132 3.44834,-0.65376 7.20421,-2.95331 2.40855,-1.47465 4.04519,-2.26036 5.69423,-2.73317 0.75499,-0.21646 0.23527,-0.87535 -1.19062,-1.50945 -3.32897,-1.48037 -4.2327,-1.61473 -10.42004,-1.55083 -4.53559,0.0468 -6.12288,-0.0317 -7.64656,-0.37825 -0.79494,-0.18081 -1.80406,-0.26379 -2.83186,-0.26614 z m 41.62746,25.85786 c -0.37563,0.006 -0.76528,0.0209 -1.17049,0.0439 -3.15441,0.17936 -12.98992,1.52387 -15.96957,2.18281 -10.73277,2.37353 -18.93936,6.66859 -25.48322,13.33768 -2.52312,2.5714 -4.04645,3.4681 -8.99583,5.29373 -7.51684,2.77272 -10.01665,4.49937 -10.71253,7.40007 -0.33411,1.39269 -0.26379,2.00314 0.55758,4.83484 0.41585,1.43362 0.7034,1.92225 1.479,2.51354 0.90569,0.69046 1.11297,0.73218 3.49641,0.70488 1.99795,-0.0228 3.31235,-0.23267 6.21515,-0.99219 4.20851,-1.10117 5.44668,-1.21113 5.44668,-0.48421 0,0.87283 1.11408,4.92805 1.64952,6.00376 0.28972,0.58209 1.11117,1.76419 1.3762,2.05524 v 0 c 2.31693,0.96805 7.4027,0.58737 10.07169,-2.21078 1.30156,-1.36457 1.8525,-2.2959 2.97965,-5.0369 0.20432,-0.49689 0.54915,-0.74356 1.21336,-0.86815 0.51043,-0.0958 1.20475,-0.40823 1.54254,-0.69454 0.60315,-0.51117 0.6046,-0.52787 0.10026,-0.91778 -0.50496,-0.39005 -0.50396,-0.39688 0.0372,-0.39688 0.30273,0 0.81758,-0.21669 1.14411,-0.48109 0.50114,-0.40582 0.54599,-0.56904 0.2899,-1.04748 -0.16682,-0.31176 -0.73909,-0.89927 -1.27175,-1.30535 -1.21888,-0.92927 -2.4653,-2.62948 -2.4603,-3.35743 0.003,-0.38338 0.679,-1.06945 2.18281,-2.21277 1.19864,-0.91133 3.60794,-2.79278 5.35419,-4.18115 3.48496,-2.77072 6.53867,-4.44823 8.99583,-4.94131 1.7306,-0.34726 2.05347,-0.58703 1.87123,-1.39113 -0.17489,-0.77152 1.41287,1.14859 1.61697,1.95543 0.36095,1.42717 -0.13327,1.92464 -3.61946,3.64424 -3.37156,1.66307 -4.30326,2.4256 -5.28029,4.32221 -0.81931,1.59046 -0.89503,2.50007 -0.31782,3.80495 1.10758,2.50383 4.26522,3.85841 9.47903,4.0664 3.74378,0.14936 6.21697,-0.28265 8.71059,-1.52185 0.8595,-0.42715 1.7667,-0.77997 2.01589,-0.78497 0.91265,-0.0167 2.56952,-1.78443 3.46249,-2.56844 2.30002,-2.01946 2.43285,-3.10708 0.0209,-9.12209 -1.59898,-3.98749 -2.11071,-3.63062 -1.81485,-4.86381 0.38571,-1.60788 0.64598,-2.36435 -0.74012,-4.43357 -0.8014,-1.1964 -0.30478,-2.3857 -0.2426,-2.90367 0.0877,-0.73052 0.0892,-0.73102 0.84648,-0.28369 0.64125,0.37878 -0.87243,0.26138 0,0 0.56777,-0.1701 1.20582,-1.1421 1.48281,-1.44817 0.49813,-0.55041 2.33973,0.15785 1.60795,-0.47162 -0.6727,-0.57862 -0.69035,-0.63614 -0.19584,-0.63614 0.96789,0 0.57972,-0.76668 -0.72192,-1.42626 -1.68431,-0.85349 -3.6204,-1.22439 -6.24975,-1.18028 z m -120.53582,12.63695 -1.70016,0.52504 c -3.078,0.9507 -5.60094,1.14726 -10.57145,0.82267 -4.7462,-0.30991 -6.02025,-0.24797 -8.97051,0.43616 -1.93069,0.44771 -2.27074,0.69551 -1.77406,1.29398 0.23685,0.28537 0.98017,0.3911 2.86702,0.40722 l 2.54712,0.0217 -1.38906,0.63458 c -0.76399,0.34904 -1.38906,0.73792 -1.38906,0.86455 0,0.1266 0.56554,0.60542 1.25677,1.06402 0.69122,0.45858 1.66206,1.13168 2.15699,1.49551 0.9439,0.69392 2.18283,1.109 4.39144,1.47174 1.93564,0.31795 6.78792,0.0523 9.525,-0.52141 8.12277,-1.70249 10.2134,-5.09715 4.74597,-7.70652 z m 114.85503,19.43756 c -0.3846,0.009 -0.76946,0.0586 -1.23507,0.1447 -4.19967,0.77634 -4.97307,2.72844 -1.88619,4.76094 0.53422,0.35176 0.94168,0.66715 0.90538,0.70075 -0.0363,0.0337 -1.55443,0.19611 -3.37348,0.36071 -3.92343,0.35496 -5.04277,0.62396 -5.99292,1.44124 -0.50744,0.43648 -0.70951,0.86338 -0.70951,1.49759 0,0.48786 0.13579,0.93223 0.30179,0.98753 0.20809,0.0694 0.17071,0.30065 -0.11988,0.74414 -0.35849,0.54711 -0.37082,0.76592 -0.0817,1.46399 0.2974,0.71798 1.78134,2.08489 3.3259,3.06391 0.27411,0.17372 -0.21622,0.0682 -1.08935,-0.23461 -2.4929,-0.86447 -7.14689,-0.94694 -12.79353,-0.22635 -2.56124,0.32686 -5.01144,0.50797 -5.57744,0.41238 -1.22007,-0.20614 -4.11186,0.28244 -5.08857,0.85936 -0.65604,0.38754 -0.84995,0.37603 -2.64687,-0.15089 -2.73478,-0.8019 -10.53176,-2.01422 -10.85773,-1.68825 -0.16841,0.16838 -0.15777,0.44714 0.0305,0.79891 0.68715,1.28394 0.28305,1.64467 -2.43189,2.17143 -0.84159,0.16328 -1.67037,0.44699 -1.84174,0.63045 -0.25061,0.26826 -0.54012,0.26485 -1.47846,-0.0175 -1.19542,-0.35975 -2.40647,-0.23738 -2.75231,0.27855 -0.10691,0.15949 -0.19642,0.746 -0.19843,1.30326 -0.004,1.00907 -0.008,1.01269 -0.86403,0.80463 -1.40417,-0.34116 -2.29333,-0.21037 -2.98534,0.43976 -0.35875,0.33703 -0.65268,0.8899 -0.65268,1.22835 0,0.40865 -0.15552,0.61603 -0.46302,0.61805 -0.65812,0.004 -3.03958,1.15255 -3.47162,1.67483 -0.2675,0.32335 -0.28689,0.53121 -0.0729,0.7891 0.23138,0.27874 0.14386,0.32887 -0.43045,0.24598 -0.51176,-0.0738 -1.40647,0.29107 -3.08097,1.25624 -5.16109,2.97492 -7.64558,3.89459 -12.55839,4.64881 -4.26813,0.65527 -4.25575,0.7847 0.39378,4.22767 2.8598,2.11765 4.66664,3.80587 5.32061,4.97076 0.60701,1.08127 0.41571,3.12898 -0.41341,4.42298 -1.42968,2.23121 -1.35864,2.21115 -4.96044,1.41335 -3.61111,-0.79988 -9.33847,-1.14588 -11.0913,-0.67027 -2.61348,0.70917 -4.23619,2.43047 -4.55891,4.8364 -0.1288,0.96025 -0.0957,1.02114 0.55759,1.02114 h 0.69453 l -0.89813,1.17718 c -1.38636,1.81623 -1.87637,3.54634 -1.87637,6.62802 0,2.40189 0.0665,2.75836 0.71882,3.868 0.91739,1.56051 2.1726,2.20731 3.80751,1.96215 0.63931,-0.0959 1.16549,-0.25635 1.17049,-0.35658 0.004,-0.10022 0.17867,-0.40653 0.38653,-0.68109 0.35952,-0.47487 0.44797,-0.43545 1.81385,0.81288 1.00973,0.92284 1.93527,1.47987 3.11917,1.87688 v 0 c 1.96776,0.65989 4.50422,0.74591 6.48076,0.21963 3.24739,-0.86469 7.24091,-3.88972 7.24091,-5.48495 0,-1.9563 1.48023,-3.98714 5.09889,-6.99542 3.15915,-2.62628 3.68046,-3.2343 3.55743,-4.15118 -0.0538,-0.40019 -0.0119,-0.72761 0.093,-0.72761 0.10493,0 0.54112,-0.32739 0.96946,-0.7276 0.75536,-0.7057 0.86937,-0.72761 3.7982,-0.72761 2.60995,0 3.20773,-0.0849 4.40645,-0.62682 1.60779,-0.72681 3.10962,-2.26187 3.36931,-3.44424 0.0995,-0.45291 0.25037,-0.82373 0.33538,-0.82373 0.32541,0 5.59142,3.04925 11.11406,6.43578 7.87318,4.82796 8.07805,4.94131 8.96017,4.94131 1.65137,0 2.56614,1.25894 3.00395,4.13411 0.50638,3.32571 0.71445,3.60654 2.12854,2.87528 1.09975,-0.5687 1.32464,-1.11114 0.89091,-2.14921 -0.47458,-1.13594 -0.46381,-2.06782 0.0284,-2.47634 0.2165,-0.17968 1.07971,-0.46181 1.91823,-0.62736 1.22539,-0.24196 1.54013,-0.40978 1.60353,-0.8537 0.10086,-0.70591 -0.21127,-0.95208 -3.04117,-2.40035 -5.4052,-2.76633 -11.1333,-7.30581 -11.6086,-9.19946 -0.25223,-1.00507 0.20667,-1.84348 1.2909,-2.35799 1.25611,-0.59606 1.74078,-0.55182 2.02055,0.18396 0.37938,0.99788 2.2525,2.42023 6.22649,4.72893 2.0406,1.18549 4.04678,2.4312 4.45812,2.76778 0.41135,0.3366 1.00666,0.61243 1.32292,0.61341 0.3592,0 0.81087,0.34866 1.20407,0.92604 0.34618,0.50832 0.73313,0.92448 0.85989,0.92448 0.12676,0 0.23048,0.51665 0.23048,1.14826 0,1.45683 1.30334,4.13499 2.4629,5.06119 0.46448,0.37103 0.96345,0.79587 1.10897,0.94361 0.14553,0.14775 0.67334,0.68525 1.17253,1.19475 0.49919,0.50954 1.1838,0.99587 1.52136,1.08056 0.6813,0.17098 0.83857,0.6258 0.21653,0.6258 -0.98115,0 0.0646,3.75094 1.12292,4.02767 0.73903,0.19325 1.86132,-0.3505 3.24271,-1.57097 0.65481,-0.57856 1.45851,-1.19369 1.78595,-1.36683 0.80806,-0.42736 0.75485,-0.7171 -0.36022,-1.9513 -1.33538,-1.47815 -2.09352,-3.25427 -1.72961,-4.053 0.44802,-0.9833 1.37462,-1.41232 4.21684,-1.95389 2.96566,-0.5651 4.34657,-1.14224 4.2323,-1.76835 -0.0504,-0.27604 -0.85455,-2.90486 0.007,-3.24659 3.94383,-1.56414 6.89028,-1.94562 5.22727,-3.92197 l -0.64339,-0.76481 1.53533,-0.31731 c 2.8594,-0.59061 4.14647,-2.05481 2.9378,-3.34137 l -0.56121,-0.59741 2.32542,-1.11723 c 3.12127,-1.49976 5.09358,-2.00077 6.30352,-1.60147 0.66939,0.22096 0.91837,0.45795 0.92138,0.8775 0.009,1.21602 1.13853,2.64996 2.72696,3.46231 2.16969,1.10958 4.28506,1.08 6.66781,-0.093 2.3921,-1.17761 2.35575,-1.7381 -0.12557,-1.94612 -1.01123,-0.0848 -2.10698,-0.29805 -2.43551,-0.47389 l -0.59738,-0.31935 0.91004,-0.75965 c 1.09587,-0.91488 4.22859,-2.15934 7.14787,-2.83909 1.70358,-0.39668 1.26603,-0.95038 2.2556,-1.78514 2.59789,-2.19165 3.18799,-2.63768 1.63873,-3.99796 -0.93367,-0.81978 -1.30697,-1.34887 -7.29719,-3.2594 -4.48238,-1.42962 -6.59958,-1.53839 -7.59306,-2.99945 -0.79952,-1.17589 0,0 -3.43525,-2.1603 -1.01864,0.22336 -2.18847,0.40783 -2.59984,0.41082 l -0.74774,0.005 0.79322,-0.79375 c 1.78932,-1.7893 0.47437,-3.80325 -1.52773,-6.74484 -2.67597,-3.93168 -5.1267,-5.28492 -10.22091,-3.20802 -2.15204,0.87736 -2.24906,0.89308 -2.50992,0.40566 -0.24381,-0.45561 -0.17526,-0.50697 0.67284,-0.50697 1.25711,0 2.66366,-0.61359 3.0463,-1.32858 0.37804,-0.70638 -0.65796,-1.06685 -1.32992,-2.22099 -0.48554,-0.83394 -1.3674,-2.76111 -0.69644,-3.37949 0.90755,-0.83635 1.39785,-0.63201 1.39785,-2.08783 l 1.68375,-1.84962 -1.27743,0.16951 c -0.8209,0.10888 -1.99213,0.0111 -3.27525,-0.2744 -1.01222,-0.22521 -1.65243,-0.32189 -2.29341,-0.30646 z m -82.9743,3.09285 c -0.21579,0.003 -0.44635,0.0314 -0.69762,0.0816 -1.50556,0.30109 -2.56424,0.97888 -3.01636,1.93167 -0.54459,1.14763 -0.40317,2.0366 0.82217,5.17382 0.49612,1.27019 0.90175,2.42634 0.90175,2.56937 0,0.14303 0.50527,0.39592 1.12292,0.56224 1.60655,0.43259 3.04607,1.22005 3.38378,1.85105 0.65569,1.22513 -0.72369,3.45014 -3.05046,4.92011 -0.65479,0.41368 -1.19089,0.88892 -1.19113,1.05574 0,0.40958 1.76385,1.93421 2.68819,2.32286 0.74444,0.313 0.74301,0.31417 -1.36839,1.34358 -1.56811,0.76457 -2.11408,1.16403 -2.11408,1.5472 0,0.49988 0.15248,0.51078 4.747,0.33333 5.12638,-0.19802 9.22753,-0.7075 10.72028,-1.3312 0.75316,-0.3147 0.93861,-0.5365 0.94361,-1.13223 0.006,-0.60339 0.20235,-0.83138 1.05886,-1.22629 1.19751,-0.55214 1.57869,-1.43108 0.987,-2.27582 -0.20828,-0.29736 -1.16916,-1.13945 -2.13577,-1.87121 -1.36787,-1.0355 -1.91386,-1.66008 -2.46136,-2.81739 -1.23979,-2.62072 -3.33603,-4.23143 -6.80889,-5.23174 -1.50511,-0.43352 -1.53559,-0.46051 -1.08623,-0.95705 0.25427,-0.28096 1.04011,-0.88191 1.74665,-1.3353 0.70657,-0.45339 1.28469,-0.97446 1.28469,-1.15808 0,-0.18362 -0.70512,-0.59097 -1.56734,-0.90538 -1.28919,-0.47006 -1.73517,-0.80457 -2.50889,-1.88153 -0.81251,-1.13093 -1.46529,-1.58327 -2.40038,-1.5694 z m 39.3826,2.68147 c -0.69631,0.018 -1.44055,0.27744 -2.74143,0.93276 -2.12199,1.069 -2.75609,1.92495 -1.42626,1.92495 h 0.73123 l -0.8444,0.82476 c -1.41597,1.38436 -1.20118,1.26267 1.17171,2.57067 0.78237,0.43127 1.74906,0.21764 1.9852,0.22063 0.5416,0.006 2.47904,-0.40611 3.05459,-1.61308 0.40481,-0.84807 0.40412,-0.95917 -0.006,-1.58544 -0.24276,-0.37049 -0.74007,-0.74906 -1.10535,-0.84076 l -0.66405,-0.1664 0.68575,-0.63614 c 0.97813,-0.90649 0.76805,-1.53503 -0.54364,-1.62523 -0.099,-0.007 -0.19765,-0.009 -0.29713,-0.007 z m -45.65301,6.62546 c -0.69919,-0.005 -1.4577,0.23543 -2.09963,0.71003 -0.49114,0.36309 -1.14316,0.54931 -1.92648,0.54931 -2.0002,0 -4.33232,1.24809 -5.09789,2.72851 -0.37502,0.72522 -0.36401,0.83201 0.15865,1.53892 l 0.56173,0.75965 -0.58137,0.786 c -0.67376,0.91133 -0.75779,2.23686 -0.1788,2.81585 0.22116,0.22114 0.8659,0.57484 1.43298,0.7855 2.3299,0.86548 6.14514,-0.0835 8.06876,-2.00713 1.27053,-1.27053 1.81309,-2.75791 1.43764,-3.94084 -0.11567,-0.36452 -0.007,-0.60963 0.35761,-0.8046 1.15036,-0.61566 0.81997,-2.26586 -0.69196,-3.45768 -0.38971,-0.30718 -0.89744,-0.45963 -1.44124,-0.46352 z m 81.32784,3.1197 c 0.86921,-0.0161 1.74844,0.58134 1.88259,1.2795 0.16809,0.87484 0.11551,0.92448 -0.37209,0.35502 -0.21547,-0.25167 -0.74456,-0.72036 -1.17615,-1.0418 -0.57092,-0.42521 -0.66217,-0.58671 -0.33435,-0.59272 z m -38.65862,37.58428 c -0.52956,-0.008 -0.98552,0.16605 -1.44383,0.52657 -1.11464,0.87678 -0.85458,2.92872 0.63664,5.02295 0.659,0.92546 0.84511,0.94724 2.00401,0.23099 2.51579,-1.55483 2.6257,-4.4232 0.20828,-5.43325 -0.53647,-0.22415 -0.9932,-0.34099 -1.4051,-0.34726 z m 15.06884,8.02378 c -1.90349,0.0294 -3.98063,1.01806 -3.98063,2.11873 0,1.05079 1.26823,1.85467 3.79254,2.40347 2.31918,0.50422 2.26883,0.5184 2.85978,-0.81751 0.84465,-1.9095 0.3819,-3.07925 -1.40923,-3.56155 -0.39312,-0.10584 -0.8232,-0.14992 -1.26246,-0.14314 z m 27.09605,7.70289 c -0.14317,0.005 -0.25588,0.0159 -0.3297,0.0351 -0.99252,0.25955 -0.72185,1.11141 0.54004,1.69912 0.88929,0.41418 1.57668,0.5083 3.28557,0.45011 1.18851,-0.0405 2.25592,-0.16862 2.37196,-0.28474 0.3437,-0.34396 -0.28138,-1.06865 -1.11363,-1.29141 -1.24732,-0.33382 -3.75195,-0.64029 -4.75424,-0.60822 z"
       inkscape:connector-curvature="0"
       sodipodi:nodetypes="scsccccssccscccscscccccsccccscccsscccccscccsccccssccccccccccccsccccccccccsccccccccccscccsccccccccsccsccccccccccsccccsccccsccsscccsccsccccccccsscscsccsssccccccccccscccssccccscccccsccccccccccccsccccccsccccccscscccscccccccccsccccccsscccccscccscccccsccccccccccccccscccccsccscccccccccccccccsccccccccscccccc" />
    <path
       id="path18961-3"
       style="display:inline;fill:none;stroke:#00001d;stroke-width:0.2;stroke-miterlimit:4;stroke-dasharray:none;stroke-opacity:1"
       d="m 116.10112,110.7782 c -5.29408,0.0183 -10.57013,0.21431 -14.87972,0.61754 -4.986341,0.46657 -7.852041,0.59677 -11.641671,0.52917 l -5.02708,-0.0894 -0.08165,0.70694 c -0.339064,2.93298 -6.752088,3.75406 -13.03073,1.66862 -1.192715,-0.39616 -1.244362,-0.38926 -2.51923,0.32969 -1.262168,0.71181 -1.421712,0.73433 -5.270473,0.73433 -2.182813,0 -6.171407,-0.16497 -8.863542,-0.36637 -5.094129,-0.38113 -6.453426,-0.29477 -9.75651,0.62063 -0.782162,0.21675 -3.996849,0.70017 -7.14375,1.07384 -3.146902,0.37365 -6.555052,0.80264 -7.573698,0.95343 -3.981952,0.58946 -8.863541,2.09984 -8.863541,2.74246 0,0.21079 0.516493,0.46648 1.266587,0.62735 1.808771,0.38791 2.758942,0.78938 2.574528,1.08778 -0.524193,0.84815 -8.080163,2.12666 -13.055547,2.20916 -3.9582986,0.0656 -4.8084846,0.30755 -4.8084846,1.36633 0,0.7784 2.8148486,3.88425 4.6798176,4.5868 0.244078,-0.0819 0.497866,0.15936 0.708713,0.3071 1.189487,0.60079 4.19825,1.37578 7.179177,1.9889 1.851925,0.3809 2.381436,0.39127 4.233334,0.0852 1.347258,-0.22262 4.280641,-0.34184 8.069791,-0.32866 5.580459,0.0193 6.118754,0.0647 8.598958,0.7276 4.244419,1.13445 7.725807,2.96365 10.658263,5.6002 l 1.389063,1.24903 -0.152453,1.62519 c -0.186082,1.98017 0.340942,3.17898 1.731169,3.93724 0.80727,0.4403 1.343765,0.49085 4.182692,0.39325 3.240299,-0.11133 3.261915,-0.10824 4.299479,0.64338 0.573537,0.41548 1.042829,0.86068 1.042829,0.9891 0,0.415 -1.774905,0.58176 -4.22402,0.39687 -2.11463,-0.15965 -2.390564,-0.13039 -2.390564,0.25424 0,0.31604 0.239845,0.43511 0.877994,0.43511 2.93833,0 8.927015,3.26343 7.89252,4.30104 -0.180392,0.18096 -1.24452,0.38867 -2.364184,0.46146 -2.642896,0.17175 -2.829851,0.65532 -0.611849,1.58182 0.863627,0.36076 1.518497,0.73992 1.455208,0.84233 -0.06329,0.10242 -1.051586,0.26752 -2.196253,0.36741 -1.144667,0.0999 -2.220939,0.26817 -2.391569,0.37363 -0.170656,0.10546 -0.378592,0.85281 -0.461989,1.66089 -0.1778,1.72249 0.288449,3.33298 1.519794,5.25187 0.82423,1.28446 1.083839,1.43413 3.612171,2.08514 1.01047,0.26018 1.128262,0.37834 1.270211,1.27177 0.402749,2.53467 0.743876,3.2885 2.089283,4.61677 2.616094,2.58274 8.034072,5.70415 11.533663,6.64456 0.800365,0.21508 2.241312,0.40173 3.201882,0.41493 3.010456,0.0415 4.597347,-0.81906 5.712301,-3.09799 0.668949,-1.36726 0.678839,-1.45374 0.255799,-2.16988 -0.242305,-0.41021 -0.367083,-0.93653 -0.277495,-1.16996 0.08956,-0.23344 0.953345,-0.85825 1.919265,-1.38856 2.84718,-1.56309 3.43416,-2.38569 2.69285,-3.77081 -0.20818,-0.38898 -0.0114,-0.67078 1.09709,-1.57253 2.83454,-2.30577 6.626921,-3.59021 11.538831,-3.90777 l 2.83135,-0.18293 1.6831,-1.28984 c 3.50393,-2.6856 6.34717,-3.5932 14.69525,-4.68914 6.16527,-0.80936 9.33915,-1.49222 11.62047,-2.50113 0.76081,-0.33647 2.14905,-0.69869 3.08507,-0.8046 2.38707,-0.27006 3.50583,-0.77396 3.39722,-1.53013 -0.0621,-0.43217 -0.44511,-0.73969 -1.40819,-1.13016 -1.19031,-0.48259 -1.85949,-0.53232 -6.67763,-0.49973 -2.94524,0.0198 -5.29482,-0.0617 -5.22087,-0.18138 0.0739,-0.11967 0.79717,-0.46556 1.60663,-0.76841 2.32066,-0.8683 3.01583,-1.29994 3.01583,-1.87172 0,-0.90456 1.48246,-0.52028 4.23902,1.09862 2.0401,1.19814 5.29934,1.87419 6.46835,1.34152 1.2755,-0.58116 0.52856,-2.15547 -1.82626,-3.84883 -0.45678,-0.32847 -0.36891,-0.35457 0.8201,-0.2403 1.45722,0.14001 1.77835,-0.13054 1.39113,-1.17203 -0.29435,-0.79181 -1.88563,-1.21778 -3.21271,-0.86043 -0.55567,0.14963 -1.00046,0.43463 -1.00046,0.64131 0,0.28476 -0.35711,0.21396 -1.52136,-0.3018 -1.74686,-0.77381 -4.92739,-1.50197 -5.61205,-1.28465 -0.25553,0.0811 -0.60658,-0.0238 -0.78031,-0.23307 -0.54544,-0.65717 0.51946,-0.75255 6.28745,-0.56381 5.53802,0.18124 8.31977,-0.0188 9.74257,-0.70072 0.92885,-0.44519 1.15991,-1.27692 0.35449,-1.27692 -1.0383,0 -0.29636,-0.4575 1.02682,-0.63304 3.00112,-0.3981 3.93602,-1.30655 1.68103,-1.6335 -0.69122,-0.10022 -1.35101,-0.23683 -1.46605,-0.30334 -0.11505,-0.0664 0.21238,-0.58727 0.7276,-1.15755 0.5152,-0.57029 0.93689,-1.19449 0.93689,-1.387 0,-0.82913 -1.2546,-1.52834 -3.33933,-1.86137 -1.99348,-0.31846 -2.03827,-0.34092 -1.0263,-0.50851 0.58209,-0.0964 2.23843,-0.30728 3.68091,-0.46921 1.44249,-0.16192 2.901,-0.40037 3.24115,-0.52969 1.36406,-0.51861 0.40143,-1.22688 -2.01073,-1.47897 -1.30759,-0.13669 -1.7903,-0.33303 -2.67271,-1.08832 -0.89173,-0.7633 -1.06238,-1.06252 -0.99579,-1.74046 0.10922,-1.11146 1.24153,-1.82843 4.06382,-2.57399 2.6081,-0.689 2.91639,-1.25338 0.909,-1.66296 -1.09781,-0.22399 -1.13805,-0.25987 -0.5271,-0.46818 0.3638,-0.12403 2.56645,-0.52953 4.89479,-0.90125 2.32833,-0.37168 5.34903,-0.85381 6.71277,-1.07124 4.13353,-0.65905 5.19784,-1.45709 3.60907,-2.70682 -1.89288,-1.48895 -6.88453,-1.38237 -17.25009,0.36793 -3.81074,0.64349 -7.22114,1.16996 -7.57835,1.16996 -0.46739,0 -0.69454,-0.18058 -0.81082,-0.64389 -0.0889,-0.35409 -0.41405,-0.72427 -0.72242,-0.82217 -0.49128,-0.15592 -0.54139,-0.31771 -0.40566,-1.30794 0.17637,-1.28672 -0.12544,-1.69852 -1.73842,-2.37247 -2.6589,-1.11095 -12.29145,-1.80027 -22.3485,-1.86086 -0.75428,-0.004 -1.51075,-0.006 -2.26703,-0.003 z m 46.37857,49.05543 -1.70016,0.52503 c -3.078,0.95071 -5.60094,1.14726 -10.57145,0.82267 -4.7462,-0.30991 -6.02025,-0.24797 -8.97051,0.43616 -1.93069,0.44772 -2.27074,0.69551 -1.77406,1.29399 0.23685,0.28537 0.98017,0.3911 2.86702,0.40722 l 2.54712,0.0217 -1.38906,0.63458 c -0.76399,0.34904 -1.38906,0.73792 -1.38906,0.86455 0,0.1266 0.56554,0.60542 1.25677,1.06402 0.69122,0.45858 1.66206,1.13168 2.15699,1.49551 0.9439,0.69392 2.18283,1.109 4.39144,1.47174 1.93564,0.31795 6.78792,0.0523 9.525,-0.52141 8.12277,-1.70249 10.2134,-5.09715 4.74597,-7.70652 z"
       inkscape:connector-curvature="0"
       sodipodi:nodetypes="sccccscsssccscccscccscsccccccscssccccccssccccccccccscccscccccccscccsscscccscsccccscssccccccccccsscccsscscccccscccsccccc" />
  </g>
</svg>
