<?xml version="1.0" encoding="UTF-8" standalone="no"?>
<svg
   xmlns:dc="http://purl.org/dc/elements/1.1/"
   xmlns:cc="http://creativecommons.org/ns#"
   xmlns:rdf="http://www.w3.org/1999/02/22-rdf-syntax-ns#"
   xmlns:svg="http://www.w3.org/2000/svg"
   xmlns="http://www.w3.org/2000/svg"
   xmlns:sodipodi="http://sodipodi.sourceforge.net/DTD/sodipodi-0.dtd"
   xmlns:inkscape="http://www.inkscape.org/namespaces/inkscape"
   version="1.1"
   viewBox="-30 61 3779.5277 1889.7638"
   width="1000mm"
   height="500mm"
   id="svg3055"
   sodipodi:docname="BlankMap-World.svg"
   inkscape:version="0.92.4 (5da689c313, 2019-01-14)"
   inkscape:export-filename="E:\Hobbies\Laser\WorldMap\World.png"
   inkscape:export-xdpi="96"
   inkscape:export-ydpi="96">
  <g
     inkscape:groupmode="layer"
     id="layer13"
     inkscape:label="Cork"
     transform="translate(0,-944.88189)"
     style="display:inline"
     sodipodi:insensitive="true">
    <rect
       style="opacity:1;fill:#a17d3c;fill-opacity:1;stroke:none;stroke-width:9.29975033;stroke-miterlimit:4;stroke-dasharray:none;stroke-opacity:1"
       id="rect11024"
       width="1133.8583"
       height="1133.8583"
       x="-29.065521"
       y="638.78503" />
    <rect
       style="opacity:1;fill:#a17d3c;fill-opacity:1;stroke:none;stroke-width:9.29975033;stroke-miterlimit:4;stroke-dasharray:none;stroke-opacity:1"
       id="rect11024-0"
       width="1133.8583"
       height="1133.8583"
       x="1104.7927"
       y="638.78503" />
    <rect
       style="opacity:1;fill:#a17d3c;fill-opacity:1;stroke:none;stroke-width:9.29975033;stroke-miterlimit:4;stroke-dasharray:none;stroke-opacity:1"
       id="rect11024-2"
       width="1133.8583"
       height="1133.8583"
       x="2238.6509"
       y="638.78503" />
    <rect
       style="opacity:1;fill:#a17d3c;fill-opacity:1;stroke:none;stroke-width:9.29975033;stroke-miterlimit:4;stroke-dasharray:none;stroke-opacity:1"
       id="rect11024-8"
       width="1133.8583"
       height="1133.8583"
       x="-29.065662"
       y="1772.6433" />
    <rect
       style="opacity:1;fill:#a17d3c;fill-opacity:1;stroke:none;stroke-width:9.29975033;stroke-miterlimit:4;stroke-dasharray:none;stroke-opacity:1"
       id="rect11024-7"
       width="1133.8583"
       height="1133.8583"
       x="1104.7926"
       y="1772.6433" />
    <rect
       style="opacity:1;fill:#a17d3c;fill-opacity:1;stroke:none;stroke-width:9.29975033;stroke-miterlimit:4;stroke-dasharray:none;stroke-opacity:1"
       id="rect11024-08"
       width="1133.8583"
       height="1133.8583"
       x="2238.6511"
       y="1772.6433" />
    <rect
       style="opacity:1;fill:#a17d3c;fill-opacity:1;stroke:none;stroke-width:9.29975033;stroke-miterlimit:4;stroke-dasharray:none;stroke-opacity:1"
       id="rect11024-2-4"
       width="1133.8583"
       height="1133.8583"
       x="3372.5093"
       y="638.78503" />
    <rect
       style="opacity:1;fill:#a17d3c;fill-opacity:1;stroke:none;stroke-width:9.29975033;stroke-miterlimit:4;stroke-dasharray:none;stroke-opacity:1"
       id="rect11024-2-6"
       width="1133.8583"
       height="1133.8583"
       x="3372.5093"
       y="1772.6433" />
  </g>
  <g
     inkscape:groupmode="layer"
     id="layer12"
     inkscape:label="Latitudes"
     transform="translate(0,-944.88189)"
     sodipodi:insensitive="true"
     style="display:none" />
  <g
     inkscape:groupmode="layer"
     id="layer8"
     inkscape:label="Asia"
     transform="translate(0,-944.88189)"
     style="display:inline">
    <path
       style="opacity:1;fill:#ce95cd;fill-opacity:1;stroke:#ff0000;stroke-width:1.10547972;stroke-miterlimit:4;stroke-dasharray:none;stroke-opacity:1"
       d=""
       id="path13928"
       inkscape:connector-curvature="0"
       transform="translate(-30,627.92913)" />
    <path
       style="opacity:1;fill:#ce95cd;fill-opacity:1;stroke:#ff0000;stroke-width:1.10547972;stroke-miterlimit:4;stroke-dasharray:none;stroke-opacity:1"
       d=""
       id="path13930"
       inkscape:connector-curvature="0"
       transform="translate(-30,627.92913)" />
    <path
       style="fill:#ff0509;fill-opacity:1;stroke:#000000;stroke-width:0.75590551;stroke-linejoin:bevel;stroke-miterlimit:4;stroke-dasharray:none;stroke-opacity:1"
       d="m 3416.5636,2038.4665 c -2.9123,-1.0186 -6.9623,-3.2697 -9,-5.0027 -14.2383,-12.1084 -24.4192,-17.1966 -35.8044,-17.8944 -6.8372,-0.419 -7.2341,-0.3167 -10.75,2.7702 -2.0078,1.763 -3.6506,4.0587 -3.6506,5.1017 0,1.0431 -0.9,2.7964 -2,3.8965 -2.1298,2.1298 -7.7001,2.5598 -15.4117,1.1897 -3.3308,-0.5918 -4.0859,-1.2127 -5.0855,-4.1815 -1.0868,-3.2277 -1.4442,-3.4632 -4.8168,-3.1726 -4.7388,0.4083 -6.5761,-1.5935 -13.686,-14.9106 -9.3267,-17.4692 -14.8287,-21.5178 -42.7338,-31.4449 -15.0716,-5.3618 -21.4412,-8.9841 -23.7924,-13.5309 -1.8534,-3.5841 -1.2846,-7.6401 1.1396,-8.1261 1.0552,-0.2116 -0.5368,-1.8774 -4.6092,-4.8232 -6.4767,-4.6847 -10.0042,-8.6969 -10.0042,-11.3787 0,-3.6364 14.1967,-7.1919 18.8254,-4.7147 1.1845,0.6339 4.4314,4.5281 7.2154,8.6539 5.4157,8.0257 10.9576,12.7596 17.0877,14.5962 5.5815,1.6723 11.8269,-1.0172 19.5545,-8.4211 7.4157,-7.105 7.1736,-7.1138 23.6644,0.8561 6.1339,2.9645 11.9146,5.3941 12.8459,5.3992 2.4539,0.015 4.8046,3.9056 4.8204,7.9816 0.011,1.9402 0.277,4.5104 0.5994,5.7118 0.5839,2.1774 0.598,2.1754 4.5048,-0.6547 7.3148,-5.2988 18.2781,-6.2518 27.5739,-2.3969 6.3013,2.6131 15.9521,10.0653 20.9074,16.1444 4.4211,5.4237 5.8847,8.0645 9.9403,17.9359 1.7345,4.2219 7.6402,11.8528 21.2386,27.4429 6.0194,6.901 7.2301,8.863 7,11.3441 -0.2649,2.8591 -0.5129,3.0113 -5.2781,3.2403 -2.8982,0.1395 -7.2258,-0.5381 -10.295,-1.6115 z m -376.705,-18.8177 c -19.2646,-2.5 -46.3859,-8.4358 -66.25,-14.4995 -8.2867,-2.5296 -10.25,-3.4914 -10.25,-5.0213 0,-5.3551 23.0821,-8.2395 45.7283,-5.7143 16.1715,1.8032 31.0624,7.4021 43.9011,16.5064 5.998,4.2534 7.9433,6.682 6.8148,8.5079 -0.5415,0.8762 -13.7653,1.0226 -19.9442,0.2207 z m -89.5542,-33.1403 c -10.0221,-6.378 -23.0082,-21.9967 -41.5458,-49.968 -21.9,-33.0449 -24.2278,-36.1412 -37.0796,-49.3203 -11.5482,-11.8422 -11.9343,-13.1215 -5.3225,-17.6324 8.7139,-5.9452 19.8514,0.2691 49.3443,27.5313 17.581,16.2515 24.4695,21.9694 30.494,25.3125 3.6126,2.0045 4.7353,3.4021 6.7267,8.3734 1.3147,3.2819 5.3079,10.7409 8.8737,16.5754 9.184,15.0274 12.5617,22.5515 12.5626,27.9848 0,5.829 -2.008,8.6024 -8.3809,11.5698 -6.6919,3.1159 -10.2586,3.0188 -15.6725,-0.4265 z m 159.7682,-5.9207 c -1.8286,-3.996 -2.2311,-6.997 -2.5355,-18.904 -0.3073,-12.0184 -0.038,-15.4133 1.7871,-22.5001 4.4251,-17.1849 7.3112,-20.8002 19.5344,-24.4708 7.5054,-2.2539 39.5315,-2.7346 41.6467,-0.6252 2.0312,2.0259 0.03,3.0749 -12.0232,6.3044 -10.8605,2.9098 -23.0575,7.3088 -29.4948,10.6377 -2.8599,1.4789 -2.952,1.6749 -1.1221,2.3892 1.0964,0.428 4.9941,0.8098 8.6616,0.8485 11.2442,0.1186 11.1571,-0.056 7.3318,14.6672 -3.0155,11.6059 -3.0954,14.8185 -0.5304,21.3258 3.1038,7.8744 0.6523,7.735 -9.9191,-0.5641 -3.0528,-2.3966 -5.8531,-4.3577 -6.2229,-4.358 -0.37,-4e-4 -1.2183,1.6868 -1.8854,3.7493 -2.8595,8.8412 -8.0813,16.2501 -11.453,16.2501 -0.939,0 -2.5009,-1.9652 -3.7752,-4.75 z m -66.2072,-12.8654 c -9.3343,-2.2564 -21.6855,-8.7298 -28.247,-14.8046 -12.4686,-11.5437 -15.5076,-25.1673 -9.4889,-42.5375 l 1.891,-5.4574 8.7043,-1.2566 c 6.3878,-0.9221 10.4913,-2.2024 15.419,-4.8105 9.5903,-5.076 20.5191,-14.5065 23.0494,-19.8895 2.0637,-4.3903 6.3203,-8.6286 8.6661,-8.6286 0.677,0 4.7719,-3.1619 9.0997,-7.0265 10.8736,-9.7098 14.7924,-12.3009 17.3677,-11.4836 3.4859,1.1064 12.629,10.7591 13.9326,14.7094 1.7919,5.4294 -0.3224,8.9246 -8.6638,14.3233 -0.1448,0.094 0.5201,1.927 1.4773,4.0739 1.4181,3.1804 1.7414,6.8676 1.7451,19.9035 0,15.7242 -0.053,16.1515 -3.3354,24.7872 -5.6496,14.8636 -17.9305,30.808 -28.7953,37.3849 -4.5532,2.7563 -13.2447,3.0277 -22.8218,0.7126 z m -110.1388,-60.3049 c -5.0839,-2.3085 -8.5126,-7.1249 -16.0263,-22.512 -5.6881,-11.6486 -7.8792,-20.4995 -5.4469,-22.0027 0.7003,-0.4329 -0.9402,-2.5818 -4.3503,-5.6984 -6.1765,-5.6449 -11.7443,-15.6166 -13.4569,-24.1004 -0.5847,-2.8964 -1.5124,-13.8162 -2.0617,-24.2663 -1.0009,-19.0434 -2.7011,-32.3558 -5.6833,-44.5 -2.9693,-12.0919 -7.3473,-18 -13.3385,-18 -3.3083,0 -6.4338,1.5001 -16.7846,8.0557 -1.9983,1.2656 -2.3987,1.2587 -3.2347,-0.056 -0.5248,-0.825 -0.9706,-3.525 -0.9906,-6 -0.055,-6.8368 -3.8299,-16.1542 -12.3554,-30.4988 -4.2491,-7.1494 -7.9892,-14.0492 -8.3114,-15.3329 -0.4151,-1.654 -1.1201,-2.1942 -2.4198,-1.8544 -2.2812,0.5966 -3.4384,-0.8256 -4.2815,-5.2616 -0.3601,-1.8962 -1.3291,-4.4762 -2.1527,-5.7331 -1.4713,-2.2457 -1.7445,-2.2766 -15.6868,-1.7759 l -14.1894,0.5094 -1.2029,2.8607 c -0.7718,1.8357 -4.9096,5.4579 -11.5485,10.1096 -22.3189,15.638 -33.8512,24.9202 -45.9025,36.9465 -23.2859,23.2376 -34.1595,43.9654 -38.5479,73.4824 -0.9034,6.0765 -2.2963,12.0973 -3.0954,13.3795 -1.9322,3.1008 -10.8246,7.1467 -15.7343,7.1588 -5.2186,0.011 -11.6227,-3.204 -15.9803,-8.0273 -4.0312,-4.4621 -10.1389,-16.1386 -13.86,-26.4974 -3.0494,-8.4888 -13.2859,-48.6706 -18.2061,-71.4655 -2.1082,-9.7668 -4.6751,-18.7444 -6.2904,-22 -2.4919,-5.0222 -3.048,-5.5266 -6.4021,-5.8058 -2.4516,-0.2041 -5.3754,0.5569 -8.792,2.2882 l -5.1189,2.5939 -2.708,-1.9468 c -7.3582,-5.2899 -10.1273,-10.5433 -10.1841,-19.3208 -0.023,-3.4956 -0.3528,-3.8668 -6.2257,-6.997 -3.411,-1.818 -8.4886,-5.6106 -11.2834,-8.4278 -9.1966,-9.2704 -10.9509,-9.7961 -34.0147,-10.1942 l -20,-0.3451 -3.0721,-2.9459 -3.072,-2.9459 -5.928,2.6343 c -7.6026,3.3784 -12.529,2.9856 -32.8843,-2.6224 -14.1076,-3.8867 -15.0298,-4.0201 -16.25,-2.3514 -1.7858,2.4422 -1.6205,3.3869 0.5924,3.3869 5.1563,0 22.6882,15.3433 25.6606,22.4573 2.0572,4.9237 1.846,18.7179 -0.3856,25.1745 -3.0179,8.7317 -8.2941,16.484 -17.6657,25.9559 -7.2152,7.2924 -10.5936,9.8773 -17,13.0067 -7.5471,3.6866 -8.5161,3.9056 -17.2841,3.9056 -8.672,0 -9.2789,0.1326 -9.1393,2 0.082,1.1 0.1,2.522 0.039,3.1601 -0.2417,2.5335 -35.5026,24.4162 -50.5314,31.3595 -13.6993,6.329 -21.7679,8.4226 -32.5793,8.4534 -10.2506,0.03 -13.695,-1.0994 -19.3416,-6.3372 -5.0077,-4.6451 -6.9246,-9.7358 -7.5821,-20.1358 -0.5931,-9.3818 -0.6638,-9.5934 -5.677,-17 -2.792,-4.125 -12.8661,-20.325 -22.3869,-36 -20.1907,-33.2418 -33.9417,-54.4862 -42.0729,-65 -7.5552,-9.7689 -8.3092,-11.8331 -6.9078,-18.9127 0.6083,-3.0731 1.2982,-6.2735 1.5331,-7.1121 0.2688,-0.9601 -0.8688,-2.2226 -3.0713,-3.4088 -9.8284,-5.2929 -14.5275,-20.2635 -9.4495,-30.105 1.1241,-2.1788 2.5051,-6.0696 3.0688,-8.6461 0.5637,-2.5766 1.6689,-5.2192 2.456,-5.8725 0.7872,-0.6532 1.4312,-2.1073 1.4312,-3.2313 0,-3.4482 10.0041,-22.9796 13.8616,-27.0626 l 3.6384,-3.851 -6,0.6567 c -23.6936,2.5933 -67.4118,2.1065 -77.0452,-0.8579 -10.8672,-3.3441 -18.113,-10.3135 -21.0189,-20.2171 -1.7666,-6.0208 -0.7812,-12.2626 3.0076,-19.0514 l 2.3284,-4.1719 -4.8874,-0.6722 c -10.5683,-1.4535 -10.889,-9.6029 -0.6743,-17.1391 2.4891,-1.8364 4.4591,-2.3449 9.0841,-2.3449 5.3344,0 6.2178,0.3144 9.1318,3.2499 1.7744,1.7875 3.6419,3.9758 4.15,4.8629 0.8426,1.4708 2.2889,1.4031 16.4239,-0.7686 19.6988,-3.0266 56.4042,-4.2086 75.579,-2.4339 12.4883,1.1559 38.9416,4.5318 44.7638,5.7128 2.8244,0.5728 2.8129,0.5398 -1.7625,-5.0775 -2.5329,-3.1098 -5.278,-6.6808 -6.1002,-7.9357 -0.8223,-1.2549 -3.5166,-3.7334 -5.9875,-5.5079 -5.094,-3.6582 -5.6494,-5.7117 -1.9275,-7.1268 6.1087,-2.3225 16.7646,-0.3598 27.522,5.0694 4.9911,2.5189 28.1098,7.9554 33.8305,7.9554 1.0476,0 2.9798,1.2778 4.294,2.8396 2.1406,2.544 3.2279,2.9095 10.446,3.5114 10.9967,0.9171 17.7268,3.098 22.2943,7.2245 6.4607,5.8368 6.0738,13.6203 -1.203,24.1989 l -3.5733,5.1947 2.9302,5.41 c 6.0341,11.1407 14.8955,11.9453 48.2991,4.3853 9.0758,-2.0541 13.2433,-3.3846 12,-3.8311 -1.0477,-0.376 -5.0816,-1.6384 -8.9642,-2.805 -8.0377,-2.4148 -12.1571,-5.9368 -13.4025,-11.459 -1.5957,-7.075 2.0686,-17.9172 6.8634,-20.3076 2.2251,-1.1093 2.1797,-1.1791 -1.5548,-2.3876 -7.1122,-2.3018 -11.4953,-4.9706 -11.1298,-6.777 0.2393,-1.183 -1.3327,-2.634 -5.1868,-4.7876 -7.8854,-4.4061 -11.5081,-9.8508 -11.4591,-17.2223 0.046,-6.962 2.3819,-11.7866 9.4493,-19.5195 5.967,-6.5289 7.0342,-5.7514 -11.2169,-8.1715 -21.1748,-2.8078 -22.4954,-8.3031 -26.8179,-14.3734 -4.257,-5.9784 -5.9245,-10.5835 -2.3689,-16.01 2.0421,-3.1167 7.6456,-9.8903 17.2838,-12.3553 17.1762,-4.393 29.8218,-1.0691 66.3137,2.9085 7.7,0.8393 21.9174,0.95 31.5943,1.2936 l 11.4461,-5.0944 8.4312,-9.5138 c 1.0064,-13.307 4.8394,-14.7601 19.852,-21.0532 23.5513,-9.8724 45.2186,-12.2795 66.9622,-11.7105 13.7588,0.3602 14.992,3.8592 22.689,7.5215 7.0505,3.3547 9.9212,1.4533 28.7742,4.1444 35.7263,5.0995 36.7199,3.2905 51.2216,17.9249 l 7.3213,12.8595 16.7285,2.2551 c 28.5564,4.4779 51.5898,4.048 54.9119,13.2351 1.1864,3.281 1.5906,3.574 4.208,3.0506 1.5925,-0.3187 5.7359,-0.5791 9.2076,-0.5791 h 6.3121 l -0.4849,-3.2501 c -1.1327,-7.5907 6.9649,-2.415 21.2736,-4.5005 6.4686,-0.9428 10.7874,-2.5155 20.6901,-1.1214 19.708,3.6967 42.365,13.5637 51.7834,-4.1703 6.7463,-2.2504 16.9281,-10.8355 22.9697,-14.5482 l 4.606,-2.0036 13.9849,2.1553 c 25.8313,18.7006 51.278,21.3031 74.5,23.394 14.5814,1.3128 24.3644,3.1084 45.5,0.053 7.975,-1.1527 19.0127,-2.2993 25.4541,-2.3628 10.0123,-0.099 11.2135,-3.7955 12.7424,-2.2673 1.7176,1.7169 3.3792,-2.1041 -2.1435,2.7418 -3.5683,3.131 -5.75,5.841 -5.75,7.1425 0,1.7586 0.5534,1.4506 3.4278,-1.9075 1.8854,-2.2026 22.5178,-7.2534 31.22,-13.2611 19.0054,-13.1208 14.7021,-20.3812 16.5213,-26.7304 1.6737,-5.8417 5.0486,-3.8218 9.8785,-5.2689 15.1658,-4.5438 20.7519,5.8691 34.3566,12.0145 31.851,32.5047 16.4245,8.5125 27.9745,20.1544 11.55,11.6418 23.3281,19.5944 25.8031,21.0057 9.1552,5.2204 17.6741,8.5247 29.7109,6.3068 6.2784,-1.1568 4.3309,0.8393 7.0149,2.4527 3.3877,2.0365 3.3049,0.9459 1.2397,4.8048 -2.0079,3.7518 -8.3864,9.8969 -17.8254,18.2306 -21.3024,18.8078 -21.4347,27.3624 -22.7661,34.5266 -1.2394,6.669 -7.6813,17.5157 -14.9584,25.1866 -6.0066,6.3315 -6.6994,7.4365 -5.3296,8.5 2.4944,1.9364 8.8402,10.7366 10.3529,14.3571 0.7586,1.8155 1.3793,6.6736 1.3793,10.7956 0,9.241 -2.7677,17.2707 -7.6282,22.1312 -4.5816,4.5816 -9.9235,4.7428 -16.6119,0.5011 -8.8372,-5.6043 -10.8761,-12.8964 -6.3067,-22.5553 1.4801,-3.1288 2.4521,-6.3118 2.1599,-7.0734 -0.2922,-0.7615 -2.5057,-1.8817 -4.9188,-2.4893 -8.3677,-2.107 -13.633,-9.892 -13.6723,-20.215 l -0.023,-5.7703 -3.75,1.8833 c -10.1965,5.1206 -22.0085,6.8255 -27.8424,4.0187 -2.469,-1.188 -2.9165,-1.9995 -2.9667,-5.3802 -0.054,-3.6686 -0.2929,-4.0045 -3.039,-4.2788 -4.0757,-0.407 -18.4079,6.8789 -23.9191,12.1595 -5.4717,5.2428 -6.6803,9.25 -3.5535,11.782 3.1364,2.5397 7.9098,3.6782 20.5707,4.9061 13.7629,1.3348 15.7352,2.0682 15.3156,5.6958 -0.2438,2.107 -2.0245,3.932 -7.8156,8.0094 -12.1321,8.542 -11.9985,8.3817 -12.0113,14.4192 -0.011,4.6368 1.0318,7.4671 8.0523,21.8811 8.8359,18.1412 9.9589,23.2086 6.5847,29.7123 -1.414,2.7253 -1.5059,3.9001 -0.5539,7.0777 3.4571,11.5387 -9.5472,36.002 -28.9421,54.445 -12.6335,12.0136 -24.6101,19.0648 -36.9406,21.7492 -2.579,0.5614 -8.9641,3.208 -14.1891,5.8813 -5.225,2.6733 -11.7201,5.6075 -14.4336,6.5203 -12.3236,4.1457 -27.4506,3.7982 -42.0451,-0.9659 -9.1779,-2.996 -8.8879,-2.9853 -8.1859,-0.3009 1.0669,4.08 -1.4606,11.882 -5.9949,18.505 -3.615,5.2803 -4.3388,7.0519 -3.829,9.3728 0.3458,1.574 4.7341,9.9687 9.752,18.6548 20.3514,35.2289 23.1737,43.2766 19.5256,55.6769 -1.5927,5.414 -10.3597,14.1352 -18.5391,18.4422 -3.4375,1.8101 -6.25,3.61 -6.25,3.9997 0,0.3897 -2.0599,3.0633 -4.5775,5.9413 -4.2,4.8013 -4.935,5.2328 -8.9111,5.2328 -3.5968,0 -4.767,-0.515 -6.8827,-3.0294 -3.4569,-4.1083 -4.2007,-8.8437 -2.2762,-14.4918 1.5609,-4.581 1.5602,-4.5858 -0.6438,-3.8863 -1.2138,0.3852 -5.1538,0.7274 -8.7557,0.7604 -5.0968,0.047 -7.3475,-0.4336 -10.1501,-2.1656 -3.6005,-2.2253 -6.8029,-7.9996 -6.8029,-12.2665 0,-1.1213 -0.42,-1.7792 -0.9333,-1.462 -0.5132,0.3171 -3.8131,-1.0062 -7.333,-2.941 -10.0296,-5.513 -14.0128,-4.5846 -16.7408,3.902 -1.9836,6.1706 -0.7497,23.3362 2.3793,33.1013 4.744,14.8051 11.7749,23.8255 24.4752,31.4009 8.9463,5.3361 13.4984,15.5778 13.5909,30.578 0.054,8.7304 -0.2275,10.4649 -2.2152,13.6616 -1.3153,2.1153 -3.5955,4.1212 -5.3992,4.75 -1.7173,0.5986 -3.1677,1.0786 -3.2231,1.0665 -0.056,-0.011 -1.9602,-0.8663 -4.2327,-1.8983 z m -228.4973,-44.7227 c -8.772,-5.5842 -12.7239,-22.6046 -6.7365,-29.0143 7.1976,-7.7056 16.4879,-6.8542 21.037,1.9279 1.6732,3.2302 2.2071,6.0555 2.2598,11.9593 0.069,7.7197 0.064,7.7351 -3.931,11.7285 -4.6912,4.6896 -8.8453,5.8074 -12.6293,3.3986 z m 462.6182,-1.4855 c -2.7439,-1.0434 -6.8792,-3.3539 -9.1895,-5.1343 -2.3103,-1.7805 -6.8973,-5.2623 -10.1934,-7.7373 -6.3566,-4.7732 -7.681,-7.7834 -3.856,-8.764 1.2375,-0.3175 5.625,-2.3745 9.75,-4.5717 17.0008,-9.0552 20.6183,-10.6582 24.0589,-10.6612 1.9573,0 4.3615,0.5839 5.3425,1.3012 3.7788,2.7632 4.2486,15.6738 0.998,27.4325 -1.1198,4.0511 -2.1199,5.5844 -4.4167,6.7722 -6.1835,3.1976 -7.3376,3.3235 -12.4938,1.3626 z m -25.9391,-78.4862 c -9.6937,-1.7498 -13.7427,-3.9311 -14.9773,-8.0687 -0.6036,-2.0231 -1.9956,-3.5811 -3.987,-4.4624 -6.0362,-2.6717 -9.9795,-14.1351 -7.638,-22.2038 1.751,-6.0335 7.4565,-14.2277 12.0004,-17.2347 5.083,-3.3637 10.3208,-3.5929 13.3255,-0.5829 1.9165,1.9199 2.1915,3.1472 1.9748,8.8115 -0.1383,3.6196 -0.926,9.1827 -1.75,12.3627 -2.7739,10.7047 -1.7162,13.694 8.8011,24.8742 4.7765,5.0776 4.9565,5.4585 3.1903,6.75 -1.0295,0.7528 -2.1234,1.3283 -2.4307,1.279 -0.3073,-0.05 -4.1365,-0.7355 -8.5091,-1.5249 z m 130.9502,-223.4313 c -14,-3.6082 -19.7461,-3.7045 -27.0959,-0.454 -7.3724,3.2604 -8.1879,3.169 -8.9709,-1.0045 -1.4507,-7.7329 3.896,-10.9732 24.5864,-14.9004 24.0146,-4.5582 28.5454,-6.9331 29.7038,-15.5699 0.6654,-4.9608 2.0808,-5.74 7.2989,-4.0179 7.8521,2.5914 13.3406,-2.3198 26.4777,-23.6926 9.7816,-15.9137 12.9046,-19.2389 16.3415,-17.3996 2.4024,1.2857 4.9164,8.7198 5.8188,17.2062 1.3308,12.5153 -5.8922,31.6146 -16.1434,42.6871 -7.58,8.1872 -18.2886,13.6021 -30.7429,15.5454 -4.7994,0.7488 -9.2994,1.8135 -10,2.3659 -2.716,2.1414 -6.6752,1.9659 -17.274,-0.7657 z m 54.4307,-78.5375 c -1.8449,-2.223 -0.4287,-13.6491 2.479,-20.0002 3.1208,-6.8168 11.0401,-14.7867 17.8373,-17.9512 10.0557,-4.6816 22.5096,-2.584 28.0891,4.7311 4.1296,5.4141 6.9179,12.4606 5.7754,14.5954 -2.4375,4.5545 -17.0955,9.1365 -29.3936,9.1882 -5.8069,0.023 -10.4279,1.8521 -16.0075,6.331 -5.3095,4.2621 -7.2502,4.9486 -8.7797,3.1057 z"
       id="path19527"
       inkscape:connector-curvature="0"
       sodipodi:nodetypes="ccccscccccccccscccccccccscccccccssccccccccccccccccccccccccccccccscsccccccsscccccscscccscccsccccccccccccscccccccccccccccccccccsccccscccccccscccccccscccccccccsccccccccccscccccsccccscccccscccscccsccccccccsccsccccccccccsccccccccsccccccsscccccccccccccccccccccsccccccccscscscccscccccccccccccccccccccccccccccccccccccccccccccscscccccccccccc" />
  </g>
  <g
     inkscape:groupmode="layer"
     id="layer6"
     inkscape:label="Africa"
     transform="translate(0,-944.88189)"
     style="display:inline">
    <path
       style="fill:#fffe09;fill-opacity:1;stroke:#000000;stroke-width:0.75590551;stroke-linejoin:bevel;stroke-miterlimit:4;stroke-dasharray:none;stroke-opacity:1"
       d="m 2060.1329,2302.5803 c -6.2197,-3.1836 -7.6424,-6.5282 -8.5014,-19.9855 -0.8644,-13.5427 -2.011,-16.7897 -8.9406,-25.3204 -5.9106,-7.2762 -8.6995,-14.861 -7.0549,-19.1868 1.3654,-3.5911 1.3702,-3.577 -1.2205,-3.5813 -9.5586,-0.015 -17.0288,-16.5239 -18.4085,-40.68 -0.4857,-8.5037 -0.9812,-11.3163 -1.9939,-11.3163 -1.5538,0 -1.8431,-5.6684 -0.4053,-7.9408 1.1859,-1.8744 0.01,-4.0788 -11.1537,-20.8888 -14.0614,-21.1752 -17.7613,-30.5272 -14.5228,-36.708 1.3847,-2.643 1.3403,-2.9611 -0.6387,-4.5675 -1.796,-1.4579 -2.1061,-2.7126 -1.9923,-8.0607 0.1754,-8.2356 4.4226,-20.1585 13.5216,-37.957 l 6.9643,-13.6229 -1.4895,-5.8772 c -0.8191,-3.2324 -2.1851,-12.0303 -3.0354,-19.5508 -1.5994,-14.1458 -3.6655,-21.3111 -8.0601,-27.9517 -1.4065,-2.1253 -2.6529,-5.0199 -2.7697,-6.4323 -0.1168,-1.4124 -0.7871,-3.0448 -1.4893,-3.6276 -0.7022,-0.5828 -1.2767,-2.66 -1.2767,-4.6161 0,-2.7873 -0.757,-4.2499 -3.5,-6.7624 -2.1277,-1.9489 -3.5,-4.1421 -3.5,-5.5936 0,-1.6999 -1.0011,-2.9269 -3.4749,-4.2591 -5.1806,-2.79 -16.2807,-14.7767 -18.6558,-20.146 -2.3801,-5.3808 -2.0981,-9.405 1.1983,-17.0951 1.1397,-2.6588 2.1975,-6.2312 2.3507,-7.9385 0.1531,-1.7074 0.5668,-3.5707 0.9191,-4.1408 0.3523,-0.57 -0.03,-1.5925 -0.8484,-2.2722 -2.4132,-2.0027 -1.7286,-4.5732 2.1169,-7.9496 l 3.6058,-3.166 -2.0654,-4.1876 c -1.1361,-2.3032 -2.992,-7.4346 -4.1242,-11.4032 -1.1323,-3.9685 -3.063,-8.3568 -4.2904,-9.7517 l -2.2317,-2.5361 -5.2812,2.6445 c -6.7563,3.3832 -13.9651,3.5492 -20.0183,0.4611 -2.3539,-1.2009 -7.9092,-5.4277 -12.345,-9.3928 -4.4358,-3.9652 -9.7054,-8.4006 -11.7103,-9.8565 -4.2284,-3.0705 -13.1452,-4.7262 -13.1452,-2.4408 0,3.0831 -6.6786,2.7054 -9.6193,-0.544 -1.7031,-1.882 -1.798,-1.857 -4.6003,1.2112 -1.9518,2.1369 -3.4856,2.9695 -4.825,2.6192 -1.4571,-0.381 -2.1189,0.1047 -2.5653,1.8832 -1.0243,4.0814 -6.6665,8.1298 -13.0772,9.3832 -3.1971,0.6251 -7.9847,1.5638 -10.6392,2.0858 -7.0392,1.3845 -10.9134,1.1701 -13.6635,-0.7562 -6.0126,-4.2114 -26.028,-2.1979 -41.8164,4.2066 -6.9184,2.8064 -8.402,3.1199 -8.879,1.8766 -0.3153,-0.821 -1.2022,-1.2512 -1.9715,-0.956 -0.7692,0.2952 -7.5724,-3.1664 -15.1181,-7.6925 -13.4273,-8.054 -21.2252,-14.3429 -21.2252,-17.118 0,-0.8007 -1.5127,-1.6725 -3.5728,-2.059 -2.3888,-0.4481 -5.6201,-2.5518 -9.75,-6.3477 -5.9129,-5.4345 -6.1833,-5.892 -6.321,-10.691 -0.079,-2.7574 0.3137,-5.5761 0.8725,-6.2636 0.7491,-0.9214 0.4946,-1.25 -0.9684,-1.25 -2.6109,0 -18.2603,-16.2632 -18.2603,-18.9765 0,-1.5147 -0.6565,-2.0235 -2.6113,-2.0235 -2.4427,0 -2.5689,-0.226 -1.9547,-3.4999 l 0.6567,-3.5 h -4.4896 c -5.6167,0 -10.8712,-3.7647 -8.7769,-6.2883 0.9603,-1.157 0.9758,-1.6117 0.065,-1.9153 -0.6569,-0.2189 -1.2595,-1.2831 -1.3391,-2.3648 -0.08,-1.0818 -0.4999,-2.5412 -0.9338,-3.2432 -0.4499,-0.7279 -0.1191,-2.2988 0.7702,-3.6558 1.4755,-2.2518 1.4014,-2.548 -1.382,-5.5276 -3.239,-3.4674 -4.5522,-8.2357 -3.5387,-12.8498 0.963,-4.3849 5.9095,-11.289 10.1129,-14.1156 l 3.659,-2.4604 -2.619,-0.8729 c -3.0532,-1.0178 -3.1051,-1.2984 -1.1189,-6.0521 2.4976,-5.9774 1.8673,-13.0846 -2.142,-24.1543 -1.992,-5.4999 -3.8422,-11.7999 -4.1115,-13.9999 -0.2691,-2.2001 -0.9866,-4.3144 -1.594,-4.6987 -0.7516,-0.4755 -0.3821,-1.9128 1.1569,-4.5 1.2437,-2.0907 5.6731,-10.5513 9.8431,-18.8014 4.1701,-8.25 9.3424,-18.026 11.4941,-21.7246 4.6689,-8.0256 13.3175,-17.6332 18.2775,-20.3044 3.7472,-2.018 4.6162,-3.471 2.076,-3.471 -2.5969,0 -1.6271,-1.9371 1.25,-2.4968 17.583,-3.4206 22.3419,-8.1786 29.136,-29.1309 7.0531,-21.751 10.1564,-26.2921 22.6139,-33.0915 5.912,-3.2267 7.9327,-5.0855 13.0001,-11.9585 8.8386,-11.9882 13.514,-13.8973 21.1104,-8.6202 3.5393,2.4587 4.6099,2.6796 11.8896,2.4532 6.1512,-0.1914 8.8147,0.1728 11.5255,1.5757 l 3.5256,1.8246 2.19,-2.6444 c 7.929,-9.5741 56.4622,-19.6483 90.3982,-18.7643 9.1863,0.2393 14.0602,0.7718 15.1195,1.6517 1.1588,0.9627 1.7473,1.0004 2.2755,0.1459 0.3918,-0.634 2.5694,-1.9959 4.839,-3.0266 11.065,-5.0246 23.8498,1.266 20.7347,10.2021 -0.5782,1.6586 -0.7834,4.9697 -0.456,7.3582 0.4986,3.6376 0.088,5.279 -2.5284,10.1098 -4.7932,8.8497 -4.7197,9.0091 6.1263,13.285 1.5126,0.5963 2.7501,1.6563 2.7501,2.3556 0,0.9458 2.6252,1.2718 10.25,1.2729 9.6969,0 10.6546,0.1948 17.7499,3.5854 4.125,1.9712 12.6098,6.7935 18.8552,10.7161 15.9177,9.9978 24.7539,13.0826 33.6515,11.7483 2.8453,-0.4266 4.4933,-1.1834 4.4933,-2.0633 0,-4.6695 2.5465,-12.0407 5.206,-15.0697 4.0374,-4.5984 11.8101,-6.8977 20.3571,-6.022 10.3706,1.0625 22.2432,5.8608 28.8458,11.6579 2.9671,2.6051 3.7435,2.8676 5.4077,1.8284 1.5689,-0.9798 3.1699,-0.8515 8.3133,0.6661 5.519,1.6285 10.5791,1.9218 37.8702,2.195 17.3249,0.1734 33.0749,0.4056 34.9999,0.5161 1.925,0.1104 5.2019,-0.1508 7.2819,-0.5807 l 3.7818,-0.7816 2.5677,5.6085 c 3.837,8.3813 5.0542,17.0396 3.0575,21.7504 -2.4672,5.821 -9.0693,7.1562 -15.4389,3.1225 -1.2375,-0.7837 -2.25,-1.1652 -2.25,-0.8477 0,1.2744 24.6531,47.5876 30.1321,56.6061 6.3467,10.4466 6.98,12.9705 3.8116,15.1897 -2.0174,1.413 -1.9934,1.4792 1.2671,3.4943 5.5389,3.4232 7.7341,6.5217 9.7502,13.7618 1.0594,3.8043 3.3015,10.2413 4.9826,14.3045 1.681,4.0631 3.0565,8.127 3.0565,9.0308 0,0.9092 1.3464,2.1514 3.0144,2.781 3.0491,1.1509 3.3752,1.7189 11.2704,19.6258 1.1701,2.6538 3.0471,5.3149 4.1713,5.9135 2.3637,1.2585 21.4473,16.5634 26.3791,21.1557 1.8345,1.7081 4.033,4.4557 4.8855,6.1057 0.8526,1.65 2.1642,3.3598 2.9147,3.7997 1.7829,1.0449 1.7368,3.8258 -0.1035,6.2592 -2.1435,2.8338 -1.8572,4.3213 0.9682,5.0304 1.6994,0.4266 2.5,1.3178 2.5,2.7831 0,3.8719 6.8471,6.1101 18.5,6.0473 8.7451,-0.047 12.5021,-0.7095 29.9382,-5.2782 16.1627,-4.2351 21.1808,-5.1692 26.5,-4.933 l 6.5618,0.2914 -0.3137,5.0001 c -0.5505,8.7791 -5.9717,22.3572 -18.9065,47.3536 -17.1343,33.1119 -19.0775,35.4644 -47.5751,57.5934 -15.5528,12.0771 -25.9677,22.7309 -30.4012,31.0986 -2.3266,4.3914 -4.1556,6.4902 -6.7225,7.7142 -3.9398,1.8788 -8.3284,7.4033 -12.6678,15.9468 -3.3169,6.5306 -8.4654,12.7933 -10.517,12.7933 -1.7488,0 -1.7324,0.4611 0.2139,6.0001 0.902,2.5669 2.1531,12.07 2.9124,22.1217 1.4326,18.9665 2.5907,24.9359 5.5736,28.728 1.047,1.331 1.9036,3.3069 1.9036,4.3908 0,1.0839 1.092,3.2686 2.4267,4.8548 3.3354,3.9638 3.999,10.6652 3.2351,32.6687 -0.5171,14.896 -0.9536,18.7517 -2.3669,20.9086 -2.9649,4.5251 -13.6279,12.584 -26.2677,19.8528 -14.7403,8.4767 -23.7144,15.1334 -26.9702,20.0057 -3.8059,5.6955 -3.9837,13.5175 -0.5026,22.1097 6.9389,17.1268 1.3103,31.3941 -17.1235,43.4042 -5.784,3.7684 -6.4309,4.5252 -6.4309,7.5237 0,9.2716 -4.6734,19.3532 -16.8877,36.4313 -16.414,22.9501 -34.5123,39.1 -52.1122,46.502 -5.774,2.4284 -7.9517,2.7648 -19.5,3.0125 -8.6642,0.186 -17.6695,1.1453 -27.0001,2.8766 -20.7943,3.8585 -28.0538,4.2275 -33.0326,1.6791 z m 271.0518,-98.6683 c -8.4483,-3.0923 -13.2093,-10.5873 -12.2321,-19.2564 0.3473,-3.0799 0.011,-5.599 -1.0045,-7.566 -2.5011,-4.8365 -1.2636,-14.5318 3.1294,-24.5193 7.0658,-16.0638 7.6792,-23.9103 2.4442,-31.2622 -1.9774,-2.777 -1.9913,-2.9912 -0.3145,-4.8442 0.965,-1.0663 2.1229,-4.2688 2.5731,-7.1167 0.9315,-5.8928 1.4764,-6.4049 7.8006,-7.3311 5.9955,-0.878 11.9347,-3.5321 20.8216,-9.3049 6.1428,-3.9903 7.2391,-5.1269 7.25,-7.5169 0.019,-3.818 1.4339,-6.2724 7.1256,-12.348 2.6606,-2.8401 5.611,-6.786 6.5565,-8.7687 0.9455,-1.9826 2.1942,-3.4486 2.7749,-3.2577 2.3308,0.7663 7.4907,8.9755 9.6725,15.3884 3.1168,9.161 3.311,20.7775 0.3835,22.9282 -1.1,0.8081 -2.7243,1.2814 -3.6096,1.0518 -1.3533,-0.3511 -1.7102,0.9545 -2.2423,8.2021 -0.8625,11.7473 -3.273,21.1265 -13.1176,51.0401 -4.6301,14.0688 -8.9104,27.7837 -9.5119,30.4778 -1.5009,6.7227 -4.4091,10.4092 -10.4192,13.2077 -5.8312,2.7152 -12.0848,2.9905 -18.0803,0.796 z"
       id="path18375"
       inkscape:connector-curvature="0" />
  </g>
  <g
     inkscape:groupmode="layer"
     id="layer4"
     inkscape:label="NAmerica"
     transform="translate(0,-944.88189)"
     style="display:inline">
    <path
       style="fill:#21e9f0;fill-opacity:1;stroke:#000000;stroke-width:0.75590551;stroke-linejoin:bevel;stroke-miterlimit:4;stroke-dasharray:none;stroke-opacity:1"
       d="m 1012.3518,1846.6065 c -2.7456,-1.4517 -5.8491,-3.2303 -6.8966,-3.9525 -1.3253,-0.9136 -2.459,-1.0163 -3.7271,-0.3375 -1.3553,0.7253 -2.27994,0.518 -3.60694,-0.809 -0.9814,-0.9815 -2.5431,-1.6383 -3.4704,-1.4597 -1.096,0.2109 -2.6197,-1.185 -4.3535,-3.9886 -3.2032,-5.1795 -4.9132,-6.666 -13.6438,-11.8604 -7.6477,-4.5501 -10.1597,-7.4003 -8.7854,-9.9682 0.7393,-1.3814 -0.1232,-2.42 -4.5308,-5.4556 -6.573,-4.527 -12.1967,-10.5619 -13.0646,-14.0198 -0.6227,-2.4812 -0.3827,-4.2047 1.0807,-7.7592 0.918,-2.23 -1.3102,-2.2932 -9.1209,-0.2589 -7.2368,1.885 -12.4213,0.7148 -15.5435,-3.5083 -1.6121,-2.1804 -2.5017,-2.6696 -3.4394,-1.8913 -1.7098,1.419 -9.8278,0.212 -15.0604,-2.2393 -2.8318,-1.3266 -4.7601,-3.1453 -6.007,-5.6653 -1.2692,-2.5654 -2.3875,-3.6055 -3.6211,-3.3679 -0.9817,0.189 -6.6036,-2.7919 -12.49307,-6.6243 -16.73904,-10.8923 -22.7881,-12.1365 -29.66238,-6.1008 l -3.30557,2.9023 -5.44078,-2.4062 c -2.99244,-1.3234 -13.73401,-5.3514 -23.87014,-8.9513 -23.79847,-8.4518 -31.95579,-11.8421 -39.92936,-16.595 -14.2619,-8.5012 -19.60423,-15.4002 -21.09037,-27.2359 -1.80337,-14.3623 -8.91549,-25.1 -29.27947,-44.2054 -6.78838,-6.3689 -13.5376,-13.2723 -14.99829,-15.3411 -1.46068,-2.0687 -4.11291,-4.846 -5.89385,-6.1717 -5.16352,-3.8436 -10.68867,-11.0055 -18.70907,-24.2512 -4.10906,-6.7861 -9.95906,-14.8939 -13,-18.0173 -8.24536,-8.4689 -14.65742,-9.1036 -14.41406,-1.4269 0.14298,4.5105 4.13569,10.6567 16.37644,25.2093 5.04102,5.9931 10.31341,13.1465 11.71642,15.8965 1.40301,2.75 6.76948,11.4383 11.92548,19.3072 13.50181,20.6062 14.61342,23.1928 9.96714,23.1928 -3.71066,0 -12.15242,-6.9968 -16.43371,-13.6208 -3.47951,-5.3835 -11.206,-13.3812 -28.54502,-29.5469 l -5.87831,-5.4806 1.2888,-3.5641 c 1.18248,-3.2701 1.07764,-3.9241 -1.2706,-7.9259 -1.40768,-2.3989 -6.65557,-9.3117 -11.66197,-15.3617 -10.99191,-13.2832 -13.88833,-18.5721 -12.37154,-22.5905 1.03202,-2.7341 0.87889,-2.8987 -7.83488,-8.4227 -19.75379,-12.5228 -37.3093,-28.2535 -49.08912,-43.9868 -14.92243,-19.9306 -25.37959,-51.685 -20.27273,-61.5606 2.61261,-5.0522 2.90948,-14.5273 1.00918,-32.2097 -0.93137,-8.6664 -1.38392,-17.2134 -1.00566,-18.9934 -0.39268,-4.3076 1.59957,-7.1768 -0.0669,-10.2935 -11.06655,-3.7455 -26.9882,-13.0815 -32.81035,-19.239 -5.30214,-5.6077 -1.71828,-8.7755 6.6876,-5.9114 l 4.24157,1.4453 -7.08661,-7.1189 c -3.89764,-3.9154 -9.88283,-10.6032 -13.30042,-14.8619 -3.41759,-4.2586 -9.55234,-10.483 -13.63276,-13.832 -6.20809,-5.0953 -7.52268,-6.7032 -8.05454,-9.8512 -0.51929,-3.0737 -1.30507,-4.0813 -4.29386,-5.5066 -5.87255,-2.8004 -22.56629,-16.41 -43.80259,-35.7099 -1.97351,-1.7936 -2.2907,-1.8076 -5.98388,-0.2646 -2.92323,1.2214 -6.03261,1.5221 -12.41602,1.2005 -7.28773,-0.367 -11.56711,-1.464 -29.66795,-7.6043 -26.17392,-8.8788 -33.00447,-10.3847 -45.43271,-10.0166 -9.29136,0.2751 -9.689,0.1958 -13,-2.5958 -10.08385,-8.5019 -19.63616,-7.592 -35.91547,3.4211 -12.59958,8.5238 -19.79097,10.4996 -27.49987,7.5555 -17.20161,-7.5783 -1.76881,-4.0655 -8.99928,-10.4367 -8.12635,3.9434 -7.39174,3.1677 -11.46569,10.4973 -6.81321,11.9269 -26.57648,25.2298 -49.49824,33.3178 -10.57907,3.7328 -16.84825,3.8912 -17.34081,0.4379 -0.25047,-1.756 0.89211,-2.6889 6.5,-5.3073 7.81771,-3.6503 13.3039,-8.4624 13.3039,-11.6694 0,-1.2318 -1.32722,-3.3317 -2.99,-4.7309 -5.21933,-4.3917 -16.35149,-5.584 -28.72746,-3.0767 -2.80013,0.5673 -3.37133,0.3141 -4.40379,-1.9519 -1.55206,-3.4064 -6.83076,-5.8462 -20.86641,-9.6446 -14.03351,-3.7978 -17.69017,-6.5213 -13.46423,-10.0286 1.34314,-1.1147 1.07954,-1.4459 -1.99092,-2.5015 -10.82299,-3.7207 -12.59209,-10.2853 -4.81986,-17.885 5.1863,-5.0711 14.22729,-9.1682 23.92114,-10.8403 5.92146,-1.0214 9.57874,-2.3187 13.33824,-4.7311 7.5002,-4.8129 5.42488,-5.4419 -15.42675,-4.6759 -24.06108,0.8838 -33.56997,-0.8872 -33.56997,-6.2524 0,-1.1836 -1.62027,-1.9241 -6.05298,-2.7665 -3.32913,-0.6327 -6.72585,-1.7088 -7.54825,-2.3913 -7.89316,-6.5508 17.70089,-13.6526 39.93374,-11.0808 10.94914,1.2666 21.67006,1.3828 25.63381,0.2778 2.16729,-0.6041 1.70333,-0.9656 -3.82656,-2.9819 -3.46109,-1.262 -15.05456,-4.9039 -25.76326,-8.0932 -10.70871,-3.1892 -19.74735,-6.0756 -20.08588,-6.4141 -1.37716,-1.3772 1.92543,-5.7168 6.91099,-9.081 10.84524,-7.3184 32.39941,-14.2913 71.43791,-23.1106 l 20.6751,-4.6707 8.604,2.1101 c 13.49204,3.3088 27.34344,4.8899 58.08138,6.6296 15.67501,0.8871 31.37442,2.0121 34.88758,2.4999 4.86858,0.676 7.83213,0.5168 12.46216,-0.6694 9.23583,-2.3661 21.75752,-1.4926 28.93372,2.0184 16.04932,7.5749 7.7412,10.5777 22.27977,8.4198 0.30977,-0.3099 3.34728,0.1588 6.75,1.0411 4.62999,1.2006 11.09356,1.6105 25.68678,1.629 19.00649,0.023 20.15802,-0.096 45.5,-4.7306 34.47503,-6.3054 32.17358,-6.0026 32.81999,-4.3181 0.46933,1.2231 1.47399,1.1517 6.70512,-0.4764 10.49873,-3.2676 22.9598,-2.6575 45.97489,2.251 17.94215,3.8266 20.81818,4.1734 36,4.3403 9.075,0.1 18.55009,0.684 21.05575,1.2982 2.50567,0.6143 13.75567,2.0197 25,3.1231 27.16906,2.6662 31.33262,4.0183 28.13589,9.1371 -1.33205,2.1329 -4.5362,1.684 41.30836,5.7875 30.91632,2.7673 32.06813,2.803 34.01247,1.0549 1.10684,-0.9952 4.25685,-2.8439 6.99999,-4.1083 4.56382,-2.1036 6.34681,-2.2946 20.98757,-2.2484 11.67628,0.038 20.0535,0.6865 31,2.4038 17.4325,2.735 34.37091,3.2329 39.29627,1.1552 4.04958,-1.7082 3.88445,-4.1764 -0.353,-5.2744 -4.31936,-1.1193 -7.67233,-4.9852 -7.26985,-8.382 0.87738,-7.4046 12.20349,-9.1374 23.90283,-3.657 7.50433,3.5153 9.21245,5.1499 8.7504,8.3738 -0.45067,3.1446 -4.23542,4.7823 -11.32675,4.9013 l -6,0.1006 6.99998,3.3619 c 8.26897,3.9713 14.41951,5.1646 18.26378,3.5436 1.50493,-0.6346 4.19036,-3.4256 5.96761,-6.2022 3.1381,-4.9027 3.18141,-5.1171 1.49998,-7.4304 -0.95226,-1.3101 -2.40635,-2.4005 -3.23135,-2.4232 -3.23104,-0.089 -11.67813,-4.891 -14.74284,-8.3815 -5.82319,-6.6322 -5.64745,-13.7147 0.45581,-18.3711 3.28411,-2.5055 4.41041,-2.769 11.83461,-2.769 h 8.20505 l 9.87371,9.04 c 14.0654,12.8777 18.1466,15.9909 25.4347,19.4014 7.2839,3.4085 14.6712,5.0586 22.6474,5.0586 h 5.4354 l -0.6049,5.25 c -0.7515,6.5223 0.265,8.1803 4.9336,8.0479 5.5149,-0.1565 14.3934,-5.0375 20.82,-11.4465 5.5326,-5.5173 5.7794,-5.9791 5.5,-10.2895 l -0.2925,-4.5129 -4.5,-0.612 c -13.9482,-1.897 -26.885,-6.1836 -30.0041,-9.942 -0.7536,-0.9081 -3.5194,-2.7401 -6.1462,-4.0712 -7.704,-3.9039 -11.8497,-8.073 -11.8497,-11.9166 0,-1.8071 0.7875,-4.2228 1.75,-5.3682 2.4376,-2.9008 16.8064,-9.8505 23.2023,-11.2222 9.41,-2.0181 20.0477,0.6442 20.0477,5.0173 0,2.042 -4.7478,6.5337 -7.996,7.5646 -1.9223,0.6101 -1.8793,0.8222 1.022,5.0391 2.9775,4.3276 7.8589,8.6 11.1412,9.7511 2.2015,0.7721 2.9478,-1.4012 1.8252,-5.3153 -1.5658,-5.4598 0.3247,-12.0305 4.5026,-15.6494 4.0317,-3.4922 8.8236,-4.7289 17.6088,-4.5447 6.92844,0.1451 13.74564,2.6731 23.34494,8.656 15.8597,9.8849 21.991,10.686 34.2327,4.4724 l 6.2988,-3.1971 5.9846,3.1897 c 9.253,4.9318 15.7689,6.8396 39.7658,11.6428 22.211,4.4457 33.1604,7.8431 37.0971,11.5108 1.5422,1.4367 3.5217,1.9459 7.5654,1.9459 3.0122,0 6.631,0.4388 8.0418,0.9752 2.8091,1.0681 3.4319,3.7549 1.0796,4.6576 -1.2083,0.4636 -1.0852,0.8942 0.6591,2.3066 2.8495,2.3074 1.8533,3.5669 -4.4354,5.607 -2.881,0.9347 -5.6357,2.0641 -6.1215,2.5098 -0.4858,0.4457 1.7642,1.5297 5,2.4089 3.2358,0.8792 9.7083,2.6897 14.3833,4.0232 4.675,1.3336 13.9,3.8438 20.5,5.5783 14.4559,3.7992 18.9737,5.4771 23.25,8.6351 6.0807,4.4905 3.3712,11.0471 -7.4171,17.9483 -6.3016,4.0311 -7.2829,4.1019 -10.4086,0.751 -6.102,-6.5416 -19.7634,-10.8625 -33.2057,-10.5023 -7.9367,0.2127 -5.1305,5.5315 6.2814,11.9058 3.575,1.9969 9.2383,5.5407 12.5851,7.8751 3.3469,2.3345 7.2844,4.7004 8.75,5.2577 3.3941,1.2904 3.3793,2.61 -0.048,4.2581 -1.4919,0.7175 -3.7831,2.8795 -5.0914,4.8046 -1.3083,1.925 -2.9001,3.4082 -3.5373,3.296 -0.6372,-0.1122 -5.4336,-1.7368 -10.6586,-3.6103 -10.7076,-3.8393 -17.5595,-5.4001 -16.5523,-3.7704 0.3545,0.5736 3.4363,2.6675 6.8484,4.6531 3.4122,1.9856 7.4414,4.7791 8.9539,6.2079 6.2827,5.9351 1.7675,7.3209 -12.3806,3.8 -27.7912,-6.916 -33.2022,-8.6061 -34.7468,-10.8526 -7.3299,-10.6611 -16.8397,-13.6788 -43.1945,-13.7064 -12.3115,-0.011 -17.742,-0.416 -21.1235,-1.5682 -4.845,-1.6509 -9.6566,-5.8045 -7.9476,-6.8608 0.5541,-0.3424 5.647,-1.0647 11.3176,-1.605 21.6273,-2.0606 33.3851,-8.1246 38.7468,-19.9833 3.5244,-7.7949 2.9609,-9.7316 -4.6903,-16.1214 -13.4168,-11.2049 -20.7238,-14.2431 -24.6976,-10.2693 -1.9806,1.9806 -2.6835,1.8156 -19.0335,-4.4681 -7.15,-2.7479 -14.35,-5.2736 -16,-5.6128 l -3,-0.6167 2.25,1.6661 c 2.629,1.9467 2.9077,3.9558 0.6682,4.8152 -0.87,0.3337 -9.9825,0.6169 -20.25,0.629 l -18.66824,0.023 4.07864,1.8523 c 7.1515,3.2481 10.24,9.2343 7.0296,13.6249 -1.2252,1.6755 -1.1055,2.3248 1,5.4232 2.9863,4.3948 3.1035,9.1006 0.2899,11.6506 -1.7769,1.6106 -4.0006,1.9559 -14.38584,2.2341 -10.8918,0.2918 -12.2344,0.5185 -11.8476,2.0001 0.3808,1.458 -0.6207,1.6797 -7.8643,1.7406 -6.9375,0.058 -10.2134,0.7218 -19.9489,4.04 l -11.6484,3.9703 2.8983,1.6635 c 7.5446,4.3299 1.8517,7.0195 -23.1016,10.9143 -23.1912,3.6198 -23.4586,3.6985 -18.4319,5.4266 3.4307,1.1794 6.4394,3.6865 6.4282,5.3566 -0.015,2.5404 -5.8441,8.403 -16.8175,16.9202 -14.19648,11.0187 -18.85841,15.9143 -19.76709,20.7578 -0.86989,4.6369 1.73639,7.8398 9.4475,11.6101 3.65246,1.7859 8.78699,5.3772 11.41019,7.9807 8.9434,8.8763 21.0973,13.2289 51.2306,18.3469 38.5738,6.5516 49.1279,12.2253 58.24404,31.3113 5.2035,10.8942 10.0089,16.6769 16.1084,19.3842 14.0492,6.2359 25.0851,-11.5628 17.0278,-27.4625 -1.0339,-2.0406 -1.88,-4.1379 -1.88,-4.6608 0,-0.5229 2.1375,-1.9763 4.75,-3.2299 6.6548,-3.1933 16.7383,-13.4592 18.2825,-18.6131 2.3911,-7.9807 -0.9025,-14.7814 -9.6379,-19.9007 -2.417,-1.4165 -4.3946,-2.9259 -4.3946,-3.3544 0,-0.4285 1.1782,-2.887 2.6181,-5.4633 2.3035,-4.1214 2.694,-6.2149 3.25,-17.4231 0.7277,-14.6687 1.8624,-17.4203 7.8725,-19.0893 5.3302,-1.4803 5.6167,-1.4499 27.6983,2.9413 23.5365,4.6805 33.2993,7.742 41.415,12.9874 8.4003,5.4294 11.6377,11.1265 11.6425,20.4884 v 6.9723 l 4.5,0.7752 c 6.4742,1.1152 13.4483,-0.4815 26.8029,-6.1364 17.7116,-7.4997 22.513,-8.0877 30.8326,-3.7756 7.2726,3.7693 16.6661,18.2257 17.8658,27.4952 0.3341,2.5833 0.8126,5.6919 1.0625,6.9078 0.6926,3.3675 12.3332,9.6655 23.7753,12.8631 5.4113,1.5122 10.8113,3.5754 12,4.5847 l 2.1609,1.8352 -0.3435,1.998 -0.2173,1.493 0.2551,1.5303 c 7.3956,0.023 12.6166,3.0944 15.6484,9.2056 4.505,9.0807 0.2124,18.1641 -11.251,23.8075 -6.3088,3.1058 -7.2304,3.2603 -27.1973,4.5602 -37.3652,2.4325 -73.373,10.4504 -92.5885,20.6167 -8.8817,4.6991 13.6241,9.8961 22.3376,5.6238 16.5249,-8.1021 13.4172,-13.1268 19.3116,-7.2324 2.2305,2.2305 1.9251,3.8996 -1.4083,7.6962 l -2.9533,3.3636 2.9708,3.6041 c 3.6239,4.3963 14.9724,13.6146 24.8226,20.163 l 7.3031,4.8551 3.5111,-1.6743 c 2.7827,-1.327 3.814,-1.423 4.971,-0.4628 2.046,1.698 4.1403,6.1144 3.6075,7.6072 -0.6159,1.7256 -4.7689,1.5655 -8.4243,-0.3246 -2.886,-1.4925 -3.551,-1.4149 -12.7003,1.4814 -16.7206,5.2929 -29.6214,7.0152 -32.3286,4.3159 -2.213,-2.2064 0.2683,-4.4582 10.5507,-9.575 5.3632,-2.6689 9.5275,-5.0763 9.2539,-5.3499 -0.4158,-0.4157 -7.4542,0.5744 -29.8421,4.1981 -1.4912,0.2415 -2.9522,0.049 -3.2467,-0.4276 -0.2945,-0.4765 -3.1566,1.6757 -6.3603,4.7828 -3.2036,3.107 -9.6176,7.8637 -14.2533,10.5705 -4.6357,2.7067 -9.4196,5.5155 -10.6309,6.2418 -2.0858,1.2507 -2.1255,1.5045 -0.75,4.7966 2.0015,4.7901 1.8257,6.9982 -0.7976,10.0231 -1.7825,2.0554 -3.7045,2.8074 -9.25,3.6192 -16.115,2.3592 -18.6454,2.8731 -22.0095,4.4695 -4.4548,2.1139 -7.3832,6.1887 -8.2978,11.5464 -0.7351,4.3063 -1.7996,5.3679 -6.3305,6.3134 -3.046,0.6356 -5.1911,5.0936 -6.2883,13.0686 -5.9618,12.4783 -2.409,11.8137 -4.9822,17.3483 0.8734,5.462 -2.3203,11.9072 -8.4159,16.9841 -7.7645,6.4669 -26.3343,18.7823 -31.9175,21.1675 -6.2051,2.6508 -11.7094,8.361 -13.1862,13.6794 -2.3035,8.2955 -1.2485,16.0573 5.796,42.6383 3.5129,13.2552 3.7782,16.5319 1.6689,20.6109 -1.7484,3.3809 -3.2892,4.0716 -9.0836,4.0716 -4.9401,0 -5.4549,-0.5921 -7.3847,-8.4923 -2.0232,-8.2824 -8.8041,-20.0832 -15.23594,-26.5149 -11.7468,-11.7468 -26.5853,-16.6345 -47.7475,-15.7276 -14.7119,0.6305 -15.9542,0.9696 -15.3392,4.187 0.294,1.5386 -0.3205,3.1223 -1.7778,4.5793 -2.0775,2.0777 -2.8405,2.1881 -11.3478,1.6419 -5.0127,-0.322 -13.3919,-1.2786 -18.6169,-2.1257 -13.66903,-2.2161 -26.71327,-2.3383 -30.60158,-0.2865 -4.87079,2.5702 -8.83785,7.8035 -14.90173,19.6583 -3.22201,6.299 -7.02595,12.216 -8.92588,13.8841 l -3.31098,2.9071 3.62007,0.9025 c 4.27763,1.0665 4.38141,2.0905 1.10362,10.8868 -8.89501,23.8707 3.21781,57.0893 24.66746,67.6489 8.23439,4.0538 17.5245,4.3492 26.84902,0.8537 7.2324,-2.7112 10.0396,-5.1973 16.9401,-15.0026 10.2149,-14.5151 17.4353,-19.9436 26.5599,-19.9683 5.0353,-0.015 14.6772,3.9634 15.6302,6.4472 0.3285,0.8555 -0.5811,3.9102 -2.0209,6.7883 -6.2787,12.5506 -9.7442,23.0762 -9.9538,30.2328 -0.1636,5.591 -0.8489,8.3058 -3.4042,13.4876 -3.1502,6.3883 -3.1672,6.4993 -1.1122,7.2595 1.1478,0.4246 5.0537,0.2555 8.6798,-0.376 3.8708,-0.6741 10.5335,-0.9008 16.137,-0.5491 16.0031,1.0045 25.761,5.1472 24.7374,10.502 -0.3001,1.5701 0.2449,3.5259 1.4286,5.127 1.0526,1.4238 2.4284,5.3555 3.0573,8.7373 1.7121,9.2064 -0.077,18.0807 -5.9615,29.5617 -0.2113,0.4125 0.328,0.75 1.1989,0.75 2.443,0 9.2983,7.4258 10.061,10.8982 0.3746,1.706 1.14314,3.1018 1.70754,3.1018 0.5644,0 2.4411,1.1907 4.1705,2.6461 l 3.1444,2.6461 15.5,-0.8187 c 25.0918,-1.3253 28.3716,-0.8845 31.0801,4.1762 2.9192,5.4545 0.2665,16.3503 -3.9808,16.3503 -2.5233,0 -3.8178,-1.7918 -4.9568,-6.8609 -1.3301,-5.9199 -3.5942,-8.1391 -8.3041,-8.1391 -3.6668,0 -4.0623,0.3288 -8.2453,6.8548 -5.9323,9.255 -8.4668,10.071 -17.1011,5.5058 z m 38.4153,-110.6912 c -2.8694,-1.5174 -4.4073,-3.0004 -4.4073,-4.25 0,-2.621 6.7276,-3.0766 14.0397,-0.9509 4.2608,1.2387 5.4603,2.026 5.4603,3.5842 0,4.2594 -8.3948,5.1586 -15.0927,1.6167 z m 63.9141,0.081 c -0.8383,-0.793 -4.4292,-1.2605 -9.8214,-1.2786 -9.3818,-0.03 -16.2093,-2.4029 -16.8484,-5.8516 -0.5138,-2.7726 1.5622,-3.5875 9.1824,-3.6045 l 6.8341,-0.015 -3.0841,-3.8939 c -6.0739,-7.669 -3.3266,-10.1711 8.9031,-8.1083 3.8902,0.6561 7.7735,0.9243 8.6295,0.5958 2.249,-0.863 13.6091,1.9794 19.1423,4.7896 4.8178,2.4469 10.2536,6.8691 10.2258,8.319 -0.056,2.9252 -2.1134,3.7313 -8.9929,3.5239 -6.3984,-0.1927 -7.8001,0.1388 -13.8698,3.2797 -7.4643,3.8628 -8.3788,4.062 -10.3006,2.2442 z m 47.777,-1.5598 c -0.8713,-1.685 -1.3128,-3.771 -0.981,-4.6356 1.7975,-4.6842 15.3826,-1.6733 15.3826,3.4094 0,2.5166 -0.6971,2.8653 -7.2733,3.6382 -5.435,0.6388 -5.5752,0.5913 -7.1283,-2.412 z m -102.8772,-19.5461 c -5.3167,-1.5015 -9.7212,-5.0382 -9.7212,-7.8059 0,-3.8958 -15.0869,-10.82 -33.5,-15.3749 -6.05,-1.4966 -11.3045,-3.1988 -11.6767,-3.7827 -0.4506,-0.7067 -4.1271,0.011 -11.00004,2.1491 -5.6778,1.7658 -11.3358,3.2015 -12.5733,3.1904 -4.1946,-0.038 -2.6008,-3.5869 3.7566,-8.3658 7.3901,-5.5553 13.7768,-7.1014 26.49344,-6.4135 11.8427,0.6406 22.3591,4.2233 45.7521,15.5863 10.0363,4.8751 20.3565,9.6585 22.9337,10.6297 4.8305,1.8204 6.1843,3.4151 5.1616,6.0802 -1.6647,4.3382 -16.4286,6.7044 -25.6262,4.1071 z m 239.8687,-294.2655 c -2.4657,-2.1674 -3.5348,-2.4637 -7,-1.94 -8.7992,1.33 -10.0339,1.1908 -11.0899,-1.2502 -0.9973,-2.3053 -1.0467,-2.3107 -18.2095,-2 -15.1976,0.2752 -17.411,0.1108 -18.9332,-1.4073 -1.6314,-1.6269 -1.6203,-1.8331 0.2082,-3.8536 1.0626,-1.1742 3.845,-3.256 6.1832,-4.6262 3.571,-2.0927 4.2528,-2.9962 4.261,-5.6464 0.015,-4.7241 4.1421,-12.5689 9.3789,-17.8258 5.66,-5.6817 13.1444,-9.6096 15.5009,-8.1351 2.4118,1.5092 2.4809,5.6595 0.1694,10.1901 -1.1325,2.2199 -2.0592,4.2199 -2.0592,4.4443 0,0.2245 1.7696,0.6456 3.9326,0.9357 12.8327,1.7212 28.0764,14.9998 28.0637,24.446 0,3.6627 -3.4939,9.2983 -5.7315,9.2583 -0.9707,-0.019 -3.0743,-1.1828 -4.6749,-2.5898 z m -332.08994,-173.881 c -5.7775,-2.0427 -9.8696,-6.9001 -9.0913,-10.7917 0.9412,-4.7059 5.0572,-9.2979 10.8936,-12.1534 10.7757,-5.2721 21.9913,-4.1116 30.779,3.1846 2.51974,2.092 8.70724,5.9949 13.75004,8.6729 11.6467,6.1852 12.2059,8.2164 1.9187,6.9688 -3.9875,-0.4836 -12.9518,-0.8792 -19.92074,-0.8792 h -12.6706 l -4.6086,3.25 c -5.1884,3.6589 -5.504,3.7089 -11.0501,1.748 z m 95.00004,-43.7074 c -6.2695,-2.1975 -8.5107,-6.6441 -4.4455,-8.8198 3.7752,-2.0204 13.731,-3.1056 17.9843,-1.9603 3.2144,0.8655 3.9612,1.5178 3.9612,3.46 0,2.6619 -3.4635,5.5329 -8.8992,7.3766 -3.9712,1.3469 -4.6088,1.3427 -8.6008,-0.056 z m -271.50004,-15.674 c 0,-1.1077 -0.92655,-2.1316 -2.24999,-2.4863 -4.13885,-1.1092 -38.04134,-0.5896 -56.75005,0.8697 -34.04983,2.656 -59.21152,1.6299 -75.77479,-3.09 -14.62601,-4.1678 -23.4226,-9.2458 -18.97386,-10.9529 0.68825,-0.2642 10.02575,-1.327 20.75,-2.3619 21.34662,-2.06 21.14342,-2.2668 -2.50135,-2.5455 -12.26347,-0.1447 -16.87575,-0.5691 -19.75,-1.8181 -3.90985,-1.699 -4.46923,-2.6123 -2.68975,-4.3918 0.747,-0.747 -0.21018,-1.2307 -3.23978,-1.637 -4.7359,-0.6352 -8.10312,-3.7084 -7.12374,-6.5017 1.61164,-4.5964 7.21046,-8.7969 17.30327,-12.9814 5.26475,-2.1828 5.33019,-2.254 1.52981,-1.6634 -6.69636,1.0406 -12.33923,3.3428 -30.63237,12.4975 -9.68141,4.845 -19.9131,9.5649 -22.73709,10.4886 -4.82891,1.5794 -5.56684,1.5756 -12.39744,-0.064 -8.98817,-2.1567 -16.61855,-5.632 -19.79923,-9.0177 -4.59271,-4.8887 -2.43417,-12.9171 4.79243,-17.8247 1.50914,-1.0249 3.64508,-3.2625 4.74654,-4.9725 3.15783,-4.9026 8.88384,-6.5469 22.99735,-6.6039 12.6476,-0.051 26.11077,1.6002 40.39932,4.955 14.99761,3.5214 23.10068,6.1979 23.10068,7.6304 0,0.8224 1.1197,1.3543 2.85078,1.3543 4.06505,0 9.24125,1.911 12.14922,4.4853 1.87889,1.6633 3.12111,2.027 5,1.4636 4.94118,-1.4814 24.51312,-0.9256 37.38915,1.0617 7.08903,1.0942 15.87568,1.9894 19.52588,1.9894 h 6.63675 l 1.97409,-4.2081 c 4.02671,-8.5833 11.36024,-6.7603 27.36268,6.8021 24.66144,20.9012 29.97965,24.4008 38.53234,25.3563 2.70648,0.3023 5.08415,1.0453 5.28374,1.651 0.19956,0.6057 -1.68147,1.882 -4.18019,2.8363 -5.24001,2.0011 -10.5244,6.8412 -10.5244,9.6393 0,1.0577 -0.67498,1.9231 -1.49998,1.9231 -0.82503,0 -1.50002,-0.8475 -1.50002,-1.8833 z m 26.0784,-33.6188 c -16.00067,-6.6367 -19.61408,-8.9383 -18.51783,-11.795 0.71274,-1.8574 6.24457,-3.6887 11.16801,-3.6972 3.0929,0 3.17998,-0.1123 2.07266,-2.5425 -1.68809,-3.7049 0.53295,-5.378 8.66899,-6.5302 7.37431,-1.0443 20.28529,0.087 24.87991,2.1808 3.38128,1.5406 3.39776,4.4306 0.034,6.1923 l -2.61456,1.3699 4.66167,1.3052 c 8.5742,2.4007 11.75153,6.7323 7.65657,10.4382 -1.46737,1.328 -21.32459,9.7844 -22.37314,9.5279 -0.11868,-0.03 -7.15571,-2.9313 -15.63761,-6.4494 z m 54.67159,-7.2226 c -6.10787,-7.7644 -5.02254,-13.9329 3.08553,-17.5363 9.77987,-4.3465 36.10488,-3.2747 41.89478,1.7056 3.149,2.7086 2.6297,4.7579 -1.9045,7.5153 -3.3714,2.0502 -18.6628,6.0402 -23.1489,6.0402 -1.58521,0 -3.6791,1.1808 -5.44554,3.0709 -1.99449,2.1341 -4.06915,3.2083 -6.80069,3.5211 -3.70171,0.424 -4.14909,0.1724 -7.68068,-4.3168 z m 58.25001,-22.2734 c -16.0441,-2.147 -28.4188,-9.1758 -33.5192,-19.0389 -2.9399,-5.6852 -1.7832,-6.3438 9.7937,-5.5768 15.6359,1.0359 21.8076,2.9319 18.9255,5.8139 -1.9061,1.9061 -1.439,2.8022 2.2679,4.351 4.5802,1.9138 23.0314,1.8892 44.0321,-0.059 37.30484,-3.4602 52.50004,-0.8298 52.50004,9.0882 v 3.4027 l -11.75,-0.5938 c -8.0113,-0.4048 -19.99814,0.075 -37.67254,1.5085 -26.7057,2.1657 -35.0914,2.3733 -44.5775,1.1039 z m -250.75004,-0.6643 c -2.42888,-0.5145 -3.1346,-3.8139 -1,-4.6752 0.6875,-0.2774 -1.225,-0.5638 -4.25,-0.6363 -15.21552,-0.3651 -32.20694,-1.8329 -33.24607,-2.8721 -2.04053,-2.0405 0.84974,-3.5335 9.0159,-4.6574 6.89737,-0.9492 7.76539,-1.3087 8.05713,-3.3366 0.74442,-5.175 3.49393,-5.1817 40.17304,-0.098 9.075,1.2578 17.7375,1.9748 19.25,1.5933 3.03415,-0.7652 3.56322,-2.7357 1.25,-4.6554 -0.825,-0.6847 -1.5,-2.1294 -1.5,-3.2104 0,-1.7497 0.46657,-1.8926 4.25,-1.3021 14.1675,2.2112 33.80123,9.5976 35.19989,13.2425 1.0261,2.6739 -3.46609,5.9561 -9.13641,6.6755 -17.32949,2.1985 -63.6217,4.8727 -68.06348,3.9319 z m 138.23829,-5.3565 c -0.88633,-1.4341 -9.00098,-5.3812 -15.30954,-7.4467 -9.32923,-3.0547 -7.99699,-6.493 2.52586,-6.519 5.35619,-0.015 6.56428,-0.3749 8.83563,-2.6464 2.39335,-2.3934 3.15114,-2.584 8.38503,-2.1094 9.79941,0.8886 21.07476,7.6942 21.07476,12.7204 0,4.1683 -7.35768,7.0055 -18.19098,7.0145 -3.68001,0 -6.97436,-0.453 -7.32076,-1.0134 z m -221.98829,-9.5959 c -9.99002,-2.4114 -11.97243,-6.5412 -4.6911,-9.7725 8.11411,-3.601 33.38802,-7.6126 47.96056,-7.6126 12.38592,0 13.67868,4.3492 2.63664,8.8705 -4.71891,1.9322 -7.45533,2.38 -13.61333,2.2277 -8.28773,-0.2049 -15.89641,2.1489 -19.37645,5.9943 -2.01221,2.2234 -4.66791,2.2836 -12.91632,0.2925 z m 265.59595,-4.6741 c -6.63503,-2.3604 -6.76142,-6.8321 -0.24831,-8.7835 5.56225,-1.6664 12.20322,-0.4108 17.87497,3.3797 7.42848,4.9645 6.55174,6.1534 -4.72255,6.4038 -5.46195,0.1213 -10.94695,-0.3039 -12.90411,-1 z m 85.94459,0.1198 c -14.2467,-2.0344 -15.8415,-6.7978 -3.4792,-10.3916 3.3659,-0.9785 5.4387,-2.1351 5.4387,-3.0349 0,-3.659 6.8979,-3.8665 28.5,-0.8577 l 4,0.5572 -3.5,-1.6142 c -1.925,-0.8879 -6.3227,-2.5285 -9.7726,-3.6459 -7.6191,-2.4678 -9.8783,-4.3392 -8.0119,-6.6368 1.0792,-1.3286 1.0327,-1.4872 -0.2914,-0.9923 -0.8667,0.3239 -4.6916,0.9035 -8.5,1.288 -4.1832,0.4223 -9.0965,1.7412 -12.4117,3.3318 -4.5377,2.1771 -7.2257,2.6971 -15.5304,3.0045 -11.6902,0.4327 -24.4896,-1.6321 -31.4063,-5.0667 -3.80449,-1.8891 -4.54728,-2.7126 -4.40634,-4.8851 0.16554,-2.5539 -0.004,-2.6274 -7.50002,-3.2569 -19.43932,-1.6322 -24.12597,-6.8447 -12.71656,-14.1432 14.49006,-9.2691 32.05072,-10.264 51.04712,-2.8919 3.2999,1.2807 13.5083,4.3742 22.6851,6.8745 25.528,6.9553 30.022,9.4696 24.7316,13.8372 l -2.4167,1.9952 3.3749,-0.6509 c 1.8563,-0.358 8.8313,-0.7028 15.5001,-0.766 7.949,-0.075 10.8555,-0.3621 8.4389,-0.8322 -4.6382,-0.9025 -19.6921,-6.7137 -22.1894,-8.5659 -1.0857,-0.8052 -1.6253,-2.0427 -1.2814,-2.9389 0.7281,-1.8974 3.436,-1.946 22.6568,-0.407 17.63764,1.4122 23.70894,0.7548 25.02634,-2.71 0.8264,-2.1736 1.5358,-2.4389 6.699,-2.5052 3.1761,-0.041 7.7997,-0.4349 10.2747,-0.876 2.5062,-0.4466 -6.1336,-0.5813 -19.4999,-0.3042 -24.46824,0.5075 -24.13484,0.5278 -75.00004,-4.5553 l -17.0001,-1.6988 -0.3103,-2.6832 c -0.4392,-3.7975 2.8931,-5.6475 13.5011,-7.4954 7.2809,-1.2683 14.7082,-1.4291 42.8093,-0.9269 18.7,0.3341 35.35004,0.7215 37.00004,0.8607 2.6663,0.2249 2.9678,-0.026 2.7106,-2.2518 -0.1591,-1.3777 0.3299,-3.3521 1.087,-4.3874 1.321,-1.8065 4.372,-1.9017 75.5604,-2.357 75.5555,-0.4832 85.6072,-0.1633 106.1418,3.38 4.6749,0.8067 9.5644,2.1642 10.8656,3.0167 2.1567,1.4132 2.226,1.6898 0.7847,3.1311 -1.2498,1.2498 -5.1355,1.7379 -18.5482,2.3299 -18.5535,0.8188 -26.3403,1.6968 -25.6049,2.8867 0.2623,0.4241 2.9836,1.0844 6.0479,1.4673 4.3716,0.5461 5.5044,1.0431 5.2608,2.308 -0.5658,2.938 -22.0849,8.122 -65.3464,15.742 -14.2776,2.5149 -26.1093,5.0034 -26.2926,5.53 -0.1833,0.5267 -2.5617,0.9576 -5.2852,0.9576 -4.5859,0 -4.8753,0.1429 -3.9166,1.9342 3.1732,5.9294 0.023,9.387 -11.9613,13.126 -5.7199,1.7847 -24.0139,5.1395 -34.0036,6.2357 l -3.5,0.384 3.5,0.1765 c 5.6677,0.2858 14.9151,6.5619 12.7939,8.6831 -1.9259,1.9258 -10.3402,2.2594 -31.6567,1.2549 -17.55384,-0.8271 -25.28984,-0.8126 -31.01254,0.058 -8.7582,1.333 -24.6674,1.3227 -34.0842,-0.023 z m -254.78438,-10.7514 c -6.46238,-1.642 -8.01868,-4.8784 -3.7051,-7.7047 2.89329,-1.8958 12.67177,-2.3134 23.69894,-1.0121 5.59739,0.6606 6.75,1.1106 6.75,2.6355 0,3.6614 -19.1396,8.0135 -26.74384,6.0813 z m 123.74387,-5.4162 c -4.87578,-1.9176 -7.44733,-2.1645 -22.65804,-2.1749 -15.42227,-0.011 -17.36967,-0.2034 -19.24999,-1.905 -1.1506,-1.0413 -2.09196,-2.9715 -2.09196,-4.2893 0,-1.784 -0.87655,-2.7622 -3.43163,-3.8298 -4.01956,-1.6795 -4.74175,-2.5656 -3.5986,-4.4152 0.66255,-1.0721 3.21097,-1.2283 12.18399,-0.747 25.43681,1.3644 48.48875,7.8877 49.67696,14.0576 0.37568,1.9514 -2.4779,5.693 -4.23572,5.5536 -0.60223,-0.048 -3.56999,-1.0602 -6.59501,-2.25 z m 32.00001,-1.5454 c -9.1395,-3.0496 -11.12402,-4.2535 -10.79576,-6.5491 0.26418,-1.8491 1.09186,-2.1009 7.79576,-2.3726 12.28846,-0.4979 24.99999,2.4908 24.99999,5.878 0,1.483 -5.69975,3.61 -11.49997,4.2915 -3.5105,0.4125 -6.63851,0.041 -10.50002,-1.2478 z"
       id="path19309"
       inkscape:connector-curvature="0"
       sodipodi:nodetypes="cscscsscccccccccccccccscscccccscssccccssssscscccccccsccccccccccccccsssccsccccsssscccccccccccccccccsccsccscccccccccccccsccccccscccscscccccccsccscccccccsccscscccccsccccccccccccccccccccccssccccccccccccccccccccccsccssccssccscccccccccccccccccccsccsccccsccccccccccccccccccccccsccscscccccccccccccssccccccccsccccscsccccscsccccscsccccccsscccccccccssccsccccsccccccccscccccccscccccccccscsccccccsscccssscccccccccsccccccssscccsccscccsscccccccccccccccccccscccccccccscccccccccsccscsscccccccccsccccsccccccccccccsccccccccccccsssccccccccccccscccccccssccscccccscccccscccccccsccccsccsccccccscc" />
  </g>
  <g
     inkscape:groupmode="layer"
     id="layer14"
     inkscape:label="Russia"
     style="display:inline"
     transform="translate(0,-377.95276)">
    <path
       transform="translate(0,-566.92914)"
       style="display:inline;fill:#cc8700;fill-opacity:1;fill-rule:nonzero;stroke:#000000;stroke-width:0.75590551;stroke-linejoin:bevel;stroke-miterlimit:1;stroke-dasharray:none;stroke-opacity:1"
       d="m 2949.8279,1090.1039 c -54.6623,28.9544 -116.5592,4.9986 -172.0261,31.9254 -10.5473,20.3989 -109.8418,2.4644 -44.7062,32.8119 -4.2465,29.0097 -13.4065,-18.3028 -42.1935,-5.0346 -21.8792,-5.614 -30.8703,9.5692 -6.0808,13.0358 -25.363,-2.0716 -62.4622,-33.3971 -49.0415,18.3221 30.8779,-9.4657 60.6896,30.3408 17.4699,5.9354 -9.4119,22.638 -74.8218,32.9046 -57.2019,21.9498 55.0712,1.8976 25.8967,-108.8734 -21.3322,-57.5972 -33.7394,24.5314 37.0589,41.6282 -17.2192,32.2239 -56.0056,-13.6392 -106.6513,13.2247 -158.8553,6.3595 -20.8917,12.8207 -72.9656,22.6444 -56.7643,0.6847 -35.4932,-5.1663 -4.7136,29.7567 -44.9047,24.2844 -15.9286,14.9451 -26.5931,14.6668 -46.0892,15.4535 17.1126,35.2796 -81.4845,-51.2678 -24.693,-17.2542 25.8466,12.5875 98.7374,-12.6778 34.1633,-22.9617 -20.4696,-8.9352 -102.9074,-26.2592 -90.1841,4.8354 -3.9097,14.8319 36.9436,68.0095 -9.6073,81.3089 32.7976,1.1593 -40.2982,20.8085 -0.4361,44.8746 39.7388,-3.8892 35.4874,53.109 43.0136,41.4725 23.335,17.0706 55.4921,19.3038 78.0435,36.7954 -10.5817,15.7322 -46.8108,50.7168 1.2373,57.5224 29.8703,-2.685 108.5955,49.5126 70.2672,-10.4499 32.4066,-15.815 18.1844,-30.7532 -0.3608,-45.8803 33.2977,-50.0869 92.9644,-16.5187 142.2869,-20.5187 -0.372,-41.0044 56.6287,-43.9913 102.937,-47.6109 32.6909,25.1655 85.962,-5.4329 103.1988,46.1006 50.5071,6.8522 101.5589,16.5755 153.8064,4.1594 35.0253,20.3515 47.8176,-42.4453 84.0005,-5.3056 57.0593,23.7439 121.0233,17.0356 175.2637,2.5935 16.5428,-72.7883 84.1917,4.7503 118.4108,27.7085 25.9701,3.3055 53.1976,-0.1773 20.0066,27.2843 -30.8553,20.5411 -31.8562,44.1541 7.5194,26.7113 39.5559,-6.2388 117.1797,-109.3943 44.1736,-114.6728 -65.4049,-3.9775 32.8005,-50.6071 58.1488,-59.0791 55.8935,-5.8039 103.1651,19.6262 142.9649,-23.7706 31.9,-2.3968 45.9265,10.8515 79.2016,-11.2057 -23.009,43.0373 -113.7165,38.3572 -91.9488,104.3604 16.0573,34.5077 60.7876,-26.4985 73.7599,-40.523 -16.1095,-65.8667 87.7183,-20.723 118.8107,-56.2624 17.6576,-9.7924 73.8077,-1.5014 30.9931,-25.7099 -31.8508,-12.5068 46.6769,5.7481 28.744,-33.2062 -31.2316,-60.7827 -100.4156,-3.2695 -147.0358,-24.5157 -54.6197,9.7123 -98.4866,-26.8424 -154.0128,-15.8485 -21.4745,-10.2069 -42.9198,-21.3392 -67.6812,-2.2009 9.4536,-26.992 -59.8801,-20.0218 -59.1871,-2.6911 -42.2369,-5.0507 -99.1071,13.2612 -130.1965,-12.0888 54.0156,-19.7038 -104.8439,-1.6152 -69.1187,-2.8479 -34.7193,-18.7887 -153.2999,0.7981 -139.4519,-5.401 29.2549,1.1436 109.1293,-35.7712 35.1241,-35.829 -35.9724,0.547 -51.5072,0.3526 -55.3771,-10.43 z"
       id="Russie"
       inkscape:connector-curvature="0" />
  </g>
  <g
     inkscape:groupmode="layer"
     id="layer5"
     inkscape:label="SAmerica"
     transform="translate(0,-944.88189)"
     style="display:inline">
    <g
       transform="translate(0,-1e-5)"
       style="display:inline;fill:#ffa9fb;fill-opacity:1"
       id="g16932">
      <path
         style="fill:#ffa9fb;fill-opacity:1;stroke:#000000;stroke-width:0.75590551;stroke-linejoin:bevel;stroke-miterlimit:1;stroke-dasharray:none;stroke-opacity:1"
         d="m 1130.4072,2520.6032 c -6.1168,-2.7414 10.2181,-22.9249 -7.8174,-16.0577 -11.3213,9.307 -15.4195,-18.6103 -24.7567,-4.0521 -1.5082,-15.3766 -19.9985,-33.9357 -16.1759,-57.0396 -7.8173,-17.1533 7.1701,-26.9061 4.0332,-48.3551 4.5804,-34.2754 8.6219,-70.2484 24.8998,-101.4319 4.7509,-32.3575 6.5575,-65.252 14.6848,-97.154 -3.5247,-25.1272 17.2886,-66.2945 -11.5284,-79.6196 -31.4183,-13.424 -54.1826,-40.3634 -64.598,-72.5999 -4.4883,-27.7535 -45.3406,-47.2716 -32.4342,-75.518 25.2611,-11.2887 -14.9253,-18.5746 2.85,-37.0554 6.1743,-17.1927 23.6906,-13.8184 24.5155,-32.7375 23.549,-18.184 -6.7703,-54.9683 20.1271,-70.9376 14.5927,-22.7531 42.0734,-37.5584 65.7659,-29.0268 17.0017,-1.1899 31.69,17.6374 50.1671,13.7019 24.0533,-3.9702 42.19,7.5929 61.5814,20.6661 15.8361,13.9552 24.6184,36.4015 48.1039,28.0216 28.4943,4.2882 61.1733,35.9961 44.3622,65.7872 -3.218,10.8014 27.8997,-3.6416 24.2255,12.1965 28.9103,-18.4282 37.2366,29.3293 65.9491,14.4186 26.3553,8.4451 63.8967,19.6293 75.0811,46.3972 4.4327,33.5823 -32.8734,49.8228 -41.7692,77.7703 0.011,31.4911 -6.0781,65.4638 -25.549,90.6991 -24.7484,14.5313 -68.2255,10.9919 -75.3624,46.0267 -5.3464,24.9016 -14.1625,54.3592 -37.6699,67.5484 -17.4343,10.8669 -28.4767,27.8444 -50.8431,30.1739 9.2961,31.276 -27.3008,40.318 -47.3984,37.9091 -13.8988,23.8926 -30.6372,46.5974 -49.7168,65.3782 -27.1633,7.7599 24.3903,30.4224 -6.5716,40.2537 -22.8316,11.51 -25.1217,36.6611 -9.476,49.6904 12.533,3.491 33.0557,20.9685 6.8142,16.1869 -10.4303,-1.5532 -21.3345,1.2237 -31.4938,-1.2406 z"
         id="path19203"
         inkscape:connector-curvature="0" />
    </g>
  </g>
  <g
     inkscape:groupmode="layer"
     id="layer7"
     inkscape:label="Europe"
     transform="translate(0,-944.88189)"
     style="display:inline">
    <path
       id="path18961"
       style="fill:#7f7aff;fill-opacity:1;stroke:#00001d;stroke-width:0.75590551;stroke-linejoin:bevel;stroke-miterlimit:4;stroke-dasharray:none;stroke-opacity:1"
       d="m 1521.835,1025.3096 c -20.0091,0.069 -39.9501,0.81 -56.2383,2.334 -18.846,1.7634 -29.677,2.2555 -44,2 l -19,-0.3379 -0.3086,2.6719 c -1.2815,11.0853 -25.5197,14.1886 -49.25,6.3066 -4.5079,-1.4973 -4.7031,-1.4712 -9.5215,1.2461 -4.7704,2.6903 -5.3734,2.7754 -19.9199,2.7754 -8.25,0 -23.325,-0.6235 -33.5,-1.3847 -19.2534,-1.4405 -24.3909,-1.1141 -36.875,2.3457 -2.9562,0.8192 -15.1062,2.6463 -27,4.0586 -11.8938,1.4122 -24.775,3.0336 -28.625,3.6035 -15.0499,2.2279 -33.5,7.9364 -33.5,10.3652 0,0.7967 1.9521,1.7631 4.7871,2.3711 6.8363,1.4661 10.4275,2.9835 9.7305,4.1113 -1.9812,3.2056 -30.5392,8.0378 -49.3438,8.3496 -14.9605,0.248 -18.1738,1.1624 -18.1738,5.1641 0,2.942 10.6388,14.6806 17.6875,17.3359 0.9225,-0.3096 1.8817,0.6023 2.6786,1.1607 4.4957,2.2707 15.8674,5.1998 27.1339,7.5171 6.9994,1.4396 9.0007,1.4788 16,0.3222 5.092,-0.8414 16.1788,-1.292 30.5,-1.2422 21.0915,0.073 23.126,0.2446 32.5,2.75 16.0419,4.2877 29.1999,11.2012 40.2832,21.1661 l 5.25,4.7207 -0.5762,6.1425 c -0.7033,7.4841 1.2886,12.015 6.543,14.8809 3.0511,1.6641 5.0788,1.8552 15.8086,1.4863 12.2468,-0.4208 12.3285,-0.4091 16.25,2.4317 2.1677,1.5703 3.9414,3.2529 3.9414,3.7383 0,1.5685 -6.7083,2.1988 -15.9648,1.5 -7.9923,-0.6034 -9.0352,-0.4928 -9.0352,0.9609 0,1.1945 0.9065,1.6445 3.3184,1.6445 11.1055,0 33.7399,12.3342 29.83,16.2559 -0.6818,0.6839 -4.7037,1.469 -8.9355,1.7441 -9.9889,0.6491 -10.6955,2.4768 -2.3125,5.9785 3.2641,1.3635 5.7392,2.7966 5.5,3.1836 -0.2392,0.3871 -3.9745,1.0111 -8.3008,1.3887 -4.3263,0.3774 -8.3941,1.0135 -9.039,1.4121 -0.645,0.3986 -1.4309,3.2232 -1.7461,6.2774 -0.672,6.5102 1.0902,12.5971 5.7441,19.8496 3.1152,4.8546 4.0964,5.4203 13.6523,7.8808 3.8191,0.9834 4.2643,1.43 4.8008,4.8067 1.5222,9.5799 2.8115,12.429 7.8965,17.4492 9.8876,9.7616 30.365,21.559 43.5918,25.1133 3.025,0.8129 8.4711,1.5184 12.1016,1.5683 11.3781,0.1567 17.3758,-3.0957 21.5898,-11.709 2.5283,-5.1676 2.5657,-5.4944 0.9668,-8.2011 -0.9158,-1.5504 -1.3874,-3.5396 -1.0488,-4.4219 0.3385,-0.8823 3.6032,-3.2438 7.2539,-5.2481 10.761,-5.9077 12.9795,-9.0168 10.1777,-14.2519 -0.7868,-1.4701 -0.043,-2.5352 4.1465,-5.9434 10.7132,-8.7147 25.0466,-13.5693 43.6113,-14.7695 l 10.7012,-0.6914 6.3613,-4.875 c 13.2432,-10.1503 23.9893,-13.5806 55.5411,-17.7227 23.3018,-3.059 35.2976,-5.6399 43.9199,-9.4531 2.8755,-1.2717 8.1224,-2.6407 11.6601,-3.041 9.022,-1.0207 13.2504,-2.9252 12.8399,-5.7832 -0.2347,-1.6334 -1.6823,-2.7957 -5.3223,-4.2715 -4.4988,-1.8239 -7.028,-2.0119 -25.2383,-1.8887 -11.1316,0.075 -20.0119,-0.2332 -19.7324,-0.6855 0.2795,-0.4523 3.0129,-1.7596 6.0723,-2.9043 8.771,-3.2817 11.3984,-4.9131 11.3984,-7.0742 0,-3.4188 5.603,-1.9664 16.0215,4.1523 7.7106,4.5284 20.029,7.0835 24.4473,5.0703 4.8208,-2.1965 1.9977,-8.1467 -6.9024,-14.5468 -1.7264,-1.2414 -1.3943,-1.3401 3.0996,-0.9082 5.5076,0.5292 6.7213,-0.4934 5.2578,-4.4297 -1.1125,-2.9927 -7.1268,-4.6026 -12.1425,-3.252 -2.1002,0.5655 -3.7813,1.6427 -3.7813,2.4238 0,1.0763 -1.3497,0.8087 -5.75,-1.1406 -6.6023,-2.9247 -18.6232,-5.6768 -21.2109,-4.8554 -0.9658,0.3065 -2.2926,-0.09 -2.9492,-0.8809 -2.0615,-2.4838 1.9633,-2.8443 23.7636,-2.1309 20.9311,0.685 31.4448,-0.071 36.8223,-2.6484 3.5106,-1.6826 4.3839,-4.8262 1.3398,-4.8262 -3.9243,0 -1.1201,-1.7291 3.8809,-2.3926 11.3428,-1.5046 14.8763,-4.9381 6.3535,-6.1738 -2.6125,-0.3788 -5.1062,-0.8951 -5.541,-1.1465 -0.4348,-0.2511 0.8027,-2.2196 2.75,-4.375 1.9472,-2.1554 3.541,-4.5146 3.541,-5.2422 0,-3.1337 -4.7418,-5.7764 -12.6211,-7.0351 -7.5344,-1.2036 -7.7037,-1.2885 -3.8789,-1.9219 2.2,-0.3643 8.4602,-1.1614 13.9121,-1.7734 5.4519,-0.612 10.9644,-1.5132 12.25,-2.002 5.1555,-1.9601 1.5172,-4.637 -7.5996,-5.5898 -4.9421,-0.5166 -6.7665,-1.2587 -10.1016,-4.1133 -3.3703,-2.8849 -4.0153,-4.0158 -3.7636,-6.5781 0.4128,-4.2008 4.6924,-6.9106 15.3593,-9.7285 9.8574,-2.6041 11.0226,-4.7372 3.4356,-6.2852 -4.1492,-0.8466 -4.3013,-0.9822 -1.9922,-1.7695 1.375,-0.4688 9.7,-2.0014 18.5,-3.4063 8.8,-1.4048 20.2168,-3.227 25.3711,-4.0488 15.6228,-2.4909 19.6454,-5.5071 13.6406,-10.2305 -7.1542,-5.6275 -26.0203,-5.2247 -65.1972,1.3906 -14.4028,2.4321 -27.2925,4.4219 -28.6426,4.4219 -1.7665,0 -2.625,-0.6825 -3.0645,-2.4336 -0.3359,-1.3383 -1.5649,-2.7374 -2.7304,-3.1074 -1.8568,-0.5893 -2.0462,-1.2008 -1.5332,-4.9434 0.6666,-4.8632 -0.4741,-6.4196 -6.5704,-8.9668 -10.0494,-4.1989 -46.4559,-6.8042 -84.4668,-7.0332 -2.8508,-0.017 -5.7099,-0.022 -8.5683,-0.012 z m 553.7734,32.9922 c -4.445,0.022 -7.8086,0.2154 -9.414,0.625 -10.4184,2.6584 -8.7638,7.6855 3.2148,9.7715 3.4938,0.6084 8.4099,1.1074 10.9258,1.1074 4.073,0 4.5182,0.2177 4.0547,1.9903 -0.3723,1.4234 0.1528,2.2802 1.8437,3.0097 5.2946,2.2841 42.2374,-1.6223 51.3497,-5.4297 3.8463,-1.6071 4.5548,-3.9442 1.666,-5.4902 -4.8096,-2.574 -44.3788,-5.6809 -63.6407,-5.584 z m -80.248,6.9219 c -8.5462,-0.02 -17.4351,1.4331 -18.8067,3.6523 -1.0467,1.6938 1.4416,3.7366 5.3594,4.3985 2.6648,0.4502 4.1646,1.4327 5.3555,3.5078 2.6657,4.6448 7.1986,6.4447 16.3281,6.4863 4.4,0.02 10.8705,-0.3514 14.3789,-0.8262 4.6225,-0.6256 6.19,-0.5566 5.6914,0.25 -0.3783,0.6123 -2.6493,1.1133 -5.0469,1.1133 -2.3975,0 -5.0714,0.2718 -5.9414,0.6055 -2.8841,1.1067 -1.6879,3.2857 2.168,3.9473 2.0625,0.3538 5.1,1.0086 6.75,1.455 2.7437,0.7424 2.6052,0.818 -1.6269,0.9004 -6.5828,0.1283 -7.947,2.17 -3.6426,5.4532 1.8309,1.3965 4.4422,2.9831 5.8008,3.5253 1.3585,0.5422 4.9437,1.0028 7.9687,1.0254 6.8841,0.05 13.0331,-2.4709 27.2285,-11.1621 9.1032,-5.5735 15.2889,-8.5431 21.5215,-10.3301 2.8535,-0.8181 0.8892,-3.3084 -4.5,-5.705 -12.5819,-5.5951 -15.9976,-6.1029 -39.3828,-5.8614 -17.1424,0.177 -23.1416,-0.1199 -28.9004,-1.4296 -3.0045,-0.6834 -6.8185,-0.997 -10.7031,-1.0059 z m 157.3321,97.7305 c -1.4197,0.024 -2.8924,0.079 -4.4239,0.166 -11.9222,0.6779 -49.0957,5.7595 -60.3574,8.25 -40.5648,8.9708 -71.5818,25.2041 -96.3145,50.4101 -9.5362,9.7187 -15.2937,13.1078 -34,20.0078 -28.4101,10.4796 -37.8582,17.0055 -40.4883,27.9688 -1.2628,5.2637 -0.997,7.5709 2.1074,18.2734 1.5717,5.4184 2.6585,7.2652 5.5899,9.5 3.4231,2.6096 4.2065,2.7673 13.2148,2.6641 7.5513,-0.086 12.5191,-0.8794 23.4903,-3.75 15.9062,-4.1619 20.5859,-4.5775 20.5859,-1.8301 0,3.2989 4.2107,18.6257 6.2344,22.6914 1.095,2.2 4.1997,6.6678 5.2014,7.7678 v 0 c 8.7569,3.6588 27.9787,2.22 38.0662,-8.3557 4.9193,-5.1574 7.0016,-8.6774 11.2617,-19.0371 0.7722,-1.878 2.0755,-2.8103 4.5859,-3.2812 1.9292,-0.3619 4.5534,-1.5429 5.8301,-2.625 2.2796,-1.932 2.2851,-1.9951 0.3789,-3.4688 -1.9085,-1.4742 -1.9047,-1.5 0.1406,-1.5 1.1442,0 3.0901,-0.819 4.3242,-1.8183 1.8941,-1.5338 2.0636,-2.1507 1.0957,-3.959 -0.6305,-1.1783 -2.7934,-3.3988 -4.8066,-4.9336 -4.6068,-3.5122 -9.3177,-9.9382 -9.2988,-12.6895 0.01,-1.449 2.5663,-4.042 8.25,-8.3632 4.5303,-3.4444 13.6363,-10.5554 20.2363,-15.8028 13.1715,-10.472 24.7131,-16.8122 34,-18.6758 6.5408,-1.3125 7.7611,-2.2187 7.0723,-5.2578 -0.661,-2.916 5.34,4.3411 6.1114,7.3906 1.3642,5.394 -0.5037,7.2742 -13.6798,13.7735 -12.7429,6.2856 -16.2643,9.1676 -19.957,16.3359 -3.0966,6.0112 -3.3828,9.4491 -1.2012,14.3809 4.1861,9.4633 16.1205,14.583 35.8262,15.3691 14.1497,0.5645 23.4972,-1.0683 32.9219,-5.7519 3.2485,-1.6144 6.6773,-2.9479 7.6191,-2.9668 3.4494,-0.063 9.7116,-6.7443 13.0866,-9.7075 8.693,-7.6326 9.195,-11.7433 0.079,-34.4772 -6.0434,-15.0708 -7.9775,-13.722 -6.8593,-18.3829 1.4578,-6.077 2.4415,-8.9361 -2.7973,-16.7568 -3.0289,-4.5218 -1.1519,-9.0168 -0.9169,-10.9745 0.3316,-2.761 0.3372,-2.7629 3.1993,-1.0722 2.4236,1.4316 -3.2974,0.9879 0,0 2.1459,-0.6429 4.5574,-4.3166 5.6043,-5.4734 1.8827,-2.0803 8.8431,0.5966 6.0773,-1.7825 -2.5425,-2.1869 -2.6092,-2.4043 -0.7402,-2.4043 3.6582,0 2.1911,-2.8977 -2.7285,-5.3906 -6.3659,-3.2258 -13.6834,-4.6276 -23.6211,-4.4609 z m -455.5684,47.7617 -6.4258,1.9844 c -11.6334,3.5932 -21.1689,4.3361 -39.9551,3.1093 -17.9384,-1.1713 -22.7537,-0.9372 -33.9043,1.6485 -7.2971,1.6921 -8.5823,2.6287 -6.7051,4.8906 0.8952,1.0786 3.7046,1.4782 10.836,1.5391 l 9.6269,0.082 -5.25,2.3984 c -2.8875,1.3192 -5.25,2.789 -5.25,3.2676 0,0.4785 2.1375,2.2882 4.75,4.0215 2.6125,1.7332 6.2818,4.2772 8.1524,5.6523 3.5675,2.6227 8.2501,4.1915 16.5976,5.5625 7.3158,1.2017 25.6551,0.1975 36,-1.9707 30.7002,-6.4346 38.6018,-19.2648 17.9375,-29.127 z m 434.0977,73.4648 c -1.4536,0.035 -2.9082,0.2216 -4.668,0.5469 -15.8727,2.9342 -18.7958,10.3122 -7.1289,17.9941 2.0191,1.3295 3.5591,2.5215 3.4219,2.6485 -0.1372,0.1272 -5.875,0.7412 -12.7501,1.3633 -14.8287,1.3416 -19.0593,2.3583 -22.6504,5.4472 -1.9179,1.6497 -2.6816,3.2632 -2.6816,5.6602 0,1.8439 0.5132,3.5234 1.1406,3.7324 0.7865,0.2622 0.6452,1.1363 -0.4531,2.8125 -1.3549,2.0678 -1.4015,2.8948 -0.3086,5.5332 1.124,2.7136 6.7326,7.8799 12.5703,11.5801 1.036,0.6566 -0.8172,0.2576 -4.1172,-0.8867 -9.422,-3.2673 -27.0119,-3.579 -48.3535,-0.8555 -9.6803,1.2354 -18.9409,1.9199 -21.0801,1.5586 -4.6113,-0.7791 -15.5409,1.0675 -19.2324,3.248 -2.4795,1.4647 -3.2124,1.4212 -10.0039,-0.5703 -10.3362,-3.0308 -39.8051,-7.6128 -41.0371,-6.3808 -0.6365,0.6364 -0.5963,1.69 0.1152,3.0195 2.5971,4.8527 1.0698,6.2161 -9.1914,8.207 -3.1808,0.6171 -6.3132,1.6894 -6.9609,2.3828 -0.9472,1.0139 -2.0414,1.001 -5.5879,-0.066 -4.5181,-1.3597 -9.0953,-0.8972 -10.4024,1.0528 -0.4041,0.6028 -0.7424,2.8195 -0.75,4.9257 -0.015,3.8138 -0.029,3.8275 -3.2656,3.0411 -5.3071,-1.2894 -8.6677,-0.7951 -11.2832,1.6621 -1.3559,1.2738 -2.4668,3.3634 -2.4668,4.6426 0,1.5445 -0.5878,2.3283 -1.75,2.3359 -2.4874,0.014 -11.4882,4.3561 -13.1211,6.3301 -1.011,1.2221 -1.0843,2.0077 -0.2754,2.9824 0.8745,1.0535 0.5437,1.243 -1.6269,0.9297 -1.9342,-0.2791 -5.3158,1.1001 -11.6446,4.748 -19.5065,11.2438 -28.8967,14.7197 -47.4648,17.5703 -16.1315,2.4766 -16.0847,2.9658 1.4883,15.9786 10.8087,8.0037 17.6377,14.3844 20.1094,18.7871 2.2942,4.0867 1.5712,11.8261 -1.5625,16.7168 -5.4035,8.4329 -5.135,8.3571 -18.7481,5.3418 -13.6483,-3.0232 -35.295,-4.3309 -41.9199,-2.5333 -9.8777,2.6803 -16.0108,9.186 -17.2305,18.2793 -0.4868,3.6293 -0.3618,3.8594 2.1074,3.8594 h 2.625 l -3.3945,4.4492 c -5.2398,6.8645 -7.0918,13.4035 -7.0918,25.0508 0,9.078 0.2513,10.4253 2.7168,14.6192 3.4673,5.898 8.2114,8.3426 14.3906,7.416 2.4163,-0.3624 4.405,-0.9689 4.4239,-1.3477 0.017,-0.3788 0.6753,-1.5365 1.4609,-2.5742 1.3588,-1.7948 1.6931,-1.6458 6.8555,3.0723 3.8163,3.4879 7.3144,5.5932 11.789,7.0937 v 0 c 7.4372,2.4941 17.0238,2.8192 24.4942,0.8301 12.2736,-3.2681 27.3672,-14.7013 27.3672,-20.7305 0,-7.3939 5.5946,-15.0695 19.2714,-26.4394 11.9401,-9.9261 13.9104,-12.2241 13.4454,-15.6895 -0.2032,-1.5125 -0.045,-2.75 0.3515,-2.75 0.3966,0 2.0452,-1.2374 3.6641,-2.75 2.8549,-2.6672 3.2858,-2.75 14.3554,-2.75 9.8644,0 12.1237,-0.321 16.6543,-2.3691 6.0767,-2.747 11.7529,-8.5488 12.7344,-13.0176 0.376,-1.7118 0.9463,-3.1133 1.2676,-3.1133 1.2299,0 21.1329,11.5247 42.0059,24.3242 29.7569,18.2474 30.5312,18.6758 33.8652,18.6758 6.2414,0 9.6988,4.7582 11.3535,15.625 1.9139,12.5696 2.7003,13.631 8.0449,10.8672 4.1565,-2.1494 5.0065,-4.1996 3.3672,-8.123 -1.7937,-4.2933 -1.753,-7.8154 0.1074,-9.3594 0.8183,-0.6791 4.0808,-1.7454 7.25,-2.3711 4.6314,-0.9145 5.821,-1.5488 6.0606,-3.2266 0.3812,-2.668 -0.7985,-3.5984 -11.4942,-9.0722 -20.4291,-10.4554 -42.0786,-27.6125 -43.875,-34.7696 -0.9533,-3.7987 0.7811,-6.9675 4.879,-8.9121 4.7475,-2.2528 6.5793,-2.0856 7.6367,0.6953 1.4339,3.7715 8.5134,9.1473 23.5332,17.8731 7.7125,4.4806 15.2949,9.1888 16.8496,10.4609 1.5547,1.2722 3.8047,2.3147 5,2.3184 1.3576,0 3.0647,1.3178 4.5508,3.5 1.3084,1.9212 2.7709,3.4941 3.25,3.4941 0.4791,0 0.8711,1.9527 0.8711,4.3399 0,5.5061 4.926,15.6283 9.3086,19.1289 1.7555,1.4023 3.6414,3.008 4.1914,3.5664 0.55,0.5584 2.5449,2.5899 4.4316,4.5156 1.8867,1.9258 4.4742,3.7639 5.75,4.084 2.575,0.6462 3.1694,2.3652 0.8184,2.3652 -3.7083,0 0.2442,14.1768 4.2441,15.2227 2.7932,0.7304 7.0349,-1.3247 12.2559,-5.9375 2.4749,-2.1867 5.5125,-4.5116 6.75,-5.166 3.0541,-1.6152 2.853,-2.7103 -1.3614,-7.375 -5.0471,-5.5867 -7.9125,-12.2996 -6.5371,-15.3184 1.6933,-3.7164 5.1954,-5.3379 15.9376,-7.3848 11.2088,-2.1358 16.428,-4.3171 15.9961,-6.6835 -0.1904,-1.0433 -3.2298,-10.979 0.027,-12.2706 14.9058,-5.9117 26.042,-7.3535 19.7566,-14.8232 l -2.4317,-2.8906 5.8028,-1.1993 c 10.8072,-2.2322 15.6717,-7.7662 11.1035,-12.6288 l -2.1211,-2.2579 8.789,-4.2226 c 11.7969,-5.6684 19.2513,-7.562 23.8243,-6.0528 2.53,0.8351 3.471,1.7308 3.4824,3.3165 0.035,4.596 4.3031,10.0156 10.3066,13.0859 8.2004,4.1937 16.1955,4.0819 25.2012,-0.3516 9.041,-4.4508 8.9036,-6.5692 -0.4746,-7.3554 -3.822,-0.3205 -7.9634,-1.1265 -9.2051,-1.7911 l -2.2578,-1.207 3.4395,-2.8711 c 4.1419,-3.4578 15.9821,-8.1613 27.0156,-10.7304 6.4387,-1.4993 4.785,-3.592 8.5251,-6.747 9.8188,-8.2834 12.0491,-9.9692 6.1936,-15.1104 -3.5288,-3.0984 -4.9397,-5.0981 -27.5799,-12.319 -16.9413,-5.4033 -24.9433,-5.8144 -28.6982,-11.3365 -3.0218,-4.4443 0,0 -12.9836,-8.1649 -3.85,0.8442 -8.2714,1.5414 -9.8262,1.5527 l -2.8261,0.019 2.998,-3 c 6.7628,-6.7627 1.7929,-14.3745 -5.7741,-25.4923 -10.1139,-14.8599 -19.3765,-19.9745 -38.6302,-12.1248 -8.1337,3.316 -8.5004,3.3754 -9.4863,1.5332 -0.9215,-1.722 -0.6624,-1.9161 2.543,-1.9161 4.7513,0 10.0674,-2.3191 11.5136,-5.0214 1.4288,-2.6698 -2.4868,-4.0322 -5.0265,-8.3943 -1.8351,-3.1519 -5.1681,-10.4357 -2.6322,-12.7729 3.4301,-3.161 5.2832,-2.3887 5.2832,-7.891 l 6.3638,-6.9907 -4.8281,0.6407 c -3.1026,0.4115 -7.5293,0.042 -12.3789,-1.0371 -3.8257,-0.8512 -6.2454,-1.2166 -8.668,-1.1583 z m -313.6036,11.6895 c -0.8156,0.012 -1.687,0.1186 -2.6367,0.3086 -5.6903,1.138 -9.6916,3.6997 -11.4004,7.3008 -2.0583,4.3375 -1.5238,7.6974 3.1074,19.5546 1.8751,4.8007 3.4082,9.1704 3.4082,9.711 0,0.5406 1.9097,1.4964 4.2441,2.125 6.072,1.635 11.5127,4.6112 12.7891,6.9961 2.4782,4.6304 -2.7352,13.0399 -11.5293,18.5957 -2.4748,1.5635 -4.501,3.3597 -4.5019,3.9902 0,1.548 6.6665,7.3104 10.1601,8.7793 2.8136,1.183 2.8082,1.1874 -5.1719,5.0781 -5.9267,2.8897 -7.9902,4.3995 -7.9902,5.8477 0,1.8893 0.5763,1.9305 17.9414,1.2598 19.3753,-0.7484 34.8757,-2.674 40.5176,-5.0313 2.8466,-1.1894 3.5475,-2.0277 3.5664,-4.2793 0.021,-2.2805 0.7648,-3.1422 4.002,-4.6348 4.526,-2.0868 5.9667,-5.4088 3.7304,-8.6015 -0.7872,-1.1239 -4.4189,-4.3066 -8.0722,-7.0723 -5.1699,-3.9137 -7.2335,-6.2743 -9.3028,-10.6484 -4.6858,-9.9051 -12.6086,-15.9928 -25.7344,-19.7735 -5.6886,-1.6385 -5.8038,-1.7405 -4.1054,-3.6172 0.961,-1.0619 3.9311,-3.3332 6.6015,-5.0468 2.6705,-1.7136 4.8555,-3.683 4.8555,-4.377 0,-0.694 -2.665,-2.2336 -5.9238,-3.4219 -4.8725,-1.7766 -6.5581,-3.0409 -9.4824,-7.1113 -3.0709,-4.2744 -5.5381,-5.984 -9.0723,-5.9316 z m 148.8476,10.1347 c -2.6317,0.068 -5.4446,1.0486 -10.3613,3.5254 -8.0201,4.0403 -10.4167,7.2754 -5.3906,7.2754 h 2.7637 l -3.1914,3.1172 c -5.3517,5.2322 -4.5399,4.7723 4.4285,9.7159 2.957,1.63 6.6106,0.8226 7.5031,0.8339 2.047,0.023 9.3696,-1.5349 11.5449,-6.0967 1.53,-3.2053 1.5274,-3.6252 -0.023,-5.9922 -0.9175,-1.4003 -2.7971,-2.8311 -4.1777,-3.1777 l -2.5098,-0.6289 2.5918,-2.4043 c 3.6969,-3.4261 2.9029,-5.8017 -2.0547,-6.1426 -0.3741,-0.026 -0.747,-0.035 -1.123,-0.025 z m -172.5468,25.0411 c -2.6426,-0.019 -5.5094,0.8898 -7.9356,2.6836 -1.8563,1.3723 -4.3206,2.0761 -7.2812,2.0761 -7.5598,0 -16.3741,4.7172 -19.2676,10.3125 -1.4174,2.741 -1.3758,3.1446 0.5996,5.8164 l 2.1231,2.8711 -2.1973,2.9707 c -2.5465,3.4444 -2.8641,8.4543 -0.6758,10.6426 0.8359,0.8358 3.2727,2.1726 5.416,2.9688 8.8059,3.2711 23.2257,-0.3156 30.4961,-7.586 4.802,-4.802 6.8526,-10.4236 5.4336,-14.8945 -0.4372,-1.3777 -0.026,-2.3041 1.3516,-3.041 4.3478,-2.3269 3.0991,-8.5639 -2.6153,-13.0684 -1.4729,-1.161 -3.3919,-1.7372 -5.4472,-1.7519 z m 307.3808,11.791 c 3.2852,-0.061 6.6083,2.1972 7.1153,4.8359 0.6353,3.3065 0.4366,3.4941 -1.4063,1.3418 -0.8144,-0.9512 -2.8141,-2.7226 -4.4453,-3.9375 -2.1578,-1.6071 -2.5027,-2.2175 -1.2637,-2.2402 z m -146.1113,142.0508 c -2.0015,-0.031 -3.7248,0.6276 -5.457,1.9902 -4.2128,3.3138 -3.2299,11.0692 2.4062,18.9844 2.4907,3.4978 3.1941,3.5801 7.5742,0.873 9.5085,-5.8765 9.9239,-16.7176 0.7872,-20.5351 -2.0276,-0.8472 -3.7538,-1.2888 -5.3106,-1.3125 z m 56.9531,30.3261 c -7.1943,0.1111 -15.0449,3.8478 -15.0449,8.0078 0,3.9715 4.7933,7.0098 14.334,9.084 8.7654,1.9057 8.5751,1.9593 10.8086,-3.0898 3.1924,-7.217 1.4434,-11.6381 -5.3262,-13.461 -1.4858,-0.4 -3.1113,-0.5666 -4.7715,-0.541 z m 102.4102,29.1133 c -0.5411,0.017 -0.9671,0.06 -1.2461,0.1328 -3.7512,0.981 -2.7282,4.2006 2.0411,6.4219 3.3611,1.5654 5.9591,1.9211 12.4179,1.7012 4.492,-0.1531 8.5263,-0.6373 8.9649,-1.0762 1.299,-1.3 -1.0635,-4.039 -4.209,-4.8809 -4.7143,-1.2617 -14.1806,-2.42 -17.9688,-2.2988 z"
       inkscape:connector-curvature="0"
       sodipodi:nodetypes="sccccscsssccscccscccscsccccccscssccccccssccccccccccscccscccccccscccsscscccscsccccscssccccccccccsscccsscsscsccccssccscccscscccccsccccsccssscccccscccsccccssccccccccccccsccccccccccsccccccccccscccsccccccccsccsccccccccccsccccsccccsccsscccsccsccccccccsscscsccsssccccccccccscccssccccscccccsccccccccccccsccccccsccccccscscccscccccccccsccccccsscccccscccscccccsccccccccccccccscccccsccscccccccccccccccsccccccccscc" />
  </g>
  <g
     inkscape:groupmode="layer"
     id="layer9"
     inkscape:label="Australia"
     transform="translate(0,-944.88189)"
     style="display:inline">
    <g
       style="display:inline;fill:#008700;fill-opacity:1;fill-rule:nonzero;stroke:#000000;stroke-width:0.15812571;stroke-miterlimit:1;stroke-dasharray:none;stroke-opacity:1"
       id="Oceanie"
       transform="matrix(4.7020953,0,0,4.8600256,-20.100915,955.58599)">
      <path
         style="fill:#008700;fill-opacity:1;stroke:#000000;stroke-width:0.15812571;stroke-linejoin:bevel;stroke-miterlimit:1;stroke-dasharray:none;stroke-opacity:1"
         d="m 726.60498,297.24701 c -3.12154,-0.8733 -6.56911,-8.33599 -1.03352,-5.93358 6.79749,-0.14968 4.76937,2.76183 1.03352,5.93358 z M 716.883,224.34399 c 2.15761,3.64273 2.67548,7.82026 6.39796,10.18184 0.6442,5.12965 3.0696,9.00223 7.65016,11.12101 2.1503,5.00551 7.34719,7.24625 9.51247,12.46837 1.61735,5.49541 1.01156,11.66515 -2.74883,16.18488 -3.61319,3.13107 -2.52307,11.37671 -8.74144,10.79643 -2.93458,3.45984 -6.80191,-1.46566 -10.3301,1.11317 -4.97824,0.87471 -7.03702,-3.70572 -8.82468,-6.59158 -3.21837,1.25138 -0.41978,-5.30704 -3.33763,-1.68958 -3.12187,4.06155 3.4276,-7.60603 -0.7137,-3.32673 -1.89142,2.95756 -4.94813,4.29513 -5.72662,-0.0542 -5.23427,-6.01566 -13.90785,-3.69509 -20.48516,-1.70822 -3.85975,3.79557 -9.60847,1.89093 -14.08881,4.18458 -3.31057,3.05192 -12.22125,0.44904 -7.74212,-4.09739 -0.51873,-5.00825 -3.87777,-10.58275 -5.35024,-14.41757 1.79079,1.43905 -1.14167,-2.1232 1.80553,0.16201 -3.58959,-5.2276 -0.17159,-10.52028 5.41252,-12.07076 4.36831,-1.69379 10.31076,-1.44739 12.49661,-6.58109 0.41045,-2.49034 1.56774,-3.2141 3.20644,-1.28629 -1.32785,-2.57813 3.53816,-1.17707 1.73013,-3.59654 2.66284,-2.51472 6.49964,-6.22634 8.61851,-1.13513 1.62734,-0.95055 3.90405,0.33264 3.20781,-2.97918 -0.34847,-3.92643 8.63417,-2.64687 5.1884,-5.6118 2.47902,1.7585 10.26888,1.2081 9.73165,3.39367 -5.36827,5.86729 3.67939,7.47203 7.01092,10.39122 6.59042,0.1902 3.25819,-9.14844 5.36111,-13.19969 l 0.32436,-0.80912 z"
         id="Australie"
         inkscape:connector-curvature="0" />
      <path
         style="fill:#008700;fill-opacity:1;stroke:#000000;stroke-width:0.15812571;stroke-linejoin:bevel;stroke-miterlimit:1;stroke-dasharray:none;stroke-opacity:1"
         d="m 790.15002,283.022 c 1.95192,-1.13286 4.14059,4.26641 6.44256,1.18006 1.61537,2.74899 -4.04239,4.09336 -4.36241,7.1251 -4.03975,2.65988 -1.1407,-3.22327 -4.8736,-3.65303 5.15131,-3.14847 -2.12375,-7.96146 -2.11328,-10.32739 3.67604,0.70601 2.90788,4.25478 4.90673,5.67526 z m -7.21099,14.672 c -3.37459,1.71283 -4.25744,8.36436 -9.72697,5.65231 -5.6243,-2.99583 6.42262,-6.17245 8.30122,-9.07675 0.83742,-3.85825 4.87598,-3.23909 5.96953,-1.23001 -2.32396,2.34075 -1.77054,4.6405 -4.54378,4.65445 z"
         id="Nouvelle-zelande"
         inkscape:connector-curvature="0" />
    </g>
  </g>
  <g
     inkscape:groupmode="layer"
     id="layer11"
     inkscape:label="Antarctica"
     transform="translate(0,-944.88189)"
     style="display:inline">
    <path
       id="Antarctique"
       transform="translate(-30,1005.8819)"
       style="display:inline;fill:#ffffff;fill-opacity:1;fill-rule:nonzero;stroke:#000000;stroke-width:0.75590551;stroke-linejoin:bevel;stroke-miterlimit:1;stroke-dasharray:none;stroke-opacity:1"
       d="m 3016.5996,1636.3398 c -143.59,-0.5108 -293.5862,16.9219 -410.1601,49.0508 -93.7224,-103.4414 -332.2388,11.4673 -482.7012,-6.4082 -186.7502,-14.9175 -358.7636,29.8294 -533.9219,70.1504 -0.049,0.041 -0.1014,0.08 -0.1465,0.1231 0.034,-0.034 0.044,-0.054 0.094,-0.1094 -0.02,0 -0.04,0.01 -0.061,0.014 -0.134,0.1433 -0.2724,0.2822 -0.4062,0.4257 0.056,-0.045 0.124,-0.081 -0.1074,0.1153 0.036,-0.038 0.072,-0.077 0.1074,-0.1153 -0.036,0.029 -0.3375,0.2685 -0.6289,0.502 0.034,-0.014 0.067,-0.031 0.1054,-0.035 0,-4e-4 0,2e-4 0.01,0 0.1336,-0.1243 0.2463,-0.2147 0.3965,-0.3418 -0.07,0.074 -0.1391,0.1492 -0.2109,0.2207 -0.051,0.05 -0.1264,0.094 -0.1758,0.1231 0.1405,0.01 -0.3819,0.288 -0.5547,0.416 -0.021,0.016 -0.032,0.018 -0.066,0.043 -0.1125,0.1075 -0.2266,0.2151 -0.209,0.1758 -0.3653,0.4405 -0.7157,0.8279 -0.7246,0.8339 -0.1195,0.08 -0.2494,0.1428 -0.377,0.209 0.159,-0.1244 -0.085,-0.027 -0.4492,0.1485 0.088,-0.092 0.1643,-0.1663 0.2598,-0.2754 -0.2299,0.1341 -0.3926,0.2183 -0.2715,0.1 0.2362,-0.2455 0.4909,-0.4688 0.7519,-0.6875 0.222,-0.2939 0.3488,-0.5043 0.1329,-0.3418 -0.5668,0.4267 -1.0426,0.9572 -1.5079,1.498 -0.011,0.01 -0.024,0.017 -0.035,0.025 0.6122,-0.7915 1.5457,-2.2704 -0.2344,-0.1152 0.4564,-0.6266 0.89,-1.2368 0.9024,-1.3301 -0.01,-0.03 -0.1656,0.1125 -0.5606,0.5566 -0.2946,0.3315 -0.5342,0.7046 -0.7637,1.086 0.048,0 0.1002,0 0.1485,-0.01 0.048,-0.049 0.084,-0.086 0.1758,-0.1777 0.032,-0.039 0.065,-0.08 0.096,-0.1172 -0.021,0.028 -0.03,0.046 -0.051,0.074 0.063,-0.063 0.049,-0.051 0.1172,-0.1191 -0.1633,0.214 -0.1559,0.2045 -0.2051,0.2695 0.028,-0.04 0.055,-0.079 0.092,-0.1289 -0.026,0.026 -0.024,0.022 -0.049,0.047 -0.048,0.059 -0.095,0.1166 -0.1446,0.1777 0.012,-3e-4 0.023,0 0.035,0 0.01,-0.01 0.01,-0.014 0.016,-0.022 0.01,0 0.01,10e-5 0.014,0 0.1541,-0.072 0.2818,-0.1267 0.4101,-0.1875 -0.022,0.027 -0.04,0.049 -0.059,0.074 0.01,0 0.016,-0.017 0.024,-0.019 l 0.072,-0.082 c 0.076,-0.036 0.1808,-0.082 0.2461,-0.1133 0.082,-0.081 -0.046,0.05 0.01,0 0.099,-0.048 0.2921,-0.1352 0.373,-0.1738 -0.038,0.04 -0.075,0.083 -0.1093,0.1172 0.03,-0.012 0.058,-0.011 0.088,-0.024 0.1033,-0.061 0.1998,-0.1334 0.3047,-0.1914 0.065,-0.036 -0.1167,0.086 -0.1778,0.1328 0.1165,-0.051 0.2293,-0.1076 0.3418,-0.166 -0.093,0.071 -0.2078,0.1561 -0.4433,0.3281 -0.1125,0.044 -0.3195,0.138 -0.4981,0.2168 -0.061,0.037 -0.083,0.052 -0.1113,0.064 l -0.01,-0.012 c -0.023,0.01 -0.042,0.013 -0.061,0.023 l -0.012,0.012 c 0.01,-2e-4 0.011,0 0.017,0 0.017,-0.01 0.043,-0.012 0.061,-0.023 -0.01,0.01 -0.024,0.016 -0.033,0.022 28.2463,-0.6879 29.2182,8.501 -106.7969,31.4043 -152.6731,71.4158 -578.22379,-11.9379 -383.6074,-20.1133 54.9634,33.2286 108.8654,17.8118 154.459,-55.8242 -20.8483,-9.0813 -30.9754,-18.4764 -34.1485,-27.6602 -0.6475,-0.4605 -1.2633,-0.9448 -1.6328,-1.3945 -0.2746,-0.3338 -0.5289,-0.6836 -0.7754,-1.0391 0.1489,0.058 0.3044,0.107 0.459,0.1563 -0.2297,-0.1489 -0.4528,-0.3076 -0.6758,-0.4668 0.06,0.089 0.1177,0.1778 0.1778,0.2656 -0.1347,-0.1433 -0.2696,-0.2864 -0.4043,-0.4297 -0.057,-0.042 -0.1218,-0.1134 -0.1836,-0.1738 0.012,0.01 0.025,0.01 0.037,0.016 -0.074,-0.079 -0.1486,-0.1574 -0.2227,-0.2363 -0.014,-0.01 -0.027,-0.014 -0.041,-0.02 0.078,0.092 0.151,0.1644 0.2246,0.2364 -0.143,-0.068 -0.2778,-0.1296 -0.4199,-0.1973 0.2264,0.3298 0.3107,0.443 0.5723,0.8262 0.3122,0.4574 -0.3703,-0.2528 -1.0899,-1.0664 0.1801,0.084 0.327,0.1485 0.5156,0.2383 -0.051,-0.074 -0.08,-0.1141 -0.1289,-0.1856 -0.1966,-0.09 -0.3917,-0.1812 -0.5879,-0.2715 0.074,0.085 0.1259,0.1339 0.1993,0.2168 -0.499,-0.234 -0.9906,-0.4621 -1.3204,-0.5898 -0.3184,-0.288 -0.099,-0.091 -0.371,-0.3379 -0.054,-0.027 -0.1101,-0.05 -0.1641,-0.076 l 0.033,0.037 c 0.4171,0.3529 0.8694,0.6682 1.2344,1.0742 0.2686,0.2989 -0.685,-0.4388 -0.9532,-0.7382 -0.097,-0.1086 -0.1864,-0.225 -0.2812,-0.336 -0.019,-0.016 -0.037,-0.036 -0.055,-0.053 0.01,0 0.013,0.01 0.02,0.014 -0.084,-0.099 -0.1682,-0.1954 -0.25,-0.295 -1.1535,-1.0465 -1.6761,-1.521 -1.9101,-1.7343 -0.023,-0.012 -0.044,-0.022 -0.068,-0.033 0.4671,0.4475 1.0101,0.9764 1.4707,1.4492 0.097,0.1 -0.2461,-0.1372 -0.3437,-0.2363 -0.3869,-0.393 -0.7547,-0.8053 -1.127,-1.2129 -0.01,0 -0.014,6e-4 -0.02,-0.01 -0.075,-0.082 -0.1518,-0.1619 -0.2266,-0.2441 -0.1641,-0.1487 -0.4455,-0.3976 0.2246,0.2441 -0.3662,-0.2118 -0.691,-0.4919 -0.9941,-0.8066 0.045,0.071 0.094,0.1392 0.1387,0.2109 0.2384,0.3857 -0.4161,-0.3686 -0.9805,-1.0625 0.088,0.066 0.2077,0.1724 0.2793,0.2207 0.1812,0.2196 0.3682,0.4276 0.5605,0.6269 -0.1015,-0.1593 -0.2069,-0.316 -0.3125,-0.4726 -0.019,-0.019 -0.037,-0.038 -0.057,-0.057 -0.057,-0.026 -0.1029,-0.042 -0.1914,-0.1016 -0.101,-0.1234 -0.2044,-0.2474 -0.3047,-0.3731 -0.1783,-0.1749 -0.2937,-0.2939 -0.4668,-0.4668 0.1261,0.168 0.3027,0.3906 0.4902,0.6211 -0.2375,-0.1785 -0.5198,-0.4087 -0.7988,-0.6504 -10.034,8.0383 -20.7919,14.776 -32.1836,20.3907 -11.1729,-18.5226 -66.5708,-38.757 -43.4629,15.6972 -84.5203,21.3585 -191.33072,3.9457 -291.05856,4.1192 -12.08499,67.634 -115.44888,-13.1363 -220.14844,16.8594 -109.42152,-1.3321 -520.842074,11.1828 -259.26367,62.6835 -130.1628,-6.0896 -49.4647,65.04 37.82813,47.2735 -27.49992,61.034 -362.393108,-87.9774 -387.3515662,56.6308 C 1224.8173,1894.3516 2440.3249,1894.327 3655.832,1894.3262 c 133.4695,49.1988 146.7446,-106.5915 11.5586,-71.2774 -2.2936,10.5711 -169.0743,-58.7021 -41.9043,-49.9687 -117.3724,-42.6805 146.1398,-81.693 -6.5117,-87.4239 -161.6039,-28.0116 -319.7489,-60.5774 -484.1406,-44.5957 -38.3265,-3.0278 -78.0292,-4.5776 -118.2344,-4.7207 z m -1430.1894,114.4141 c 3e-4,9e-4 0.01,-0.01 0.01,-0.01 h -0.01 c -10e-5,6e-4 0,0.01 0,0.01 z m -381.2364,-79.6719 c 0.01,0.01 0.01,0.011 0.016,0.021 z m -0.039,0.033 c -0.01,0.01 -0.018,0.014 -0.027,0.024 0.069,0.069 0.081,0.089 0.1524,0.1601 -0.063,-0.083 -0.091,-0.1324 -0.125,-0.1836 z m 2.959,2.7969 c 0.1884,0.2109 0.3725,0.3983 0.5234,0.5059 0.076,0.054 0.1587,0.097 0.2363,0.1484 -0.2056,-0.166 -0.4398,-0.3653 -0.7597,-0.6543 z m 5.7343,4.3867 v 0 c -0.053,-0.01 0.1964,0.1165 0.3047,0.1504 0.1722,0.054 0.508,0.1782 0.7617,0.2676 -0.01,-0.01 -0.01,-0.014 -0.016,-0.02 -0.3855,-0.1555 -0.7795,-0.3171 -1.0508,-0.4004 z m 1.0684,0.4395 c 0.1354,0.1621 0.3351,0.3722 0.5019,0.5605 0,-0.014 -0.01,-0.029 -0.012,-0.043 -0.2118,-0.2481 -0.3016,-0.3757 -0.061,-0.1758 -0.014,-0.048 -0.03,-0.096 -0.043,-0.1446 -0.027,-0.029 -0.056,-0.064 -0.082,-0.092 -0.1081,-0.04 -0.2038,-0.069 -0.3047,-0.1055 z m 0.3105,0.096 c 0.021,0.01 0.04,0.016 0.061,0.025 -0.02,-0.01 -0.039,-0.015 -0.061,-0.025 z m 374.0039,70.6914 c -0.01,0 -0.033,0.024 -0.086,0.062 -0.044,0.033 -0.5028,0.452 -0.8789,0.793 -0.037,0.048 -0.071,0.085 -0.1094,0.1328 0.077,-0.067 0.1501,-0.13 0.2559,-0.2227 0.3977,-0.3646 0.8531,-0.7688 0.8183,-0.7617 z m -0.4804,0.2324 c -0.042,0.035 -0.085,0.069 -0.127,0.1035 -0.05,0.079 -0.1001,0.1576 -0.1601,0.2422 0.078,-0.095 0.185,-0.2234 0.2871,-0.3457 z m -0.5469,0.4414 c -0.3484,0.2745 -0.6916,0.5558 -1.0313,0.8399 -0.1363,0.1805 -0.2995,0.377 -0.4785,0.582 0.045,-0.026 0.088,-0.033 0.1367,-0.061 0.263,-0.1991 0.5406,-0.3761 0.7969,-0.582 -0.094,0.074 0.079,-0.087 0.3867,-0.3691 -0.069,0.082 -0.1474,0.1526 -0.2265,0.2246 0.046,-0.039 0.2128,-0.1823 0.291,-0.25 0.034,-0.044 0.013,-0.036 0.066,-0.1016 -0.048,0.044 -0.07,0.06 -0.1152,0.1016 0.079,-0.096 0.1317,-0.2327 0.1738,-0.3828 z"
       inkscape:connector-curvature="0" />
  </g>
  <metadata
     id="metadata3061">
    <rdf:RDF>
      <cc:Work
         rdf:about="">
        <dc:format>image/svg+xml</dc:format>
        <dc:type
           rdf:resource="http://purl.org/dc/dcmitype/StillImage" />
        <dc:title>World Map</dc:title>
      </cc:Work>
    </rdf:RDF>
  </metadata>
  <defs
     id="defs3059">
    <style
       id="style2987"
       type="text/css">
      .sea  { fill: #C6ECFF; fill-opacity:1;
              stroke:none;
            }
      .land { fill: #FEFEE9; fill-opacity:1; fill-rule:nonzero;
              stroke:#646464;stroke-width:0.25;stroke-miterlimit:1;
            }
      .carved-out { fill:none;
              stroke:#646464;stroke-width:0.25;stroke-miterlimit:1;
              stroke-dasharray:0.25,0.25;stroke-dashoffset:0;
      }

/*
      La mise en evidence d'un pays :
      #Russie { fill: red; }
*/
    </style>
  </defs>
  <sodipodi:namedview
     pagecolor="#ffffff"
     bordercolor="#666666"
     borderopacity="1"
     objecttolerance="10"
     gridtolerance="10"
     guidetolerance="10"
     inkscape:pageopacity="0"
     inkscape:pageshadow="2"
     inkscape:window-width="1920"
     inkscape:window-height="1017"
     id="namedview3057"
     showgrid="false"
     units="mm"
     inkscape:zoom="0.20624546"
     inkscape:cx="1288.736"
     inkscape:cy="845.46787"
     inkscape:window-x="-8"
     inkscape:window-y="-8"
     inkscape:window-maximized="1"
     inkscape:current-layer="layer12" />
  <title
     id="title2">World Map</title>
  <style
     id="style_css_sheet"
     type="text/css">

/*
 * Below are Cascading Style Sheet (CSS) definitions in use in this file,
 * which allow easily changing how countries are displayed.
 *
 * The styles are applied in the order in which they are defined (and re-defined) here in the preamble.
 */

/*
 * Circles around small countries and territories
 *
 * Change opacity to 1 to display all circles
 */
.circlexx
{
   opacity:0;
   fill:#c0c0c0;
   stroke:#000000;
   stroke-width:0.5;
}

/*
 * Smaller circles around subnational territories: Australian external territories, Chinese SARs, Dutch special municipalities, and French DOMs (overseas regions/departments) [but not French COMs (overseas collectivities)]
 *
 * Change opacity to 1 to display all circles
 */
.subxx
{
   opacity:0;
   fill:#c0c0c0;
   stroke:#000000;
   stroke-width:0.3;
}


/*
 * Land
 * (all land, as opposed to water, should belong to this class; in order to modify the coastline for land pieces with no borders on them a special class &quot;coastxx&quot; has been added below)
 */
.landxx
{
   fill:#c0c0c0;
   stroke:#ffffff;
   stroke-width:0.5;
   fill-rule:evenodd;
}

/*
 * Styles for coastlines of islands and continents with no borders on them
 * (all of them should also belong to the class &quot;landxx&quot; - to allow for all land to be modified at once by refining &quot;landxx&quot; style's definition further down)
 */
.coastxx
{
   stroke-width:0.2;
}


/*
 * Styles for territories without permanent population (the largest of which is Antarctica)
 *
 * Change opacity to 0 to hide all territories
 */
.antxx
{
   opacity:1;
   fill:#c0c0c0;
}

/*
 * Circles around small countries without permanent population
 *
 * Change opacity to 1 to display all circles
 */
.noxx
{
   opacity:0;
   fill:#c0c0c0;
   stroke:#000000;
   stroke-width:0.5;
}


/*
 * Styles for territories with limited or no recognition
 * (all of them - including Taiwan - are overlays (i.e. duplicate layers) over their &quot;host&quot; countries, and so not showing them doesn't leave any gaps on the map)
 *
 * Change opacity to 1 to display all territories
 */
.limitxx
{
   opacity:0;
   fill:#c0c0c0;
   stroke:#ffffff;
   stroke-width:0.2;
   fill-rule:evenodd;
}

/*
 * Smaller circles around small territories with limited or no recognition
 *
 * Change opacity to 1 to display all circles
 */
.unxx
{
   opacity:0;
   fill:#c0c0c0;
   stroke:#000000;
   stroke-width:0.3;
}


/*
 * Oceans, seas, and large lakes
 */
.oceanxx
{
   opacity:1;
   fill:#ffffff;
   stroke:#000000;
   stroke-width:0.5;
}

/*
 * Reserved class names:
 *
 * .eu - for members of European Union
 * .eaeu - for members of Eurasian Economic Union
 */


/*
 * Additional style rules
 *
 * The following are examples of coloring countries.
 * These can be substituted with custom styles to color the countries on the map.
 *
 * Color a few countries:
 *
 * .gb, .au, .nc
 * {
 *    fill:#ff0000;
 * }
 *
 * Color a few small-country circles (along with the countries):
 *
 * .ms, .ky
 * {
 *    opacity:1;
 *    fill:#ff0000;
 * }
 *
 */


  </style>
  <!--
/*
 * Countries with subnational territories (Australia, China, France, Netherlands)
 *
 */
-->
  <!--
/*
 * Small countries and territories with an optional circle around them
 *
 */
-->
  <!--
/*
 * Territories without ISO 3166-1 codes are listed above inside their respective host countries' groupings:
 *
 * xa, xo, xj, xk, xs, xq, xn, xz, xv, xp, xd, xl, xc
 */
-->
  <style
     type="text/css"
     id="mapStyle"><![CDATA[
/* Cascading Style Sheet (CSS) definitions for region colours */

/* land: #E0E0E0 -- outside area (or default land colour)
 * sea: #FFFFFF -- ocean / sea / lake
 * border: none -- land borders
 * subject land: #E0E0E0 -- subject colour
 * other land: #E0E0E0 -- other lands of the same political unity
 * coast: #646464 -- lake's coast, rivers, sea coasts
 * political border: none -- Other minor political borders
 * interest border: none -- border colour for areas of interest
 */

/* basic styles */
path{
   stroke-linejoin: bevel;
}

path,circle{
   stroke-width: 0.25;
}

/* Main region definition */

.region{
   fill: #E0E0E0;
   stroke: none;
   stroke-width: 0.25;
}

/* Political groupings */

.political{
   fill: #E0E0E0;
   stroke: none;
}

/* Subject / area of interest */

.subject{
   fill: #E0E0E0;
   stroke: none;
}

circle.highlight{
   stroke-width: 0.625;
}

/* Sea and decoration */
.seabase{
   fill: #FFFFFF;
   stroke: none;
}

.mapborder{
   fill: none;
   stroke: #646464;
}

.mapshadow{
  fill: url(#grSea);
  stroke: none;
}

/* Grid lines */
.grid{
  fill: none;
  stroke: #646464;
}

/* Colouring a particular country, use '*' with group ID */
/*
 * #gNZL *{
 *   fill: #ff0000;
 *   stroke: black;
 * }
 */
/* ...or '.' with country name */
/*
 * .NZL *{
 *   fill: #ff0000;
 *   stroke: black;
 * }
 */
]]></style>
</svg>
