<?xml version="1.0" encoding="UTF-8" standalone="no"?>
<!-- Created with Inkscape (http://www.inkscape.org/) -->

<svg
   xmlns:dc="http://purl.org/dc/elements/1.1/"
   xmlns:cc="http://creativecommons.org/ns#"
   xmlns:rdf="http://www.w3.org/1999/02/22-rdf-syntax-ns#"
   xmlns:svg="http://www.w3.org/2000/svg"
   xmlns="http://www.w3.org/2000/svg"
   xmlns:sodipodi="http://sodipodi.sourceforge.net/DTD/sodipodi-0.dtd"
   xmlns:inkscape="http://www.inkscape.org/namespaces/inkscape"
   width="300mm"
   height="210mm"
   viewBox="0 0 300 210"
   version="1.1"
   id="svg19563"
   inkscape:version="0.92.4 (5da689c313, 2019-01-14)"
   sodipodi:docname="xNAmer.svg">
  <defs
     id="defs19557" />
  <sodipodi:namedview
     id="base"
     pagecolor="#ffffff"
     bordercolor="#666666"
     borderopacity="1.0"
     inkscape:pageopacity="0.0"
     inkscape:pageshadow="2"
     inkscape:zoom="0.35355339"
     inkscape:cx="672.5858"
     inkscape:cy="24.319982"
     inkscape:document-units="mm"
     inkscape:current-layer="layer1"
     showgrid="false"
     inkscape:window-width="1920"
     inkscape:window-height="1017"
     inkscape:window-x="1912"
     inkscape:window-y="-8"
     inkscape:window-maximized="1" />
  <metadata
     id="metadata19560">
    <rdf:RDF>
      <cc:Work
         rdf:about="">
        <dc:format>image/svg+xml</dc:format>
        <dc:type
           rdf:resource="http://purl.org/dc/dcmitype/StillImage" />
        <dc:title></dc:title>
      </cc:Work>
    </rdf:RDF>
  </metadata>
  <g
     inkscape:label="Layer 1"
     inkscape:groupmode="layer"
     id="layer1"
     transform="translate(0,-87)">
    <path
       style="display:inline;fill:none;fill-opacity:1;stroke:#000000;stroke-width:0.2;stroke-miterlimit:4;stroke-dasharray:none;stroke-opacity:1"
       d="m 17.029261,115.9353 c 0.146763,0.0105 6.965739,3.04343 12.754121,6.1354 0.622351,0.33247 0.704641,0.31549 1.552282,-0.31928 0.670926,-0.50251 1.449175,-0.78083 3.10764,-1.11137 1.893422,-0.37742 3.062274,-0.37286 8.103334,0.0312 7.289408,0.58428 9.139222,0.52862 12.303864,-0.36998 2.365884,-0.67179 2.473043,-0.67715 3.503095,-0.1752 3.137129,1.52867 5.528895,0.67715 8.992739,-3.20161 2.680884,-3.00203 4.397984,-3.97426 6.566181,-3.71775 4.903422,0.83118 0.716857,0.92856 2.984079,2.09524 1.829649,-1.53751 1.691373,-1.29096 2.262284,-3.43497 0.976191,-3.50068 5.18569,-8.19233 10.542905,-11.75045 2.472523,-1.642176 4.070639,-2.088459 4.420443,-1.234395 0.177911,0.434286 -0.05488,0.747562 -1.324158,1.782185 -1.769435,1.44232 -2.865553,3.03185 -2.658041,3.85459 0.07972,0.31604 0.556072,0.76889 1.073199,1.02025 1.623182,0.78897 4.556284,0.37455 7.569088,-1.06949 0.68167,-0.32671 0.84459,-0.29871 1.256094,0.21582 0.61859,0.77347 2.13069,1.05788 5.97733,1.12416 3.84601,0.0663 4.96036,0.52837 4.10314,1.70162 -0.27247,0.37287 -0.1834,0.44079 0.67261,0.51293 3.01738,0.25424 3.89601,1.82391 2.39381,4.27651 -1.00243,1.63657 -3.05679,3.27268 -5.43554,4.32889 -1.45306,0.6452 -2.30739,1.21466 -3.1158,2.07681 -1.61275,1.72006 -1.03962,1.74715 4.26029,0.20141 6.11566,-1.7836 8.66975,-1.94453 9.01692,-0.56809 0.0765,0.30366 0.54019,0.38874 1.73189,0.31807 0.89502,-0.0531 1.83608,0.003 2.09123,0.12508 2.44885,1.16989 -3.65776,4.64792 -9.528,5.4267 -2.89094,0.38351 -5.64891,1.04746 -6.59431,1.58737 -0.51692,0.29523 -0.3745,0.35795 1.17462,0.51749 0.9696,0.0998 4.17955,0.28399 7.13323,0.40929 2.95366,0.12527 5.45929,0.28093 5.56805,0.34586 0.4424,0.26421 -0.12407,1.59124 -1.18544,2.77691 -2.3088,2.57927 -7.38732,5.76284 -16.83197,10.55141 l -5.001977,2.53605 -2.343886,0.0154 c -3.675465,0.0241 -7.33134,0.51475 -15.329706,2.05734 -4.078817,0.78668 -8.179273,1.5139 -9.112141,1.61606 -1.292781,0.14156 -2.04278,0.37413 -3.153851,0.97811 -2.216352,1.20462 -5.485304,1.79073 -7.55354,1.35425 -4.607574,-0.90486 -2.670434,-2.21279 -6.260672,-0.71848 -0.05942,0.0996 -0.869001,0.17591 -1.79907,0.16967 -1.265498,-0.008 -2.950256,0.30465 -6.695323,1.2442 -4.877574,1.224 -5.165314,1.32895 -11.366902,4.15772 -8.436547,3.84836 -8.629764,3.63795 -8.629764,3.63795 -0.509884,-3.15809 -6.400616,-37.05985 -6.928897,-40.22003 -0.02974,-0.0687 -0.265593,-1.29078 -0.265593,-1.29078 z"
       id="path20928"
       inkscape:connector-curvature="0" />
    <g
       id="g20945"
       transform="rotate(30.949564,403.29658,680.13122)">
      <g
         id="g20970"
         transform="rotate(-150.16433,64.862308,340.90096)">
        <path
           inkscape:connector-curvature="0"
           style="display:inline;fill:none;fill-opacity:1;stroke:#000000;stroke-width:0.2;stroke-miterlimit:4;stroke-dasharray:none;stroke-opacity:1"
           d="m 143.3853,297.03871 c 0.0384,1.78026 0.90335,4.23508 2.50057,8.82107 1.19345,3.42626 1.32937,4.28538 0.85496,5.40393 -0.39323,0.92712 -0.78582,1.14034 -2.31448,1.25692 -1.30329,0.0994 -1.45101,-0.0465 -2.11908,-2.09184 -0.7004,-2.14433 -2.72675,-5.12116 -4.55298,-6.68854 -3.33535,-2.86266 -7.34835,-3.85357 -12.91305,-3.18854 -3.86857,0.46234 -4.18948,0.5768 -3.96251,1.41323 0.10855,0.39999 -0.0217,0.83016 -0.37687,1.24388 -0.50627,0.58993 -0.70536,0.63441 -2.96072,0.66147 -1.32891,0.0159 -3.55874,-0.0679 -4.95422,-0.18623 -3.65071,-0.30962 -7.09447,-0.0794 -8.07899,0.54013 -1.2333,0.77605 -2.17458,2.23651 -3.53581,5.48602 -0.72328,1.7266 -1.607785,3.36415 -2.075415,3.84248 l -0.815,0.83354 0.97319,0.16527 c 1.149965,0.19529 1.197955,0.46335 0.51019,2.84991 -1.86637,6.47647 1.997545,14.9964 7.868805,17.35064 2.25392,0.90379 4.71076,0.7948 7.1004,-0.31498 1.85349,-0.86078 2.54405,-1.57313 4.16725,-4.29878 2.40283,-4.03484 4.19843,-5.61228 6.60519,-5.80236 1.32809,-0.1053 3.95184,0.7503 4.25323,1.38639 0.10386,0.2191 -0.0746,1.04328 -0.39656,1.83154 -1.40392,3.43739 -2.1064,6.28395 -2.0177,8.17621 0.0693,1.47829 -0.0568,2.20829 -0.62673,3.62674 -0.70253,1.74873 -0.70478,1.77835 -0.14735,1.93757 0.31137,0.0889 1.33841,-0.0343 2.28232,-0.27385 1.00762,-0.25571 2.76078,-0.44957 4.24616,-0.46953 4.24212,-0.057 6.89977,0.8396 6.73747,2.27288 -0.0476,0.42027 0.13555,0.92527 0.48003,1.32385 0.30634,0.35445 0.74841,1.36402 0.98237,2.24355 0.63691,2.39435 0.34343,4.77155 -0.97797,7.91883 -0.0474,0.11307 0.10168,0.19121 0.33138,0.17374 0.6445,-0.0492 2.60245,1.77197 2.87353,2.67272 0.13315,0.44253 0.36398,0.79529 0.51289,0.78393 0.14887,-0.0113 0.66795,0.26503 1.15348,0.61421 l 0.88279,0.63482 4.07268,-0.52785 c 6.59299,-0.85448 7.46713,-0.80419 8.2835,0.47643 0.87988,1.38025 0.39926,4.30813 -0.72123,4.39358 -0.6657,0.0508 -1.04326,-0.3959 -1.44574,-1.71029 -0.47001,-1.53502 -1.11197,-2.07492 -2.35452,-1.98016 -0.96737,0.0738 -1.06509,0.16848 -2.03733,1.9743 -1.37882,2.561 -2.03107,2.82725 -4.4008,1.7966 l 2.2e-4,1.5e-4 c -0.75352,-0.32778 -1.60809,-0.73452 -1.89896,-0.90398 -0.36803,-0.21435 -0.66918,-0.21864 -0.99008,-0.0141 -0.34296,0.21863 -0.59106,0.18253 -0.96784,-0.14086 -0.27867,-0.23917 -0.70389,-0.381 -0.94492,-0.31526 -0.28491,0.0777 -0.71496,-0.25991 -1.22881,-0.96464 -0.94927,-1.30199 -1.43031,-1.65974 -3.83808,-2.85448 -2.10914,-1.04653 -2.82921,-1.74792 -2.5183,-2.45302 0.16719,-0.37935 -0.0812,-0.63595 -1.30507,-1.34812 -1.82514,-1.06208 -3.43022,-2.54099 -3.72875,-3.43581 -0.2142,-0.64205 -0.18555,-1.10157 0.129,-2.06875 0.19731,-0.60679 -0.39179,-0.57862 -2.41146,0.11521 -1.87127,0.6429 -3.26257,0.43849 -4.17122,-0.61282 -0.46917,-0.54279 -0.71371,-0.65395 -0.94545,-0.42974 -0.42248,0.40881 -2.58847,0.25368 -4.01825,-0.28774 -0.77377,-0.293 -1.31925,-0.73371 -1.69872,-1.37376 -0.38644,-0.65126 -0.7024,-0.90317 -1.02304,-0.81569 -0.2552,0.0696 -1.79833,-0.60368 -3.42919,-1.49623 -4.63517,-2.53681 -6.25607,-2.74333 -7.94818,-1.0127 l -0.81367,0.83218 -1.48379,-0.52532 c -0.81608,-0.28893 -3.730945,-1.13547 -6.477445,-1.88125 -6.4485,-1.75089 -8.66875,-2.48119 -10.86795,-3.57466 -3.93358,-1.95581 -5.48177,-3.6684 -6.11198,-6.76096 -0.76473,-3.75274 -2.85708,-6.44243 -8.61384,-11.07305 -1.91901,-1.54368 -3.83849,-3.22908 -4.26547,-3.74547 -0.42697,-0.51639 -1.18257,-1.19571 -1.67907,-1.50963 -1.43955,-0.91015 -3.04129,-2.68838 -5.42372,-6.02146 -1.22057,-1.70762 -2.92702,-3.72888 -3.79212,-4.49171 -2.34567,-2.06834 -4.05005,-2.10677 -3.83139,-0.0864 0.12844,1.18709 1.30548,2.72823 4.82759,6.32116 1.45049,1.47966 2.98536,3.26077 3.41083,3.95803 0.42548,0.69728 2.01605,2.88143 3.53462,4.85365 3.9766,5.1646 4.3219,5.82462 3.09614,5.91811 -0.97895,0.0747 -3.3468,-1.60136 -4.60954,-3.26275 -1.02629,-1.35026 -3.22559,-3.30473 -8.12516,-7.22067 l -1.66107,-1.32759 0.26829,-0.9662 c 0.24616,-0.8865 0.20535,-1.05692 -0.49467,-2.06542 -0.41964,-0.60456 -1.94321,-2.32268 -3.3857,-3.81805 -3.16713,-3.28317 -4.03766,-4.62021 -3.71836,-5.71084 0.21726,-0.74206 0.17355,-0.78241 -2.23644,-2.06442 -1.158376,-0.61621 -2.244496,-1.15214 -3.350529,-1.86627 104.853174,-0.10689 0,0 104.854214,-0.0721 z"
           id="path20934" />
        <path
           inkscape:connector-curvature="0"
           style="display:inline;fill:none;fill-opacity:1;stroke:#000000;stroke-width:0.2;stroke-miterlimit:4;stroke-dasharray:none;stroke-opacity:1"
           d="m 155.18036,333.63711 c -0.78752,-0.34259 -1.22309,-0.70285 -1.2482,-1.03258 -0.0527,-0.69147 1.71295,-0.94702 3.68477,-0.53335 1.149,0.24106 1.48129,0.42464 1.51265,0.83569 0.0857,1.12371 -2.1109,1.52984 -3.94919,0.73019 z"
           id="path20926" />
        <path
           inkscape:connector-curvature="0"
           style="display:inline;fill:none;fill-opacity:1;stroke:#000000;stroke-width:0.2;stroke-miterlimit:4;stroke-dasharray:none;stroke-opacity:1"
           d="m 172.04361,332.3725 c -0.23726,-0.19216 -1.19384,-0.24343 -2.61677,-0.13971 -2.47569,0.18078 -4.32463,-0.3078 -4.56263,-1.20476 -0.19133,-0.72113 0.33997,-0.97789 2.34996,-1.13569 l 1.80264,-0.14149 -0.89198,-0.96524 c -1.7567,-1.90099 -1.08225,-2.61637 2.18565,-2.31823 1.0395,0.0948 2.06936,0.0874 2.2886,-0.0165 0.57595,-0.27291 3.63014,0.2484 5.14643,0.87843 1.32025,0.54861 2.84326,1.60594 2.86511,1.98897 0.0441,0.77284 -0.48248,1.02689 -2.30157,1.1106 -1.6919,0.0779 -2.05501,0.19353 -3.5931,1.14429 -1.8915,1.16926 -2.12875,1.24022 -2.67232,0.79932 z"
           id="path20924" />
        <path
           inkscape:connector-curvature="0"
           style="display:inline;fill:none;fill-opacity:1;stroke:#000000;stroke-width:0.2;stroke-miterlimit:4;stroke-dasharray:none;stroke-opacity:1"
           d="m 184.61664,330.99972 c -0.26378,-0.42699 -0.42222,-0.96843 -0.35208,-1.20321 0.37997,-1.27193 4.02453,-0.75095 4.12679,0.58997 0.0506,0.66391 -0.12626,0.76993 -1.84561,1.10615 -1.421,0.27788 -1.45895,0.26817 -1.9291,-0.49291 z"
           id="path20922" />
        <path
           inkscape:connector-curvature="0"
           style="display:inline;fill:none;fill-opacity:1;stroke:#000000;stroke-width:0.2;stroke-miterlimit:4;stroke-dasharray:none;stroke-opacity:1"
           d="m 157.0826,327.91302 c -1.43286,-0.28916 -2.66598,-1.13359 -2.72168,-1.86374 -0.0784,-1.0278 -4.19788,-2.55096 -9.14721,-3.38216 -1.62621,-0.2731 -3.04669,-0.61644 -3.15663,-0.76299 -0.1331,-0.1774 -1.08858,0.086 -2.85875,0.78828 -1.46239,0.58008 -2.92618,1.07268 -3.25287,1.09466 -1.10739,0.0743 -0.75831,-0.89396 0.82273,-2.28263 1.83786,-1.61427 3.49169,-2.15066 6.86039,-2.22504 3.1372,-0.0693 5.98369,0.66433 12.38378,3.19141 2.74585,1.08421 5.56474,2.1385 6.26418,2.34286 1.31101,0.38308 1.70024,0.77655 1.48406,1.50021 -0.3519,1.17799 -4.19926,2.09929 -6.678,1.59914 z"
           id="path20920" />
      </g>
      <path
         style="fill:none;stroke:#000000;stroke-width:0.26458335px;stroke-linecap:butt;stroke-linejoin:miter;stroke-opacity:1"
         d="m -197.29707,437.87846 43.20757,-40.10139 31.9272,-33.07526 20.08116,-47.27292"
         id="path20975"
         inkscape:connector-curvature="0" />
      <path
         style="fill:none;stroke:#000000;stroke-width:0.26458335px;stroke-linecap:butt;stroke-linejoin:miter;stroke-opacity:1"
         d="m -57.476832,295.0443 30.532371,52.371 104.262912,59.64058"
         id="path20977"
         inkscape:connector-curvature="0" />
    </g>
    <g
       id="g20963"
       transform="translate(14.918472,-12.325823)">
      <path
         id="path20938"
         d="m 38.445921,296.99091 c -4.080888,-2.55486 -7.710351,-5.55669 -10.399878,-8.63061 -4.33779,-4.95781 -7.735478,-13.12477 -6.5869,-15.83287 0.587608,-1.38542 0.475288,-3.89109 -0.381811,-8.51778 -0.420086,-2.2676 -0.711435,-4.51335 -0.647466,-4.99054 -0.190263,-1.12853 0.277603,-1.92557 -0.224748,-2.71427 -2.9949,-0.76547 -7.383155,-2.90812 -9.043019,-4.41543 -1.5116254,-1.37273 -0.629882,-2.28055 1.64536,-1.69409 l 1.148075,0.29595 -2.012802,-1.73549 c -1.107051,-0.95452 -2.8205964,-2.59848 -3.8079044,-3.65322 -0.987286,-1.05473 -2.730985,-2.57342 -3.874843,-3.37484 -1.740282,-1.21935 -2.119208,-1.6174 -2.323123,-2.43687 -0.198851,-0.80043 -0.426421,-1.05044 -1.24358699,-1.36632 -0.16723151,-0.0687 -0.44242329,-0.16291 -0.55695453,-0.2562 0,0 -0.0153614,-1.25504 -0.03819874,-1.3066 -0.0976361278,-9.74026 0.09985728,-31.17735 0.02310158,-40.91761 l 2e-6,-3e-5 c 2.70400598,-1.07329 7.00597968,-1.07952 13.17651808,-0.24764 4.810448,0.64852 5.576166,0.68215 9.584752,0.42073 2.39616,-0.15627 4.9076,-0.19278 5.58099,-0.0812 0.6734,0.11164 3.66962,0.25606 6.65828,0.32092 7.22131,0.15675 8.34693,0.42968 7.60656,1.84443 -0.30851,0.58949 -1.16284,0.53553 11.01431,0.69572 8.21194,0.10802 8.51652,0.0943 8.9943,-0.40603 0.272,-0.28481 1.06581,-0.83591 1.76406,-1.22469 1.16168,-0.64679 1.62823,-0.73304 5.49164,-1.01543 3.08118,-0.22485 5.30427,-0.22236 8.2267,0.0104 4.65403,0.37079 9.13269,0.16136 10.39028,-0.48588 1.03398,-0.53214 0.94075,-1.17996 -0.19925,-1.38439 -1.16205,-0.20837 -2.12441,-1.16081 -2.08656,-2.06503 0.0825,-1.97112 3.03565,-2.65614 6.2324,-1.4457 2.05049,0.77641 2.53402,1.17327 2.47698,2.03309 -0.0556,0.83865 -1.02102,1.34697 -2.88957,1.52094 l -1.58089,0.14725 1.91436,0.74609 c 2.26139,0.88133 3.90803,1.07237 4.8896,0.56739 0.38426,-0.1977 1.03656,-0.98804 1.44958,-1.7563 0.72929,-1.35654 0.73637,-1.41398 0.24623,-1.99045 -0.27758,-0.32645 -0.68314,-0.58485 -0.90125,-0.57424 -0.85421,0.0415 -3.1793,-1.05536 -4.05806,-1.91456 -1.6697,-1.63252 -1.76583,-3.50454 -0.24937,-4.85578 0.81599,-0.72708 1.10783,-0.81925 3.06646,-0.96861 l 2.16463,-0.1651 2.786745,2.18625 c 3.96978,3.11436 5.10914,3.85354 7.10047,4.60667 1.9902,0.75267 3.97228,1.03936 6.07654,0.87889 l 1.43396,-0.10937 -0.0539,1.39723 c -0.067,1.7358 0.23448,2.15276 1.46349,2.0239 1.45177,-0.15224 3.69589,-1.61858 5.26238,-3.43869 1.34859,-1.56688 1.40441,-1.69366 1.24397,-2.82521 l -0.16797,-1.18469 -1.1995,-0.0709 c -3.71795,-0.21981 -7.21714,-1.09041 -8.11563,-2.01919 -0.21706,-0.22442 -0.98362,-0.65207 -1.70348,-0.95022 -2.111,-0.87491 -3.28857,-1.8914 -3.36591,-2.90538 -0.0364,-0.47675 0.12279,-1.12989 0.35367,-1.45145 0.58469,-0.81434 4.23562,-2.93687 5.89537,-3.42744 2.44192,-0.72172 5.30189,-0.2334 5.38988,0.9203 0.0411,0.53871 -1.12112,1.81921 -1.95728,2.15655 -0.49487,0.19963 -0.47925,0.25473 0.37101,1.30884 0.87258,1.08179 2.24634,2.1107 3.13545,2.34832 0.59633,0.15939 0.74948,-0.42898 0.37458,-1.439 -0.52294,-1.40889 -0.15641,-3.18039 0.87299,-4.21916 0.99337,-1.00243 2.23268,-1.4251 4.55407,-1.55327 1.83076,-0.10112 3.68012,0.42865 6.33295,1.81389 4.38295,2.28873 6.01661,2.37669 9.12117,0.49115 l 1.5974,-0.97019 1.64302,0.72109 c 2.54032,1.11492 4.29772,1.48714 10.72515,2.27149 5.94908,0.72596 8.90608,1.40196 10.01845,2.29035 0.43577,0.34799 0.96823,0.4425 2.03503,0.36115 0.79466,-0.0606 1.7582,-0.0177 2.14119,0.0955 0.76258,0.22527 0.98094,0.92158 0.37852,1.20705 -0.30944,0.14662 -0.26834,0.25771 0.22029,0.59525 0.79819,0.55137 0.5607,0.90373 -1.05732,1.56847 -0.74126,0.30455 -1.44526,0.65793 -1.56446,0.78529 -0.11917,0.12737 0.49618,0.3681 1.36756,0.53492 0.87135,0.16683 2.61533,0.51425 3.8755,0.77198 1.26018,0.25777 3.7444,0.7344 5.5205,1.0592 3.89015,0.71144 5.11578,1.06321 6.30747,1.8103 1.69453,1.06235 1.11165,2.84659 -1.59563,4.8843 -1.58136,1.19026 -1.83882,1.22868 -2.73085,0.40755 -1.74144,-1.60302 -5.43248,-2.46807 -8.97155,-2.10259 -2.08957,0.21582 -1.24225,1.5625 1.89669,3.01457 0.98334,0.45487 2.5487,1.27586 3.4786,1.82438 0.92996,0.54852 2.01634,1.09347 2.4142,1.21102 0.92138,0.27213 0.94405,0.62057 0.073,1.12433 -0.37914,0.21931 -0.94011,0.83578 -1.24653,1.36996 -0.30633,0.53423 -0.69655,0.95748 -0.86688,0.94072 -0.17042,-0.0167 -1.46842,-0.34887 -2.88456,-0.738 -2.90209,-0.79743 -4.74115,-1.07135 -4.44264,-0.66167 0.10509,0.14417 0.96021,0.63461 1.90034,1.08979 0.94014,0.45519 2.05934,1.11105 2.48707,1.45764 1.77693,1.43932 0.6136,1.89581 -3.18976,1.25159 -7.47094,-1.26539 -8.93246,-1.6024 -9.38516,-2.16399 -2.14825,-2.6651 -4.71781,-3.26988 -11.6712,-2.74691 -3.24822,0.24471 -4.68902,0.24722 -5.60431,0.0113 -1.31141,-0.33805 -2.66437,-1.33704 -2.23475,-1.65009 0.13928,-0.1015 1.46836,-0.3945 2.95349,-0.65113 5.6642,-0.97877 8.64409,-2.81512 9.82,-6.05153 0.77297,-2.12734 0.58535,-2.62694 -1.56173,-4.15874 -3.76503,-2.6861 -5.75387,-3.3406 -6.72228,-2.21229 -0.4827,0.56233 -0.67142,0.53297 -5.11126,-0.79582 -1.94158,-0.58108 -3.89187,-1.10253 -4.33401,-1.15884 l -0.80386,-0.10232 0.62713,0.39426 c 0.73272,0.46068 0.84667,0.9851 0.27316,1.25689 -0.22281,0.10556 -2.62114,0.3636 -5.32964,0.57337 l -4.92456,0.38159 1.11329,0.40661 c 1.95204,0.71302 2.88729,2.23012 2.12866,3.45304 -0.28953,0.46667 -0.24491,0.63556 0.37293,1.41062 0.87627,1.09933 1.00187,2.33846 0.31089,3.0678 -0.4364,0.46062 -1.01607,0.59649 -3.75028,0.87883 -2.86758,0.29613 -3.21721,0.38295 -3.08537,0.76604 0.12981,0.37698 -0.12994,0.45563 -2.03971,0.61743 -1.82906,0.15484 -2.67995,0.39593 -5.18158,1.4672 l -2.99316,1.2818 0.79811,0.3805 c 2.07751,0.99051 0.62974,1.81461 -5.87501,3.34419 -6.04541,1.42157 -6.11437,1.44771 -4.75347,1.80248 0.92882,0.24211 1.773,0.843 1.80364,1.28385 0.0471,0.6705 -1.37267,2.33447 -4.09631,4.8022 -3.52359,3.19256 -4.654985,4.57789 -4.797255,5.87397 -0.13619,1.24081 0.615815,2.03334 2.726005,2.87287 0.99951,0.39766 2.42634,1.24181 3.17075,1.87592 2.53801,2.16178 5.83199,3.06554 13.88465,3.80949 10.30826,0.9523 13.20677,2.23678 15.99576,7.08857 1.59196,2.76938 2.97606,4.19827 4.63969,4.78978 3.83188,1.36249 6.38524,-3.55516 3.93968,-7.58767 -0.31382,-0.51754 -0.57924,-1.05382 -0.58976,-1.19177 -0.0105,-0.13794 0.52413,-0.56442 1.18815,-0.94768 1.6914,-0.97633 4.14506,-3.88754 4.44875,-5.27829 0.47025,-2.15355 -0.5355,-3.88144 -2.94306,-5.05624 -0.66612,-0.32511 -1.21823,-0.68348 -1.22684,-0.79655 -0.009,-0.11305 0.25275,-0.78536 0.58078,-1.494 0.52479,-1.13364 0.58569,-1.69379 0.50685,-4.6619 -0.10315,-3.88449 0.14085,-4.63325 1.69283,-5.19449 1.37642,-0.49777 1.45261,-0.49551 7.36648,0.21869 6.30349,0.76125 8.94069,1.37249 11.18727,2.59303 2.32538,1.26336 3.2941,2.70121 3.48372,5.17094 l 0.14028,1.83942 1.20278,0.11396 c 1.73045,0.16396 3.5382,-0.3976 6.9476,-2.15815 4.52173,-2.33491 5.7766,-2.58665 8.0582,-1.61643 1.99448,0.84809 4.76352,4.47293 5.26652,6.89425 0.14012,0.6748 0.3289,1.48527 0.4193,1.80102 0.25046,0.87448 3.44818,2.30179 6.53113,2.91515 1.45801,0.29008 2.92413,0.72573 3.25805,0.96809 l 0.60704,0.44061 -0.0504,0.53404 -0.0273,0.39825 0.0981,0.39858 c 1.95154,-0.14282 3.39074,0.56251 4.31354,2.11375 1.37119,2.305 0.42149,4.78773 -2.48921,6.5072 -1.60188,0.94629 -1.8419,1.0056 -7.08336,1.75027 -9.80864,1.39351 -19.1468,4.23325 -24.01163,7.30192 -2.24861,1.4184 3.79338,2.33663 6.00619,1.03421 4.19654,-2.46994 3.27558,-3.73303 4.94923,-2.29658 0.6333,0.54358 0.58632,0.99006 -0.2167,2.05874 l -0.71143,0.9468 0.85625,0.89105 c 1.04452,1.08692 4.22387,3.29057 6.95432,4.81993 l 2.02437,1.13392 0.89261,-0.51237 c 0.70741,-0.40606 0.97756,-0.45213 1.30211,-0.2221 0.57395,0.40677 1.21531,1.52978 1.10478,1.93433 -0.12776,0.46763 -1.22662,0.50895 -2.229,0.0838 -0.7914,-0.33569 -0.9653,-0.30182 -3.32076,0.64635 -4.30468,1.73279 -7.67348,2.44672 -8.44201,1.78906 -0.62822,-0.53754 -0.0189,-1.18155 2.59081,-2.73832 1.36121,-0.81201 2.41139,-1.53091 2.3337,-1.59758 -0.11836,-0.10091 -1.95498,0.30152 -7.7884,1.70796 -0.38854,0.0937 -0.77785,0.0724 -0.86513,-0.0475 -0.0873,-0.11978 -0.79905,0.50557 -1.58172,1.38975 -0.78269,0.88411 -2.37908,2.26809 -3.54759,3.07546 -1.16852,0.80733 -2.37408,1.6446 -2.67903,1.86057 -0.52511,0.37194 -0.53047,0.43969 -0.10136,1.28053 0.6244,1.22343 0.62246,1.80951 -0.009,2.66032 -0.42888,0.57811 -0.92082,0.81517 -2.36749,1.14091 -4.20394,0.94663 -4.86116,1.13311 -5.71654,1.62196 -1.13273,0.64731 -1.82331,1.78124 -1.9568,3.21309 -0.10729,1.15086 -0.36676,1.45235 -1.54306,1.79295 -0.79081,0.22897 -1.26703,1.44823 -1.39603,3.57425 -1.32176,3.41193 -0.39784,3.16512 -0.96534,4.67701 0.34031,1.4234 -0.37256,3.18801 -1.87854,4.65004 -1.9183,1.8623 -6.56954,5.48494 -7.99449,6.22652 -1.58369,0.82418 -2.92093,2.44137 -3.20352,3.87417 -0.13968,0.70817 -0.19302,1.44986 -0.11464,2.27625 -34.93272,-0.52798 -69.977885,-0.0573 -104.938339,-0.013 z"
         style="display:inline;fill:none;fill-opacity:1;stroke:#000000;stroke-width:0.2;stroke-miterlimit:4;stroke-dasharray:none;stroke-opacity:1"
         inkscape:connector-curvature="0" />
      <path
         id="path20918"
         d="m 214.44346,245.45455 c -0.69393,-0.52242 -0.98212,-0.5788 -1.88575,-0.37096 -2.29462,0.52791 -2.62315,0.51604 -2.95085,-0.10669 -0.3095,-0.58812 -0.32263,-0.58855 -4.84423,-0.16126 -4.00384,0.37835 -4.59109,0.37952 -5.02322,0.01 -0.46313,-0.39637 -0.46435,-0.451 -0.0226,-1.02084 0.25667,-0.33119 0.94889,-0.93636 1.53817,-1.34488 0.89998,-0.62393 1.06168,-0.87602 1.01053,-1.57534 -0.0911,-1.24661 0.83986,-3.39925 2.11566,-4.89146 1.37888,-1.61282 3.27438,-2.79965 3.92572,-2.45807 0.66666,0.34959 0.76837,1.44316 0.2497,2.68492 -0.25413,0.60843 -0.45835,1.15472 -0.45384,1.21392 0.004,0.0592 0.47984,0.13472 1.05631,0.16772 3.42013,0.19589 7.70883,3.39232 7.89554,5.88465 0.0737,0.96628 -0.73466,2.52335 -1.32578,2.55782 -0.25648,0.0145 -0.83485,-0.25019 -1.28544,-0.58918 z"
         style="display:inline;fill:none;fill-opacity:1;stroke:#000000;stroke-width:0.2;stroke-miterlimit:4;stroke-dasharray:none;stroke-opacity:1"
         inkscape:connector-curvature="0" />
      <path
         id="path20916"
         d="m 123.33395,206.26339 c -1.5653,-0.42267 -2.74259,-1.62182 -2.61558,-2.66412 0.15362,-1.26043 1.14713,-2.5547 2.6294,-3.42546 2.73674,-1.60767 5.71896,-1.52718 8.18411,0.22089 0.70685,0.50119 2.41773,1.40638 3.80199,2.01141 3.19704,1.39743 3.38542,1.92206 0.6464,1.79988 -1.06171,-0.0474 -3.43459,0.0286 -5.27313,0.16886 l -3.34272,0.25493 -1.15043,0.95012 c -1.29518,1.06969 -1.37743,1.08922 -2.88004,0.68349 z"
         style="display:inline;fill:none;fill-opacity:1;stroke:#000000;stroke-width:0.2;stroke-miterlimit:4;stroke-dasharray:none;stroke-opacity:1"
         inkscape:connector-curvature="0" />
      <path
         id="path20914"
         d="m 147.5172,192.82122 c -1.69821,-0.45359 -2.37894,-1.58159 -1.35025,-2.23738 0.95532,-0.60896 3.56,-1.09556 4.70514,-0.879 0.86542,0.16367 1.07557,0.32073 1.11461,0.83315 0.0536,0.70225 -0.8024,1.52935 -2.19934,2.12513 -1.02058,0.43523 -1.18887,0.44694 -2.27017,0.15829 z"
         style="display:inline;fill:none;fill-opacity:1;stroke:#000000;stroke-width:0.2;stroke-miterlimit:4;stroke-dasharray:none;stroke-opacity:1"
         inkscape:connector-curvature="0" />
      <path
         id="path20912"
         d="m 75.575455,194.14873 c -0.0223,-0.29222 -0.28732,-0.54371 -0.64358,-0.61071 -1.1142,-0.20934 -10.04782,0.60986 -14.95413,1.37125 -8.92949,1.3858 -15.58823,1.62134 -20.05286,0.7094 -3.94246,-0.80525 -6.36533,-1.96793 -5.22602,-2.50781 0.17628,-0.0835 2.61827,-0.5518 5.4267,-1.04059 5.59016,-0.97296 5.53238,-1.02342 -0.71113,-0.62121 -3.23823,0.20855 -4.46356,0.18938 -5.24697,-0.0823 -1.06567,-0.36956 -1.23165,-0.59921 -0.79797,-1.10452 0.18204,-0.2121 -0.0802,-0.32045 -0.88765,-0.36669 -1.26219,-0.0723 -2.21237,-0.81529 -2.01018,-1.57192 0.33271,-1.24504 1.72525,-2.46585 4.30372,-3.77286 1.34502,-0.6818 1.36086,-0.70189 0.37033,-0.46946 -1.74566,0.40926 -3.18804,1.13015 -7.8299,3.91338 -2.45664,1.47297 -5.06097,2.92403 -5.78741,3.22454 -1.242171,0.51383 -1.436922,0.52766 -3.271936,0.23258 -2.414626,-0.38812 -4.497584,-1.15145 -5.404814,-1.98066 -1.309995,-1.19732 -0.90207,-3.35877 0.905693,-4.79889 0.377514,-0.30075 0.895987,-0.93404 1.152165,-1.40733 0.734455,-1.35692 2.211988,-1.90592 5.93423,-2.20493 3.335622,-0.26792 6.920662,-0.10318 10.757722,0.49438 4.02749,0.62726 6.21908,1.17033 6.2479,1.54825 0.0165,0.21696 0.32261,0.33479 0.77933,0.29993 1.07243,-0.0818 2.47646,0.31822 3.29541,0.93886 0.52915,0.40101 0.86418,0.47199 1.34855,0.28552 1.27376,-0.49024 6.44835,-0.7374 9.88526,-0.47217 1.89221,0.14604 4.22829,0.20542 5.19127,0.13197 l 1.7509,-0.13353 0.43613,-1.14988 c 0.88962,-2.34544 2.86101,-2.01205 7.35561,1.24397 6.92664,5.0179 8.40008,5.83416 10.67566,5.91415 0.72011,0.0253 1.36232,0.17346 1.42716,0.32924 0.0649,0.15577 -0.40571,0.53035 -1.04573,0.83237 -1.34215,0.63336 -2.63888,2.01658 -2.58257,2.75477 0.0213,0.27904 -0.13939,0.52093 -0.35703,0.53753 -0.21765,0.0166 -0.41274,-0.19345 -0.43362,-0.46666 z"
         style="display:inline;fill:none;fill-opacity:1;stroke:#000000;stroke-width:0.2;stroke-miterlimit:4;stroke-dasharray:none;stroke-opacity:1"
         inkscape:connector-curvature="0" />
      <path
         id="path20910"
         d="m 81.778985,184.7548 c -4.35478,-1.42894 -5.35438,-1.96342 -5.12264,-2.73914 0.15066,-0.50434 1.57321,-1.09878 2.87192,-1.20007 0.81596,-0.0622 0.83668,-0.0936 0.49567,-0.71245 -0.51988,-0.94344 0.0324,-1.42953 2.15564,-1.89719 1.92446,-0.42387 5.35337,-0.38521 6.60764,0.0748 0.92303,0.3384 0.98553,1.10051 0.13356,1.63294 l -0.66221,0.41402 1.25609,0.25054 c 2.31032,0.46084 3.23571,1.53965 2.22995,2.59972 -0.36043,0.37985 -5.42893,3.01035 -5.71072,2.96378 -0.032,-0.006 -1.94677,-0.62936 -4.25522,-1.38684 z"
         style="display:inline;fill:none;fill-opacity:1;stroke:#000000;stroke-width:0.2;stroke-miterlimit:4;stroke-dasharray:none;stroke-opacity:1"
         inkscape:connector-curvature="0" />
      <path
         id="path20908"
         d="m 96.056965,181.74937 c -1.76757,-1.92549 -1.60536,-3.57468 0.46119,-4.68845 2.49266,-1.34345 9.459205,-1.59036 11.086875,-0.39296 0.88527,0.65122 0.7895,1.20231 -0.35123,2.02099 -0.84818,0.60872 -4.80205,1.969 -5.98555,2.05925 -0.4182,0.0319 -0.94685,0.38555 -1.374845,0.91973 -0.48325,0.60314 -1.00895,0.92828 -1.72329,1.06575 -0.96803,0.18635 -1.09113,0.12896 -2.11315,-0.98431 z"
         style="display:inline;fill:none;fill-opacity:1;stroke:#000000;stroke-width:0.2;stroke-miterlimit:4;stroke-dasharray:none;stroke-opacity:1"
         inkscape:connector-curvature="0" />
      <path
         id="path20906"
         d="m 110.97618,174.70127 c -4.2759,-0.2436 -7.68198,-1.84894 -9.22601,-4.34838 -0.88997,-1.4407 -0.59807,-1.63773 2.47155,-1.6683 4.14587,-0.0413 5.81222,0.33471 5.10986,1.15303 -0.46449,0.54123 -0.32329,0.76821 0.68584,1.10224 1.24684,0.41273 6.1141,0.035 11.61524,-0.90149 9.77204,-1.66343 13.83373,-1.27522 14.03327,1.34134 l 0.0685,0.89769 -3.1118,0.0797 c -2.12167,0.0544 -5.27436,0.42212 -9.90832,1.15594 -7.00184,1.10867 -9.20996,1.33217 -11.73809,1.18812 z"
         style="display:inline;fill:none;fill-opacity:1;stroke:#000000;stroke-width:0.2;stroke-miterlimit:4;stroke-dasharray:none;stroke-opacity:1"
         inkscape:connector-curvature="0" />
      <path
         id="path20904"
         d="m 44.810655,179.57111 c -0.65115,-0.0869 -0.90371,-0.9431 -0.35789,-1.21328 0.1758,-0.087 -0.33452,-0.12409 -1.13403,-0.0823 -4.02147,0.20982 -8.53362,0.16444 -8.82867,-0.0888 -0.57937,-0.49728 0.15307,-0.9493 2.28483,-1.4101 1.80056,-0.38919 2.02232,-0.50149 2.05849,-1.04236 0.0923,-1.38024 0.81753,-1.4373 10.59636,-0.83411 2.41946,0.14923 4.7192,0.16411 5.11055,0.033 0.78507,-0.26291 0.88499,-0.79341 0.2361,-1.25332 -0.23145,-0.16399 -0.43856,-0.53158 -0.46031,-0.81677 -0.0352,-0.4616 0.085,-0.50869 1.09503,-0.42902 3.78211,0.2983 9.11045,1.85192 9.55276,2.78537 0.32451,0.68478 -0.79457,1.64106 -2.27603,1.94493 -4.52758,0.92868 -16.68645,2.56557 -17.87721,2.40674 z"
         style="display:inline;fill:none;fill-opacity:1;stroke:#000000;stroke-width:0.2;stroke-miterlimit:4;stroke-dasharray:none;stroke-opacity:1"
         inkscape:connector-curvature="0" />
      <path
         id="path20902"
         d="m 81.172505,175.37662 c -0.26268,-0.36051 -2.48288,-1.23855 -4.18874,-1.65654 -2.52267,-0.61817 -2.24038,-1.55205 0.5352,-1.77064 1.41275,-0.11175 1.72423,-0.23098 2.27774,-0.87594 0.58325,-0.67957 0.77934,-0.7451 2.16968,-0.7252 2.60312,0.0373 5.71469,1.60584 5.81582,2.93184 0.0839,1.09966 -1.80013,1.9962 -4.65796,2.21654 -0.97085,0.074 -1.84908,0.0208 -1.95174,-0.12006 z"
         style="display:inline;fill:none;fill-opacity:1;stroke:#000000;stroke-width:0.2;stroke-miterlimit:4;stroke-dasharray:none;stroke-opacity:1"
         inkscape:connector-curvature="0" />
      <path
         id="path20900"
         d="m 22.415095,177.31145 c -2.684055,-0.43516 -3.290135,-1.48479 -1.434221,-2.48376 2.068191,-1.11326 8.655181,-2.6801 12.499671,-2.9733 3.26763,-0.24921 3.69618,0.87217 0.87407,2.28714 -1.20606,0.60469 -1.91897,0.77788 -3.54662,0.86161 -2.19057,0.11271 -4.15052,0.88675 -4.99125,1.97126 -0.48609,0.62705 -1.18552,0.69636 -3.40165,0.33705 z"
         style="display:inline;fill:none;fill-opacity:1;stroke:#000000;stroke-width:0.2;stroke-miterlimit:4;stroke-dasharray:none;stroke-opacity:1"
         inkscape:connector-curvature="0" />
      <path
         id="path20898"
         d="m 92.389865,170.73457 c -1.79794,-0.48922 -1.92126,-1.66638 -0.24225,-2.31225 1.4339,-0.55153 3.21116,-0.3539 4.78372,0.53198 2.0597,1.16019 1.85225,1.49158 -1.11703,1.78445 -1.43852,0.14191 -2.89412,0.14009 -3.42444,-0.004 z"
         style="display:inline;fill:none;fill-opacity:1;stroke:#000000;stroke-width:0.2;stroke-miterlimit:4;stroke-dasharray:none;stroke-opacity:1"
         inkscape:connector-curvature="0" />
      <path
         id="path20896"
         d="m 115.06592,169.03697 c -3.79945,-0.25007 -4.31603,-1.47463 -1.12696,-2.67148 0.8683,-0.32587 1.39188,-0.6727 1.37378,-0.91008 -0.0736,-0.96532 1.74198,-1.15884 7.50152,-0.79969 l 1.06649,0.0665 -0.95583,-0.35544 c -0.52573,-0.19551 -1.71892,-0.53985 -2.65155,-0.76524 -2.05971,-0.49774 -2.69336,-0.94599 -2.24722,-1.58969 0.25793,-0.37226 0.24289,-0.41294 -0.0968,-0.25593 -0.22212,0.10289 -1.21953,0.33276 -2.21652,0.51082 -1.09511,0.19557 -2.36478,0.64239 -3.20738,1.12871 -1.15332,0.66566 -1.852,0.85693 -4.03674,1.10511 -3.07537,0.34937 -6.49362,0.0622 -8.38747,-0.70478 -1.041685,-0.42184 -1.254225,-0.62414 -1.260745,-1.20013 -0.008,-0.6771 -0.0539,-0.69307 -2.04416,-0.70832 -5.16127,-0.0395 -6.50257,-1.32033 -3.63941,-3.47536 3.63623,-2.73688 8.249005,-3.35269 13.408915,-1.79 0.89634,0.27147 3.65172,0.8822 6.12304,1.35719 6.87466,1.3213 8.11084,1.89419 6.80303,3.15289 l -0.59744,0.57498 0.87727,-0.2396 c 0.48251,-0.13179 2.31572,-0.36311 4.07378,-0.51396 2.09557,-0.17968 2.85659,-0.31393 2.20958,-0.38934 -1.24179,-0.14477 -5.33019,-1.37497 -6.02629,-1.81338 -0.3026,-0.19061 -0.46988,-0.50621 -0.39718,-0.74955 0.15391,-0.51522 0.86732,-0.58252 5.96906,-0.56323 4.68153,0.0177 6.27001,-0.2779 6.54786,-1.21847 0.17429,-0.59006 0.35608,-0.67434 1.7169,-0.7957 0.83708,-0.0748 2.04895,-0.27167 2.69302,-0.43783 0.6522,-0.16825 -1.62984,-0.03 -5.15052,0.31207 -6.44494,0.62618 -6.35657,0.62483 -19.87797,0.30723 l -4.51909,-0.10613 -0.13585,-0.70164 c -0.19228,-0.993 0.64962,-1.54812 3.41101,-2.24905 1.89531,-0.48109 3.85152,-0.67294 11.27518,-1.10585 4.94011,-0.2881 9.34047,-0.52091 9.77857,-0.51738 0.70795,0.006 0.78242,-0.0667 0.6698,-0.6486 -0.0697,-0.36026 0.0196,-0.89099 0.19849,-1.17934 0.31214,-0.50319 1.11515,-0.58967 19.88671,-2.14209 19.92312,-1.64765 22.58137,-1.76549 28.07003,-1.24387 1.24955,0.11876 2.56679,0.37851 2.92723,0.57724 0.5974,0.32946 0.62126,0.40101 0.27002,0.81026 -0.30458,0.35486 -1.31987,0.5618 -4.84646,0.98785 -4.87826,0.58931 -6.91489,0.9776 -6.69693,1.27673 0.0777,0.10661 0.80894,0.22605 1.62505,0.26541 1.1643,0.0561 1.47315,0.16444 1.43433,0.50304 -0.0901,0.78649 -5.66296,2.58708 -16.92277,5.46779 -3.71606,0.95073 -6.78741,1.8453 -6.82516,1.98792 -0.0377,0.14265 -0.65657,0.30416 -1.37507,0.35896 -1.20984,0.0923 -1.28331,0.13578 -0.99436,0.58908 0.95646,1.50043 0.19486,2.47601 -2.89152,3.70352 -1.47309,0.58592 -6.23185,1.83904 -8.84526,2.32924 l -0.91564,0.17172 0.92692,-0.0239 c 1.50099,-0.0386 4.06688,1.43106 3.54995,2.03332 -0.46929,0.54685 -2.68245,0.80412 -8.32632,0.96801 -4.64765,0.13498 -6.68826,0.29446 -8.18049,0.63923 -2.28374,0.52788 -6.48107,0.84527 -8.99245,0.67979 z"
         style="display:inline;fill:none;fill-opacity:1;stroke:#000000;stroke-width:0.2;stroke-miterlimit:4;stroke-dasharray:none;stroke-opacity:1"
         inkscape:connector-curvature="0" />
      <path
         id="path20894"
         d="m 47.633105,171.32683 c -1.73793,-0.30316 -2.21363,-1.12567 -1.13249,-1.95808 0.72516,-0.55837 3.29648,-0.86527 6.23183,-0.74385 1.48998,0.0617 1.8031,0.1572 1.83378,0.55949 0.0737,0.96595 -4.88812,2.49918 -6.93312,2.14244 z"
         style="display:inline;fill:none;fill-opacity:1;stroke:#000000;stroke-width:0.2;stroke-miterlimit:4;stroke-dasharray:none;stroke-opacity:1"
         inkscape:connector-curvature="0" />
      <path
         id="path20892"
         d="m 80.169895,167.40822 c -1.32491,-0.4078 -2.00829,-0.42119 -6.02134,-0.1179 -4.06889,0.3073 -4.58652,0.29584 -5.1168,-0.11526 -0.32453,-0.25155 -0.61169,-0.74184 -0.63821,-1.0895 -0.0359,-0.47065 -0.28682,-0.71108 -0.98237,-0.94133 -1.09422,-0.3622 -1.30259,-0.58144 -1.03821,-1.09239 0.15318,-0.2962 0.8224,-0.38866 3.19932,-0.44221 6.73811,-0.15184 12.95086,1.10531 13.38846,2.70913 0.13838,0.50725 -0.53916,1.55176 -1.00571,1.55036 -0.15985,-5.2e-4 -0.96315,-0.20787 -1.78514,-0.4609 z"
         style="display:inline;fill:none;fill-opacity:1;stroke:#000000;stroke-width:0.2;stroke-miterlimit:4;stroke-dasharray:none;stroke-opacity:1"
         inkscape:connector-curvature="0" />
      <path
         id="path19309"
         d="m 88.580955,166.35668 c -2.47252,-0.62066 -3.0203,-0.89835 -2.97988,-1.51055 0.0325,-0.49316 0.24582,-0.57621 2.00892,-0.78278 3.23189,-0.37861 6.64554,0.1541 6.71369,1.04771 0.0299,0.39123 -1.43105,1.06706 -2.94754,1.36356 -0.91783,0.17944 -1.75053,0.14432 -2.79519,-0.11794 z"
         style="display:inline;fill:none;fill-opacity:1;stroke:#000000;stroke-width:0.2;stroke-miterlimit:4;stroke-dasharray:none;stroke-opacity:1"
         inkscape:connector-curvature="0" />
    </g>
  </g>
</svg>
