<?xml version="1.0" encoding="UTF-8" standalone="no"?>
<!-- Created with Inkscape (http://www.inkscape.org/) -->

<svg
   xmlns:dc="http://purl.org/dc/elements/1.1/"
   xmlns:cc="http://creativecommons.org/ns#"
   xmlns:rdf="http://www.w3.org/1999/02/22-rdf-syntax-ns#"
   xmlns:svg="http://www.w3.org/2000/svg"
   xmlns="http://www.w3.org/2000/svg"
   xmlns:sodipodi="http://sodipodi.sourceforge.net/DTD/sodipodi-0.dtd"
   xmlns:inkscape="http://www.inkscape.org/namespaces/inkscape"
   width="300mm"
   height="210mm"
   viewBox="0 0 300 210"
   version="1.1"
   id="svg19563"
   inkscape:version="0.92.4 (5da689c313, 2019-01-14)"
   sodipodi:docname="xRuss.svg">
  <defs
     id="defs19557" />
  <sodipodi:namedview
     id="base"
     pagecolor="#ffffff"
     bordercolor="#666666"
     borderopacity="1.0"
     inkscape:pageopacity="0.0"
     inkscape:pageshadow="2"
     inkscape:zoom="0.35355339"
     inkscape:cx="1069.0329"
     inkscape:cy="83.4808"
     inkscape:document-units="mm"
     inkscape:current-layer="layer1"
     showgrid="false"
     inkscape:window-width="1920"
     inkscape:window-height="1017"
     inkscape:window-x="1912"
     inkscape:window-y="-8"
     inkscape:window-maximized="1" />
  <metadata
     id="metadata19560">
    <rdf:RDF>
      <cc:Work
         rdf:about="">
        <dc:format>image/svg+xml</dc:format>
        <dc:type
           rdf:resource="http://purl.org/dc/dcmitype/StillImage" />
        <dc:title></dc:title>
      </cc:Work>
    </rdf:RDF>
  </metadata>
  <g
     inkscape:label="Layer 1"
     inkscape:groupmode="layer"
     id="layer1"
     transform="translate(0,-87)">
    <path
       style="display:inline;fill:none;fill-opacity:1;fill-rule:nonzero;stroke:#000000;stroke-width:0.2;stroke-miterlimit:1;stroke-dasharray:none;stroke-opacity:1"
       d="m 290.20276,195.89845 c -0.088,-0.17106 -3.49399,-1.41922 -4.95748,-2.63105 14.33069,-5.10516 -27.73588,-0.63693 -18.28139,-0.89165 -9.14837,-5.04045 -40.56102,-0.0953 -36.88484,-1.70776 7.73789,0.36105 28.94448,-9.24603 9.36466,-9.40927 -9.51852,0.0728 -13.62832,-0.01 -14.63063,-2.87023 l -2.07478,0.0324 c -14.52028,7.55136 -30.84882,1.0895 -45.57783,8.1028 -2.8313,5.37596 -29.0664,0.43243 -11.89376,8.59185 -1.18146,7.66678 -3.51041,-4.86927 -11.15331,-1.41638 -5.77751,-1.52906 -8.1867,2.47006 -1.63492,3.43681 -6.70627,-0.5988 -16.45916,-8.96094 -13.01175,4.74954 8.18839,-2.44267 15.99628,8.14876 4.6102,1.60529 -2.53538,5.97065 -19.86182,8.55618 -15.17815,5.69303 14.56679,0.61215 7.06936,-28.7535 -5.52879,-15.28147 -8.97569,6.42297 9.7217,11.0879 -4.62019,8.49124 -14.79051,-3.72056 -28.243832,3.28573 -42.042016,1.36501 -5.553071,3.35028 -19.350217,5.84529 -15.019839,0.0677 -9.380305,-1.43783 -1.306551,7.86348 -11.929208,6.33529 -4.244157,3.92228 -7.06522,3.82732 -12.224945,3.99649 4.457043,9.36834 -21.456391,-13.72711 -6.498721,-4.6144 6.813241,3.38201 26.148898,-3.15686 9.084745,-6.00682 -5.397983,-2.40496 -27.174325,-7.15327 -23.870285,1.09904 -1.06402,3.91634 9.638467,18.06752 -2.70437,21.49316 8.675137,0.37229 -10.7034895,5.42486 -0.2051,11.87186 10.521772,-0.94955 9.282958,14.1223 11.297464,11.05861 6.139793,4.56312 14.643285,5.21825 20.574847,9.89118 -2.83107,4.14121 -12.486332,13.32486 0.212398,15.22151 7.908344,-0.65066 28.6327,13.31693 18.611862,-2.62431 8.605669,-4.11948 4.87264,-8.1002 -0.0033,-12.13954 8.909879,-13.18521 24.629119,-4.1846 37.686738,-5.14431 -0.016,-10.84951 15.07052,-11.52581 27.32981,-12.3909 8.59884,6.72354 22.75431,-1.26556 27.21176,12.4034 13.34922,1.9139 26.8368,4.58851 40.68512,1.40796 9.22615,5.45453 12.73619,-11.13441 22.23507,-1.23581 15.049,6.39613 31.98573,4.74914 46.36529,1.03656 3.57804,-15.21047 15.43161,-5.45993 24.68763,2.31706 0.12688,-17.9659 0.13033,-44.95263 -0.032,-61.90392 z"
       id="path21019"
       inkscape:connector-curvature="0" />
    <path
       style="display:inline;fill:none;fill-opacity:1;fill-rule:nonzero;stroke:#000000;stroke-width:0.2;stroke-miterlimit:1;stroke-dasharray:none;stroke-opacity:1"
       d="m 70.561735,167.74525 c 2.010281,2.47184 3.713133,4.66463 5.317248,6.27606 6.567719,2.2008 13.812875,2.70521 3.78023,8.11441 -9.068646,3.73425 -10.549545,9.80957 0.569695,7.31993 10.586539,0.42688 36.063342,-22.32534 17.39274,-27.4707 -16.765507,-4.41465 11.128332,-11.43514 18.143802,-12.32252 14.80342,1.38469 25.75429,10.42806 38.32581,1.2258 8.40136,1.02786 11.3558,5.19095 21.1308,1.18848 -8.19613,9.97733 -31.49084,4.07177 -29.25616,22.32402 2.38189,9.78447 17.1436,-3.73205 21.23498,-6.70021 -0.77359,-17.92421 23.83286,-0.84062 33.73868,-8.45437 5.08822,-1.62772 19.22926,3.42759 9.37178,-5.06832 -7.6178,-4.89252 11.8144,3.90554 9.17576,-7.12981 -4.96037,-17.38718 -25.88663,-6.0416 -36.88487,-13.96569 -14.67493,-0.30462 -24.16702,-12.05857 -39.14351,-12.07754 -5.04432,-3.7591 -10.03322,-7.75684 -17.44805,-4.07139 3.84901,-6.515 -14.50221,-8.29213 -15.21864,-3.7593 -8.77646,-2.86709 -20.908342,-2.18818 -28.731568,-6.33771 -0.251167,2.30769 -9.467401,50.30859 -11.498727,60.90886 z"
       id="Russie-6"
       inkscape:connector-curvature="0" />
  </g>
</svg>
